<svg height="480pt" viewBox="-24 0 480 480" width="480pt" xmlns="http://www.w3.org/2000/svg"><path d="m424 384h-8v-24c0-4.417969-3.582031-8-8-8h-24v-224h24c4.417969 0 8-3.582031 8-8v-48c-.046875-39.746094-32.253906-71.953125-72-72h-256c-39.746094.046875-71.953125 32.253906-72 72v48c0 4.417969 3.582031 8 8 8h24v224h-24c-4.417969 0-8 3.582031-8 8v24h-8c-4.417969 0-8 3.582031-8 8v16c.046875 39.746094 32.253906 71.953125 72 72h288c39.746094-.046875 71.953125-32.253906 72-72v-16c0-4.417969-3.582031-8-8-8zm-392-312c.035156-30.914062 25.085938-55.964844 56-56h256c30.914062.035156 55.964844 25.085938 56 56v40h-368zm176 88h16v16h-16zm-16-16c-10.167969-.011719-19.230469-6.417969-22.632812-16h93.265624c-3.402343 9.582031-12.464843 15.988281-22.632812 16zm-128-16h88.800781c3.828125 18.613281 20.199219 31.976562 39.199219 32v24c0 4.417969 3.582031 8 8 8h32c4.417969 0 8-3.582031 8-8v-24c19-.023438 35.371094-13.386719 39.199219-32h88.800781v224h-106.847656c14.785156-11.894531 24.273437-29.144531 26.398437-48h8.449219c22.089844 0 40-17.910156 40-40s-17.910156-40-40-40h-8v-8c0-4.417969-3.582031-8-8-8h-128c-4.417969 0-8 3.582031-8 8v80c.003906 21.769531 9.878906 42.363281 26.847656 56h-106.847656zm96 168v-30.457031l11.199219 2.25c13.875 2.757812 28.210937 2.144531 41.800781-1.785157l15.808594-4.59375c12.078125-3.5 24.867187-3.777343 37.085937-.796874l6.074219 1.472656v33.910156c0 30.929688-25.074219 56-56 56-30.929688 0-56-25.070312-56-56zm128-56h8c13.253906 0 24 10.746094 24 24s-10.746094 24-24 24h-8zm-16 5.601562-2.289062-.5625c-14.941407-3.625-30.570313-3.277343-45.335938 1l-15.808594 4.59375c-11.117187 3.21875-22.847656 3.722657-34.199218 1.464844l-14.398438-2.882812v-25.214844h112.03125zm-240 122.398438h368v16h-368zm384 40c-.035156 30.914062-25.085938 55.964844-56 56h-288c-30.914062-.035156-55.964844-25.085938-56-56v-8h400zm0 0"/><path d="m391.71875 417.078125c-3.820312-2.203125-8.707031-.898437-10.917969 2.921875-4.308593 7.414062-12.226562 11.980469-20.800781 12h-288c-8.574219-.019531-16.492188-4.585938-20.800781-12-2.273438-3.675781-7.058594-4.882812-10.804688-2.71875-3.742187 2.164062-5.089843 6.910156-3.042969 10.71875 7.175782 12.347656 20.367188 19.964844 34.648438 20h288c14.277344-.042969 27.460938-7.65625 34.632812-20 2.207032-3.820312.902344-8.707031-2.914062-10.921875zm0 0"/><path d="m152 104h128c13.253906 0 24-10.746094 24-24v-32c0-13.253906-10.746094-24-24-24h-128c-13.253906 0-24 10.746094-24 24v32c0 13.253906 10.746094 24 24 24zm-8-56c0-4.417969 3.582031-8 8-8h128c4.417969 0 8 3.582031 8 8v32c0 4.417969-3.582031 8-8 8h-128c-4.417969 0-8-3.582031-8-8zm0 0"/><path d="m152 64c0 13.253906 10.746094 24 24 24s24-10.746094 24-24-10.746094-24-24-24-24 10.746094-24 24zm24-8c4.417969 0 8 3.582031 8 8s-3.582031 8-8 8-8-3.582031-8-8 3.582031-8 8-8zm0 0"/><path d="m216 72h16c4.417969 0 8-3.582031 8-8s-3.582031-8-8-8h-16c-4.417969 0-8 3.582031-8 8s3.582031 8 8 8zm0 0"/><path d="m256 72h16c4.417969 0 8-3.582031 8-8s-3.582031-8-8-8h-16c-4.417969 0-8 3.582031-8 8s3.582031 8 8 8zm0 0"/></svg>