<?xml version="1.0" encoding="iso-8859-1"?>
<!-- Generator: Adobe Illustrator 19.0.0, SVG Export Plug-In . SVG Version: 6.00 Build 0)  -->
<svg version="1.1" id="Layer_1" xmlns="http://www.w3.org/2000/svg" xmlns:xlink="http://www.w3.org/1999/xlink" x="0px" y="0px"
	 viewBox="0 0 512 512" style="enable-background:new 0 0 512 512;" xml:space="preserve">
<g>
	<g>
		<g>
			<path d="M371.526,0H149.002c-18.667,0-33.801,15.137-33.801,33.809V51.2h-0.003v25.6c-4.713,0-8.533,3.82-8.533,8.533v8.533
				c0,4.713,3.82,8.533,8.533,8.533v8.533c-4.713,0-8.533,3.82-8.533,8.533V128c0,4.713,3.82,8.533,8.533,8.533v8.533
				c-4.713,0-8.533,3.821-8.533,8.533v8.533c0,4.713,3.82,8.533,8.533,8.533v273.067h0.003v34.458
				c0,18.672,15.134,33.809,33.801,33.809h222.524c18.673,0,33.809-15.136,33.809-33.809V33.809C405.335,15.136,390.199,0,371.526,0
				z M132.268,33.809c0-9.247,7.494-16.742,16.734-16.742h222.524c9.248,0,16.742,7.495,16.742,16.742V51.2h-256V33.809z
				 M260.265,486.4c-9.427,0-17.067-7.64-17.067-17.067s7.64-17.067,17.067-17.067c9.427,0,17.067,7.64,17.067,17.067
				S269.692,486.4,260.265,486.4z M132.268,68.267h255.997v358.4H132.268V68.267z M132.268,478.191v-34.458h105.431
				c-7.09,6.254-11.567,15.401-11.567,25.6s4.477,19.346,11.567,25.6h-88.697C139.762,494.933,132.268,487.438,132.268,478.191z
				 M371.526,494.933h-88.695c7.09-6.254,11.567-15.401,11.567-25.6s-4.477-19.346-11.567-25.6h105.437v34.458
				C388.268,487.439,380.774,494.933,371.526,494.933z"/>
			<path d="M294.398,25.6h-42.667c-4.713,0-8.533,3.821-8.533,8.533s3.82,8.533,8.533,8.533h42.667c4.713,0,8.533-3.82,8.533-8.533
				S299.111,25.6,294.398,25.6z"/>
			<path d="M226.132,25.6h-8.533c-4.713,0-8.533,3.821-8.533,8.533s3.82,8.533,8.533,8.533h8.533c4.713,0,8.533-3.82,8.533-8.533
				S230.844,25.6,226.132,25.6z"/>
			<path d="M351.904,285.525c-3.16-3.994-7.44-8.02-12.597-12.097c-3.587-2.836-7.397-5.537-11.204-8.027
				c-2.29-1.498-4.091-2.607-5.168-3.237c-9.32-5.302-20.137-4.6-25.751,4.404c-1.025,1.22-2.436,2.869-3.881,4.505
				c-0.209,0.236-0.209,0.236-0.417,0.47c-1.553,1.744-3.015,3.252-2.883,3.163c-5.623,3.811-9.068,3.529-14.031-1.434
				l-18.877-18.869l-18.874-18.874c-4.955-4.96-5.237-8.408-1.428-14.027c-0.087,0.128,1.422-1.334,3.166-2.887
				c0.234-0.208,0.234-0.208,0.47-0.417c1.635-1.446,3.285-2.856,4.505-3.881c9.003-5.614,9.707-16.428,4.459-25.655
				c-0.687-1.174-1.796-2.974-3.295-5.265c-2.492-3.807-5.193-7.616-8.029-11.203c-4.063-5.138-8.074-9.406-12.052-12.562
				c-1.775-1.408-3.543-2.594-5.325-3.537c-8.328-4.405-18.541-2.865-25.209,3.789l-8.338,8.347
				c-28.041,28.032-20.31,61.461,13.016,94.787l24.157,24.165l24.169,24.16c33.325,33.325,66.754,41.057,94.79,13.011l8.336-8.336
				c6.66-6.66,8.2-16.878,3.796-25.204C354.472,289.042,353.298,287.287,351.904,285.525z M339.544,303.948l-8.337,8.337
				c-19.869,19.876-43.149,14.492-70.654-13.013l-24.167-24.159l-24.156-24.164c-27.506-27.506-32.89-50.786-13.015-70.654
				l8.333-8.341c1.364-1.362,3.457-1.677,5.163-0.775c0.788,0.417,1.699,1.028,2.699,1.821c2.784,2.209,5.957,5.585,9.273,9.778
				c2.49,3.148,4.905,6.555,7.136,9.964c1.335,2.039,2.299,3.606,2.797,4.454c1.203,2.116,1.155,2.716,1.187,2.698l-1.29,0.889
				c-0.345,0.288-0.935,0.784-1.689,1.426c-1.257,1.07-2.515,2.157-3.698,3.202c-0.259,0.229-0.259,0.229-0.518,0.46
				c-3.128,2.787-4.871,4.475-5.943,6.058c-8.345,12.313-7.321,24.846,3.486,35.664l18.879,18.879l18.877,18.869
				c10.816,10.816,23.351,11.844,35.669,3.494c1.58-1.07,3.268-2.812,6.055-5.941c0.231-0.259,0.231-0.259,0.46-0.518
				c1.045-1.183,2.133-2.441,3.202-3.698c0.642-0.754,1.138-1.344,1.426-1.689l0.889-1.29c-0.018,0.033,0.581-0.016,2.795,1.244
				c0.753,0.442,2.319,1.406,4.358,2.74c3.409,2.23,6.815,4.644,9.963,7.133c4.207,3.326,7.589,6.508,9.797,9.298
				c0.783,0.99,1.387,1.893,1.802,2.677C341.223,300.496,340.908,302.583,339.544,303.948z"/>
			<path d="M277.332,204.8c14.154,0,25.6,11.446,25.6,25.6c0,4.713,3.82,8.533,8.533,8.533s8.533-3.82,8.533-8.533
				c0-23.58-19.087-42.667-42.667-42.667c-4.713,0-8.533,3.82-8.533,8.533S272.619,204.8,277.332,204.8z"/>
			<path d="M277.332,170.667c33.022,0,59.733,26.712,59.733,59.733c0,4.713,3.821,8.533,8.533,8.533c4.713,0,8.533-3.82,8.533-8.533
				c0-42.447-34.353-76.8-76.8-76.8c-4.713,0-8.533,3.82-8.533,8.533S272.619,170.667,277.332,170.667z"/>
		</g>
	</g>
</g>
<g>
</g>
<g>
</g>
<g>
</g>
<g>
</g>
<g>
</g>
<g>
</g>
<g>
</g>
<g>
</g>
<g>
</g>
<g>
</g>
<g>
</g>
<g>
</g>
<g>
</g>
<g>
</g>
<g>
</g>
</svg>
