<?xml version="1.0" encoding="UTF-8" standalone="no"?>
<svg
   xmlns:dc="http://purl.org/dc/elements/1.1/"
   xmlns:cc="http://creativecommons.org/ns#"
   xmlns:rdf="http://www.w3.org/1999/02/22-rdf-syntax-ns#"
   xmlns:svg="http://www.w3.org/2000/svg"
   xmlns="http://www.w3.org/2000/svg"
   version="1.1"
   width="469.33173"
   viewBox="0 0 21.999925 24.021169"
   height="512.4516"
   enable-background="new 0 0 24 24"
   id="Bold">
  <metadata
     id="metadata17">
    <rdf:RDF>
      <cc:Work
         rdf:about="">
        <dc:format>image/svg+xml</dc:format>
        <dc:type
           rdf:resource="http://purl.org/dc/dcmitype/StillImage" />
      </cc:Work>
    </rdf:RDF>
  </metadata>
  <defs
     id="defs15" />
  <path
     id="path2"
     d="m 21.775197,13.906208 c 0.716,-6.0269999 -0.344,-9.8319999 -2.256,-11.5529999 l 0.001,-10e-4 c -3.086,-2.93899996 -13.5080004,-3.374 -17.2000004,0.132 -1.65800001,1.715 -2.24200001,4.232 -2.30600001,7.348 -0.064,3.1169999 -0.14,8.9559999 5.30100001,10.5399999 h 0.005 l -0.005,2.419 c 0,0 -0.037,0.98 0.589,1.177 0.716,0.232 1.04,-0.223 3.267,-2.883 3.7240004,0.323 6.5840004,-0.417 6.9090004,-0.525 0.752,-0.252 5.007,-0.815 5.695,-6.654 z m -12.2370004,5.477 c 0,0 -2.357,2.939 -3.09,3.702 -0.24,0.248 -0.503,0.225 -0.499,-0.267 0,-0.323 0.018,-4.016 0.018,-4.016 -4.613,-1.322 -4.341,-6.294 -4.291,-8.8949999 0.05,-2.602 0.526,-4.733 1.93,-6.168 3.239,-3.03699996 12.3760004,-2.358 14.7040004,-0.17 2.846,2.523 1.833,9.6509999 1.839,9.8939999 -0.585,4.874 -4.033,5.183 -4.667,5.394 -0.271,0.09 -2.786,0.737 -5.9440004,0.526 z" />
  <path
     id="path4"
     d="m 10.842197,4.3102081 c -0.385,0 -0.385,0.6 0,0.605 2.987,0.023 5.447,2.105 5.474,5.9239999 0,0.403 0.59,0.398 0.585,-0.005 h -0.001 c -0.032,-4.1149999 -2.718,-6.5009999 -6.058,-6.5239999 z" />
  <path
     id="path6"
     d="m 14.771197,10.206208 c -0.009,0.398 0.58,0.417 0.585,0.014 0.049,-2.2689999 -1.35,-4.1379999 -3.979,-4.3349999 -0.385,-0.028 -0.425,0.577 -0.041,0.605 2.28,0.173 3.481,1.729 3.435,3.7159999 z" />
  <path
     id="path8"
     d="m 14.141197,12.787208 c -0.494,-0.286 -0.997,-0.108 -1.205,0.173 l -0.435,0.563 c -0.221,0.286 -0.634,0.248 -0.634,0.248 -3.0140004,-0.797 -3.8200004,-3.9509999 -3.8200004,-3.9509999 0,0 -0.037,-0.427 0.239,-0.656 l 0.544,-0.45 c 0.272,-0.216 0.444,-0.736 0.167,-1.247 -0.74,-1.337 -1.237,-1.798 -1.49,-2.152 -0.266,-0.333 -0.666,-0.408 -1.082,-0.183 h -0.009 c -0.865,0.506 -1.812,1.453 -1.509,2.428 0.517,1.028 1.467,4.3049999 4.495,6.7809999 1.4230004,1.171 3.6750004,2.371 4.6310004,2.648 l 0.009,0.014 c 0.942,0.314 1.858,-0.67 2.347,-1.561 v -0.007 c 0.217,-0.431 0.145,-0.839 -0.172,-1.106 -0.562,-0.548 -1.41,-1.153 -2.076,-1.542 z" />
  <path
     id="path10"
     d="m 11.789197,8.1172081 c 0.961,0.056 1.427,0.558 1.477,1.589 0.018,0.4029999 0.603,0.3749999 0.585,-0.028 -0.064,-1.346 -0.766,-2.096 -2.03,-2.166 -0.385,-0.023 -0.421,0.582 -0.032,0.605 z" />
</svg>
