<?xml version="1.0" encoding="UTF-8" standalone="no"?>
<svg
   xmlns:dc="http://purl.org/dc/elements/1.1/"
   xmlns:cc="http://creativecommons.org/ns#"
   xmlns:rdf="http://www.w3.org/1999/02/22-rdf-syntax-ns#"
   xmlns:svg="http://www.w3.org/2000/svg"
   xmlns="http://www.w3.org/2000/svg"
   height="512"
   width="512"
   xml:space="preserve"
   viewBox="0 0 512 512"
   y="0px"
   x="0px"
   id="Layer_1"
   version="1.1"><metadata
   id="metadata43"><rdf:RDF><cc:Work
       rdf:about=""><dc:format>image/svg+xml</dc:format><dc:type
         rdf:resource="http://purl.org/dc/dcmitype/StillImage" /></cc:Work></rdf:RDF></metadata><defs
   id="defs41" />
<g
   id="g6"
   transform="translate(1,1)">
	<g
   id="g4">
		<path
   id="path2"
   d="M 468.333,-1 H 41.667 C 17.773,-1 -1,17.773 -1,41.667 V 468.334 C -1,492.227 17.773,511 41.667,511 h 196.267 102.4 128 C 492.227,511 511,492.227 511,468.333 V 41.667 C 511,17.773 492.227,-1 468.333,-1 Z M 255,493.933 V 323.267 H 186.733 V 255 H 255 v -59.733 c 0,-48.64 37.547,-89.6 85.333,-93.867 h 76.8 v 68.267 h -68.267 c -14.507,0 -25.6,11.093 -25.6,25.6 V 255 H 408.6 v 68.267 H 323.267 V 493.934 H 255 Z m 238.933,-25.6 c 0,14.507 -11.093,25.6 -25.6,25.6 h -128 v -153.6 h 85.333 v -102.4 h -85.333 v -42.667 c 0,-5.12 3.413,-8.533 8.533,-8.533 H 434.2 v -102.4 h -94.72 c -57.173,5.12 -101.547,53.76 -101.547,110.933 v 42.667 h -68.267 v 102.4 h 68.267 v 153.6 H 41.667 c -14.507,0 -25.6,-11.093 -25.6,-25.6 V 41.667 c 0,-14.507 11.093,-25.6 25.6,-25.6 h 426.667 c 14.507,0 25.6,11.093 25.6,25.6 v 426.666 z" />
	</g>
</g>
<g
   id="g8">
</g>
<g
   id="g10">
</g>
<g
   id="g12">
</g>
<g
   id="g14">
</g>
<g
   id="g16">
</g>
<g
   id="g18">
</g>
<g
   id="g20">
</g>
<g
   id="g22">
</g>
<g
   id="g24">
</g>
<g
   id="g26">
</g>
<g
   id="g28">
</g>
<g
   id="g30">
</g>
<g
   id="g32">
</g>
<g
   id="g34">
</g>
<g
   id="g36">
</g>
</svg>