<?xml version="1.0" encoding="UTF-8" standalone="no"?>
<svg
   xmlns:dc="http://purl.org/dc/elements/1.1/"
   xmlns:cc="http://creativecommons.org/ns#"
   xmlns:rdf="http://www.w3.org/1999/02/22-rdf-syntax-ns#"
   xmlns:svg="http://www.w3.org/2000/svg"
   xmlns="http://www.w3.org/2000/svg"
   height="512"
   width="512"
   xml:space="preserve"
   viewBox="0 0 512 512"
   y="0px"
   x="0px"
   id="Layer_1"
   version="1.1"><metadata
   id="metadata81"><rdf:RDF><cc:Work
       rdf:about=""><dc:format>image/svg+xml</dc:format><dc:type
         rdf:resource="http://purl.org/dc/dcmitype/StillImage" /></cc:Work></rdf:RDF></metadata><defs
   id="defs79" />
<g
   id="g44"
   transform="translate(1,1)">
	<g
   id="g12">
		<path
   id="path2"
   d="M 417.133,511 H 408.6 c -5.12,0 -8.533,-3.413 -8.533,-8.533 0,-5.12 3.413,-8.533 8.533,-8.533 h 8.533 c 5.12,0 8.533,3.413 8.533,8.533 10e-4,5.12 -3.413,8.533 -8.533,8.533 z"
   style="fill:#ffdd09" />
		<path
   id="path4"
   d="M 376.173,511 H 359.96 c -5.12,0 -8.533,-3.413 -8.533,-8.533 0,-5.12 3.413,-8.533 8.533,-8.533 h 16.213 c 5.12,0 8.533,3.413 8.533,8.533 10e-4,5.12 -4.266,8.533 -8.533,8.533 z m -49.493,0 h -16.213 c -5.12,0 -8.533,-3.413 -8.533,-8.533 0,-5.12 3.413,-8.533 8.533,-8.533 h 16.213 c 5.12,0 8.533,3.413 8.533,8.533 0,5.12 -3.413,8.533 -8.533,8.533 z"
   style="fill:#ffdd09" />
		<path
   id="path6"
   d="m 278.04,511 h -16.213 c -5.12,0 -8.533,-3.413 -8.533,-8.533 0,-5.12 3.413,-8.533 8.533,-8.533 h 16.213 c 5.12,0 8.533,3.413 8.533,8.533 0,5.12 -3.413,8.533 -8.533,8.533 z m -48.64,0 h -17.067 c -5.12,0 -8.533,-3.413 -8.533,-8.533 0,-5.12 3.413,-8.533 8.533,-8.533 H 229.4 c 5.12,0 8.533,3.413 8.533,8.533 0,5.12 -4.266,8.533 -8.533,8.533 z m -49.493,0 h -16.213 c -5.12,0 -8.533,-3.413 -8.533,-8.533 0,-5.12 3.413,-8.533 8.533,-8.533 h 16.213 c 5.12,0 8.533,3.413 8.533,8.533 0,5.12 -3.413,8.533 -8.533,8.533 z m -48.64,0 h -16.213 c -5.12,0 -8.533,-3.413 -8.533,-8.533 0,-5.12 3.413,-8.533 8.533,-8.533 h 16.213 c 5.12,0 8.533,3.413 8.533,8.533 0,5.12 -4.267,8.533 -8.533,8.533 z m -49.494,0 H 65.56 c -5.12,0 -8.533,-3.413 -8.533,-8.533 0,-5.12 3.413,-8.533 8.533,-8.533 h 16.213 c 5.12,0 8.533,3.413 8.533,8.533 0.001,5.12 -3.413,8.533 -8.533,8.533 z M 34.84,503.32 c -1.707,0 -3.413,-0.853 -5.12,-1.707 -5.12,-3.413 -10.24,-7.68 -13.653,-13.653 -2.56,-4.267 -1.707,-9.387 2.56,-11.947 4.267,-2.56 9.387,-1.707 11.947,2.56 2.56,4.267 5.12,6.827 8.533,9.387 4.267,2.56 5.12,7.68 2.56,11.947 -1.707,2.56 -4.267,3.413 -6.827,3.413 z M 16.92,460.653 c -0.853,0 -0.853,0 -1.707,0 -4.267,-0.853 -7.68,-5.12 -6.827,-9.387 0.853,-6.827 3.413,-12.8 6.827,-17.92 2.56,-4.267 7.68,-5.12 11.947,-2.56 4.267,2.56 5.12,7.68 2.56,11.947 -2.56,3.413 -4.267,7.68 -4.267,11.947 -0.853,3.413 -4.266,5.973 -8.533,5.973 z m 31.573,-33.28 c -3.413,0 -7.68,-2.56 -8.533,-6.827 -0.853,-4.267 1.707,-9.387 5.973,-10.24 4.267,-0.853 8.533,-1.707 12.8,-1.707 h 5.973 c 5.12,0 8.533,3.413 8.533,8.533 0,5.12 -3.413,8.533 -8.533,8.533 h -5.973 c -2.56,0 -5.973,0 -8.533,0.853 -0.853,0.002 -1.707,0.855 -1.707,0.855 z M 203.8,425.667 h -8.533 c -5.12,0 -8.533,-3.413 -8.533,-8.533 0,-5.12 3.413,-8.533 8.533,-8.533 h 8.533 c 1.707,0 4.267,0 5.973,-0.853 4.267,-0.853 9.387,2.56 10.24,6.827 0.853,4.267 -2.56,9.387 -6.827,10.24 -3.413,0.852 -5.973,0.852 -9.386,0.852 z m -41.813,0 h -16.213 c -5.12,0 -8.533,-3.413 -8.533,-8.533 0,-5.12 3.413,-8.533 8.533,-8.533 h 16.213 c 5.12,0 8.533,3.413 8.533,8.533 0,5.12 -3.413,8.533 -8.533,8.533 z m -48.64,0 H 97.133 c -5.12,0 -8.533,-3.413 -8.533,-8.533 0,-5.12 3.413,-8.533 8.533,-8.533 h 16.213 c 5.12,0 8.533,3.413 8.533,8.533 0,5.12 -3.412,8.533 -8.532,8.533 z m 124.586,-17.92 c -1.707,0 -3.413,-0.853 -5.12,-1.707 -3.413,-2.56 -4.267,-8.533 -1.707,-11.947 2.56,-3.413 4.267,-7.68 5.12,-11.947 0.853,-4.267 5.973,-7.68 10.24,-5.973 4.267,0.853 7.68,5.973 5.973,10.24 -1.707,5.973 -4.267,11.947 -8.533,17.92 0.001,2.56 -3.413,3.414 -5.973,3.414 z m 3.414,-46.08 c -2.56,0 -5.973,-1.707 -7.68,-4.267 -2.56,-3.413 -5.12,-6.827 -8.533,-10.24 -3.413,-2.56 -4.267,-8.533 -1.707,-11.947 2.56,-3.413 8.533,-4.267 11.947,-1.707 5.12,4.267 9.387,9.387 12.8,14.507 2.56,4.267 0.853,9.387 -3.413,11.947 -0.854,1.707 -2.561,1.707 -3.414,1.707 z M 199.533,340.333 H 183.32 c -5.12,0 -8.533,-3.413 -8.533,-8.533 0,-5.12 3.413,-8.533 8.533,-8.533 h 16.213 c 5.12,0 8.533,3.413 8.533,8.533 0,5.12 -3.413,8.533 -8.533,8.533 z m -48.64,0 H 134.68 c -5.12,0 -8.533,-3.413 -8.533,-8.533 0,-5.12 3.413,-8.533 8.533,-8.533 h 16.213 c 5.12,0 8.533,3.413 8.533,8.533 0,5.12 -3.413,8.533 -8.533,8.533 z"
   style="fill:#ffdd09" />
		<path
   id="path8"
   d="m 101.4,340.333 h -8.533 c -5.12,0 -8.533,-3.413 -8.533,-8.533 0,-5.12 3.413,-8.533 8.533,-8.533 h 8.533 c 5.12,0 8.533,3.413 8.533,8.533 0,5.12 -3.413,8.533 -8.533,8.533 z"
   style="fill:#ffdd09" />
		<path
   id="path10"
   d="m 92.867,7.533 c -35.84,0 -59.733,44.373 -59.733,93.013 0,29.013 5.12,45.227 14.507,72.533 17.92,56.32 45.227,116.907 45.227,116.907 0,0 27.307,-60.587 45.227,-116.907 9.387,-28.16 14.507,-43.52 14.507,-72.533 C 152.6,51.907 128.707,7.533 92.867,7.533"
   style="fill:#ffdd09" />
	</g>
	<path
   id="path14"
   d="m 92.867,7.533 c 35.84,0 59.733,44.373 59.733,93.013 0,29.013 -5.12,45.227 -14.507,72.533 -17.92,56.32 -45.227,116.907 -45.227,116.907 0,0 39.254,-60.586 64.854,-116.906 12.8,-28.16 20.48,-43.52 20.48,-72.533 0,-48.64 -34.133,-93.014 -85.333,-93.014"
   style="fill:#fd9808" />
	<path
   id="path16"
   d="m 33.133,100.547 c 0,-48.64 23.893,-93.013 59.733,-93.013 -51.2,0 -85.333,44.373 -85.333,93.013 0,29.013 7.68,45.227 20.48,72.533 25.6,56.32 64.853,116.907 64.853,116.907 0,0 -27.306,-60.587 -45.226,-116.907 -9.387,-28.16 -14.507,-43.52 -14.507,-72.533"
   style="fill:#ffffff" />
	<path
   id="path18"
   d="M 135.533,92.867 C 135.533,68.974 116.76,50.2 92.866,50.2 68.972,50.2 50.2,68.973 50.2,92.867 c 0,23.894 18.773,42.667 42.667,42.667 23.894,0 42.666,-18.774 42.666,-42.667"
   style="fill:#54c9fd" />
	<path
   id="path20"
   d="m 417.133,177.347 c -35.84,0 -59.733,44.373 -59.733,93.013 0,29.013 5.12,45.227 14.507,72.533 17.92,56.32 45.227,116.907 45.227,116.907 0,0 27.307,-60.587 45.227,-116.907 9.387,-28.16 14.507,-43.52 14.507,-72.533 -10e-4,-47.787 -23.895,-93.013 -59.735,-93.013"
   style="fill:#ffdd09" />
	<path
   id="path22"
   d="m 417.133,177.347 c 35.84,0 59.733,44.373 59.733,93.013 0,29.013 -5.12,45.227 -14.507,72.533 -17.92,56.32 -45.227,116.907 -45.227,116.907 0,0 39.253,-60.587 64.853,-116.907 12.8,-28.16 20.48,-43.52 20.48,-72.533 0.002,-47.787 -34.132,-93.013 -85.332,-93.013"
   style="fill:#fd9808" />
	<path
   id="path24"
   d="m 357.4,270.36 c 0,-48.64 23.893,-93.013 59.733,-93.013 -51.2,0 -85.333,44.373 -85.333,93.013 0,29.013 7.68,45.227 20.48,72.533 25.6,56.32 64.853,116.907 64.853,116.907 0,0 -27.307,-60.587 -45.227,-116.907 C 362.52,315.587 357.4,299.373 357.4,270.36"
   style="fill:#ffffff" />
	<path
   id="path26"
   d="m 459.8,262.68 c 0,-23.893 -18.773,-42.667 -42.667,-42.667 -23.893,0 -42.667,18.773 -42.667,42.667 0,23.893 18.773,42.667 42.667,42.667 23.894,0 42.667,-18.774 42.667,-42.667"
   style="fill:#54c9fd" />
	<path
   id="path28"
   d="m 92.867,298.52 c -2.56,0 -5.973,-1.707 -6.827,-4.267 0,-0.853 -40.107,-61.44 -65.707,-117.76 C 7.533,148.333 -1,131.267 -1,99.693 -1,50.2 33.987,-1 92.867,-1 c 58.88,0 93.867,51.2 93.867,101.547 0,30.72 -7.68,47.787 -21.333,76.8 -25.6,56.32 -64.853,116.907 -65.707,117.76 -0.854,1.706 -4.267,3.413 -6.827,3.413 z m 0,-282.453 c -47.787,0 -76.8,42.667 -76.8,84.48 0,27.307 6.827,41.813 19.627,69.12 18.773,40.96 45.227,83.627 57.173,104.107 12.8,-20.48 38.4,-63.147 57.173,-104.107 12.8,-27.307 19.627,-41.813 19.627,-69.12 0,-41.814 -29.014,-84.48 -76.8,-84.48 z" />
	<path
   id="path30"
   d="m 92.867,144.067 c -28.16,0 -51.2,-23.04 -51.2,-51.2 0,-28.16 23.04,-51.2 51.2,-51.2 28.16,0 51.2,23.04 51.2,51.2 0,28.16 -23.04,51.2 -51.2,51.2 z m 0,-85.334 c -18.773,0 -34.133,15.36 -34.133,34.133 C 58.734,111.639 74.093,127 92.867,127 111.641,127 127,111.64 127,92.867 127,74.094 111.64,58.733 92.867,58.733 Z" />
	<path
   id="path32"
   d="m 417.133,469.187 c -2.56,0 -5.973,-1.707 -6.827,-4.267 0,-0.853 -40.107,-61.44 -65.707,-117.76 -12.8,-28.16 -21.333,-45.227 -21.333,-76.8 0,-49.493 34.987,-100.693 93.867,-100.693 58.88,0 93.867,51.2 93.867,101.546 0,30.72 -7.68,47.787 -21.333,76.8 -25.6,56.32 -64.853,116.907 -65.707,117.76 -0.853,1.707 -4.267,3.414 -6.827,3.414 z m 0,-282.454 c -47.787,0 -76.8,42.667 -76.8,84.48 0,27.307 6.827,41.813 19.627,69.12 18.773,40.96 45.227,83.627 57.173,104.107 12.8,-20.48 38.4,-63.147 57.173,-104.107 12.8,-27.307 19.627,-41.813 19.627,-69.12 0,-41.813 -29.013,-84.48 -76.8,-84.48 z" />
	<path
   id="path34"
   d="m 417.133,314.733 c -28.16,0 -51.2,-23.04 -51.2,-51.2 0,-28.16 23.04,-51.2 51.2,-51.2 28.16,0 51.2,23.04 51.2,51.2 0,28.16 -23.04,51.2 -51.2,51.2 z m 0,-85.333 C 398.36,229.4 383,244.76 383,263.533 c 0,18.773 15.36,34.133 34.133,34.133 18.773,0 34.133,-15.36 34.133,-34.133 0,-18.773 -15.359,-34.133 -34.133,-34.133 z" />
	<path
   id="path36"
   d="M 417.133,502.467 H 408.6 c -5.12,0 -8.533,-3.413 -8.533,-8.533 0,-5.12 3.413,-8.533 8.533,-8.533 h 8.533 c 5.12,0 8.533,3.413 8.533,8.533 10e-4,5.119 -3.413,8.533 -8.533,8.533 z" />
	<path
   id="path38"
   d="M 376.173,502.467 H 359.96 c -5.12,0 -8.533,-3.413 -8.533,-8.533 0,-5.12 3.413,-8.533 8.533,-8.533 h 16.213 c 5.12,0 8.533,3.413 8.533,8.533 10e-4,5.119 -4.266,8.533 -8.533,8.533 z m -49.493,0 h -16.213 c -5.12,0 -8.533,-3.413 -8.533,-8.533 0,-5.12 3.413,-8.533 8.533,-8.533 h 16.213 c 5.12,0 8.533,3.413 8.533,8.533 0,5.119 -3.413,8.533 -8.533,8.533 z" />
	<path
   id="path40"
   d="m 278.04,502.467 h -16.213 c -5.12,0 -8.533,-3.413 -8.533,-8.533 0,-5.12 3.413,-8.533 8.533,-8.533 h 16.213 c 5.12,0 8.533,3.413 8.533,8.533 0,5.119 -3.413,8.533 -8.533,8.533 z m -48.64,0 h -16.213 c -5.12,0 -8.533,-3.413 -8.533,-8.533 0,-5.12 3.413,-8.533 8.533,-8.533 H 229.4 c 5.12,0 8.533,3.413 8.533,8.533 0,5.119 -4.266,8.533 -8.533,8.533 z m -49.493,0 h -16.213 c -5.12,0 -8.533,-3.413 -8.533,-8.533 0,-5.12 3.413,-8.533 8.533,-8.533 h 16.213 c 5.12,0 8.533,3.413 8.533,8.533 0,5.119 -3.413,8.533 -8.533,8.533 z m -48.64,0 h -16.213 c -5.12,0 -8.533,-3.413 -8.533,-8.533 0,-5.12 3.413,-8.533 8.533,-8.533 h 16.213 c 5.12,0 8.533,3.413 8.533,8.533 0,5.119 -4.267,8.533 -8.533,8.533 z m -48.64,0 H 65.56 c -5.12,0 -8.533,-3.413 -8.533,-8.533 0,-5.12 3.413,-8.533 8.533,-8.533 h 16.213 c 5.12,0 8.533,3.413 8.533,8.533 0.001,5.119 -3.413,8.533 -7.679,8.533 z m -47.787,-7.68 c -1.707,0 -3.413,-0.853 -5.12,-1.707 -5.12,-3.413 -10.24,-7.68 -13.653,-13.653 -2.56,-4.267 -1.707,-9.387 2.56,-11.947 4.267,-2.56 9.387,-1.707 11.947,2.56 2.56,4.267 5.12,6.827 9.387,9.387 4.267,2.56 5.12,7.68 2.56,11.947 -2.561,2.559 -5.121,3.413 -7.681,3.413 z M 16.92,452.12 c -0.853,0 -0.853,0 -1.707,0 -4.267,-0.853 -7.68,-5.12 -6.827,-9.387 0.853,-6.827 3.413,-12.8 6.827,-17.92 2.56,-4.267 7.68,-5.12 11.947,-2.56 4.267,2.56 5.12,7.68 2.56,11.947 -2.56,3.413 -4.267,7.68 -4.267,11.947 -0.853,3.413 -4.266,5.973 -8.533,5.973 z m 31.573,-33.28 c -3.413,0 -7.68,-2.56 -8.533,-6.827 -0.853,-4.267 1.707,-9.387 5.973,-10.24 4.267,-0.853 8.533,-1.707 12.8,-1.707 h 5.973 c 5.12,0 8.533,3.413 8.533,8.533 0,5.12 -3.413,8.533 -8.533,8.533 h -5.973 c -2.56,0 -5.973,0 -8.533,0.853 -0.853,0.002 -1.707,0.855 -1.707,0.855 z M 203.8,417.133 h -8.533 c -5.12,0 -8.533,-3.413 -8.533,-8.533 0,-5.12 3.413,-8.533 8.533,-8.533 h 8.533 c 1.707,0 4.267,0 5.973,-0.853 4.267,-0.853 9.387,2.56 10.24,6.827 0.853,4.267 -2.56,9.387 -6.827,10.24 -3.413,0.852 -6.826,0.852 -9.386,0.852 z m -41.813,0 h -16.213 c -5.12,0 -8.533,-3.413 -8.533,-8.533 0,-5.12 3.413,-8.533 8.533,-8.533 h 16.213 c 5.12,0 8.533,3.413 8.533,8.533 0,5.12 -3.413,8.533 -8.533,8.533 z m -48.64,0 H 97.133 c -5.12,0 -8.533,-3.413 -8.533,-8.533 0,-5.12 3.413,-8.533 8.533,-8.533 h 16.213 c 5.12,0 8.533,3.413 8.533,8.533 10e-4,5.12 -4.266,8.533 -8.532,8.533 z m 124.586,-17.066 c -1.707,0 -3.413,-0.853 -5.12,-1.707 -3.413,-2.56 -4.267,-8.533 -1.707,-11.947 2.56,-3.413 4.267,-7.68 5.12,-11.947 0.853,-4.267 5.973,-7.68 10.24,-5.973 4.267,0.853 7.68,5.973 5.973,10.24 -1.707,5.973 -4.267,11.947 -8.533,17.92 -0.853,1.707 -3.413,3.414 -5.973,3.414 z m 3.414,-46.934 c -2.56,0 -5.973,-1.707 -7.68,-4.267 -2.56,-3.413 -5.12,-6.827 -8.533,-10.24 -3.413,-2.56 -4.267,-8.533 -1.707,-11.947 2.56,-3.413 8.533,-4.267 11.947,-1.707 5.12,4.267 9.387,9.387 12.8,14.507 2.56,4.267 0.853,9.387 -3.413,11.947 -0.854,1.707 -2.561,1.707 -3.414,1.707 z M 199.533,331.8 H 183.32 c -5.12,0 -8.533,-3.413 -8.533,-8.533 0,-5.12 3.413,-8.533 8.533,-8.533 h 16.213 c 5.12,0 8.533,3.413 8.533,8.533 0.001,5.12 -3.413,8.533 -8.533,8.533 z m -48.64,0 H 134.68 c -5.12,0 -8.533,-3.413 -8.533,-8.533 0,-5.12 3.413,-8.533 8.533,-8.533 h 16.213 c 5.12,0 8.533,3.413 8.533,8.533 0.001,5.12 -3.413,8.533 -8.533,8.533 z" />
	<path
   id="path42"
   d="m 101.4,331.8 h -8.533 c -5.12,0 -8.533,-3.413 -8.533,-8.533 0,-5.12 3.413,-8.533 8.533,-8.533 h 8.533 c 5.12,0 8.533,3.413 8.533,8.533 0,5.12 -3.413,8.533 -8.533,8.533 z" />
</g>
<g
   id="g46">
</g>
<g
   id="g48">
</g>
<g
   id="g50">
</g>
<g
   id="g52">
</g>
<g
   id="g54">
</g>
<g
   id="g56">
</g>
<g
   id="g58">
</g>
<g
   id="g60">
</g>
<g
   id="g62">
</g>
<g
   id="g64">
</g>
<g
   id="g66">
</g>
<g
   id="g68">
</g>
<g
   id="g70">
</g>
<g
   id="g72">
</g>
<g
   id="g74">
</g>
</svg>