<?xml version="1.0" encoding="UTF-8" standalone="no"?>
<svg
   xmlns:dc="http://purl.org/dc/elements/1.1/"
   xmlns:cc="http://creativecommons.org/ns#"
   xmlns:rdf="http://www.w3.org/1999/02/22-rdf-syntax-ns#"
   xmlns:svg="http://www.w3.org/2000/svg"
   xmlns="http://www.w3.org/2000/svg"
   height="512"
   width="512"
   xml:space="preserve"
   viewBox="0 0 512 512"
   y="0px"
   x="0px"
   id="Layer_1"
   version="1.1"><metadata
   id="metadata41"><rdf:RDF><cc:Work
       rdf:about=""><dc:format>image/svg+xml</dc:format><dc:type
         rdf:resource="http://purl.org/dc/dcmitype/StillImage" /></cc:Work></rdf:RDF></metadata><defs
   id="defs39" />
<path
   id="path2"
   d="M 476.69,512 H 35.31 C 15.89,512 0,496.11 0,476.69 V 35.31 C 0,15.89 15.89,0 35.31,0 H 476.69 C 496.11,0 512,15.89 512,35.31 V 476.69 C 512,496.11 496.11,512 476.69,512"
   style="fill:#4d6fa9" />
<path
   id="path4"
   d="m 432.552,88.276 v 88.276 h -79.448 c -9.71,0 -17.655,7.945 -17.655,17.655 v 52.966 h 88.276 v 88.276 H 335.449 V 512 H 247.173 V 335.448 h -70.621 v -88.276 h 70.621 v -52.966 c 0,-55.614 42.372,-101.517 97.103,-105.931 h 88.276 z"
   style="fill:#ffffff" />
<g
   id="g6">
</g>
<g
   id="g8">
</g>
<g
   id="g10">
</g>
<g
   id="g12">
</g>
<g
   id="g14">
</g>
<g
   id="g16">
</g>
<g
   id="g18">
</g>
<g
   id="g20">
</g>
<g
   id="g22">
</g>
<g
   id="g24">
</g>
<g
   id="g26">
</g>
<g
   id="g28">
</g>
<g
   id="g30">
</g>
<g
   id="g32">
</g>
<g
   id="g34">
</g>
</svg>