<?xml version="1.0" encoding="UTF-8" standalone="no"?>
<svg
   xmlns:dc="http://purl.org/dc/elements/1.1/"
   xmlns:cc="http://creativecommons.org/ns#"
   xmlns:rdf="http://www.w3.org/1999/02/22-rdf-syntax-ns#"
   xmlns:svg="http://www.w3.org/2000/svg"
   xmlns="http://www.w3.org/2000/svg"
   height="503.466"
   width="512"
   xml:space="preserve"
   viewBox="0 0 512 503.466"
   y="0px"
   x="0px"
   id="Layer_1"
   version="1.1"><metadata
   id="metadata89"><rdf:RDF><cc:Work
       rdf:about=""><dc:format>image/svg+xml</dc:format><dc:type
         rdf:resource="http://purl.org/dc/dcmitype/StillImage" /></cc:Work></rdf:RDF></metadata><defs
   id="defs87" />
<g
   id="g52"
   transform="translate(1,-3.267)">
	<g
   id="g50">
		<g
   id="g48">
			<path
   id="path2"
   d="m 86.04,298.52 c 0.853,2.56 4.267,4.267 6.827,4.267 2.56,0 5.973,-1.707 6.827,-3.413 0.853,-0.853 40.107,-61.44 65.707,-117.76 13.653,-29.013 21.333,-46.08 21.333,-76.8 C 186.734,54.467 151.747,3.267 92.867,3.267 33.987,3.267 -1,54.467 -1,103.96 c 0,31.573 8.533,48.64 21.333,76.8 25.6,56.32 65.707,116.907 65.707,117.76 z M 92.867,20.333 c 47.787,0 76.8,42.667 76.8,84.48 0,27.307 -6.827,41.813 -19.627,69.12 C 131.267,214.893 105.667,257.56 92.867,278.04 80.92,257.56 54.467,214.893 35.694,173.933 22.894,146.626 16.067,132.12 16.067,104.813 16.067,63 45.08,20.333 92.867,20.333 Z" />
			<path
   id="path4"
   d="m 92.867,148.333 c 28.16,0 51.2,-23.04 51.2,-51.2 0,-28.16 -23.04,-51.2 -51.2,-51.2 -28.16,0 -51.2,23.04 -51.2,51.2 0,28.16 23.04,51.2 51.2,51.2 z M 92.867,63 C 111.64,63 127,78.36 127,97.133 c 0,18.773 -15.36,34.133 -34.133,34.133 -18.773,0 -34.133,-15.36 -34.133,-34.133 C 58.733,78.36 74.093,63 92.867,63 Z" />
			<path
   id="path6"
   d="m 417.133,173.933 c -58.88,0 -93.867,51.2 -93.867,100.693 0,31.573 8.533,48.64 21.333,76.8 25.6,56.32 65.707,116.907 65.707,117.76 0.853,2.56 4.267,4.267 6.827,4.267 2.56,0 5.973,-1.707 6.827,-3.413 0.853,-0.853 40.107,-61.44 65.707,-117.76 C 503.32,323.267 511,306.2 511,275.48 511,225.133 476.013,173.933 417.133,173.933 Z M 474.307,344.6 c -18.773,40.96 -44.373,83.627 -57.173,104.107 -11.947,-20.48 -38.4,-63.147 -57.173,-104.107 -12.8,-27.307 -19.627,-41.813 -19.627,-69.12 0,-41.813 29.013,-84.48 76.8,-84.48 47.787,0 76.8,42.667 76.8,84.48 -0.001,27.307 -6.827,41.813 -19.627,69.12 z" />
			<path
   id="path8"
   d="m 417.133,216.6 c -28.16,0 -51.2,23.04 -51.2,51.2 0,28.16 23.04,51.2 51.2,51.2 28.16,0 51.2,-23.04 51.2,-51.2 0,-28.16 -23.04,-51.2 -51.2,-51.2 z m 0,85.333 C 398.36,301.933 383,286.573 383,267.8 c 0,-18.773 15.36,-34.133 34.133,-34.133 18.773,0 34.133,15.36 34.133,34.133 10e-4,18.773 -15.359,34.133 -34.133,34.133 z" />
			<path
   id="path10"
   d="M 417.133,489.667 H 408.6 c -5.12,0 -8.533,3.413 -8.533,8.533 0,5.12 3.413,8.533 8.533,8.533 h 8.533 c 5.12,0 8.533,-3.413 8.533,-8.533 0,-5.12 -3.413,-8.533 -8.533,-8.533 z" />
			<path
   id="path12"
   d="m 326.68,489.667 h -16.213 c -5.12,0 -8.533,3.413 -8.533,8.533 0,5.12 3.413,8.533 8.533,8.533 h 16.213 c 5.12,0 8.533,-3.413 8.533,-8.533 0,-5.12 -3.413,-8.533 -8.533,-8.533 z" />
			<path
   id="path14"
   d="M 376.173,489.667 H 359.96 c -5.12,0 -8.533,3.413 -8.533,8.533 0,5.12 3.413,8.533 8.533,8.533 h 16.213 c 4.267,0 8.533,-3.413 8.533,-8.533 0,-5.12 -3.413,-8.533 -8.533,-8.533 z" />
			<path
   id="path16"
   d="m 134.68,319 c -5.12,0 -8.533,3.413 -8.533,8.533 0,5.12 3.413,8.533 8.533,8.533 h 16.213 c 5.12,0 8.533,-3.413 8.533,-8.533 0,-5.12 -3.413,-8.533 -8.533,-8.533 z" />
			<path
   id="path18"
   d="m 16.92,456.387 c 4.267,0 7.68,-2.56 8.533,-5.973 0,-4.267 1.707,-8.533 4.267,-11.947 2.56,-4.267 1.707,-9.387 -2.56,-11.947 -4.267,-2.56 -9.387,-1.707 -11.947,2.56 C 11.8,434.2 9.24,440.173 8.387,447 c -0.853,4.267 2.56,8.533 6.827,9.387 0.853,0 0.853,0 1.706,0 z" />
			<path
   id="path20"
   d="m 225.133,342.893 c 3.413,3.413 5.973,6.827 8.533,10.24 1.707,2.56 5.12,4.267 7.68,4.267 0.853,0 2.56,0 3.413,-1.707 4.267,-2.56 5.973,-7.68 3.413,-11.947 -3.413,-5.12 -7.68,-10.24 -12.8,-14.507 -3.413,-2.56 -9.387,-1.707 -11.947,1.707 -2.56,3.414 -1.705,9.387 1.708,11.947 z" />
			<path
   id="path22"
   d="m 39.96,483.693 c -4.267,-2.56 -6.827,-5.12 -9.387,-9.387 -2.56,-4.267 -7.68,-5.12 -11.947,-2.56 -4.267,2.56 -5.12,7.68 -2.56,11.947 3.413,5.973 8.533,10.24 13.653,13.653 1.707,0.853 3.413,1.707 5.12,1.707 2.56,0 5.12,-0.853 7.68,-3.413 2.561,-4.267 1.708,-9.387 -2.559,-11.947 z" />
			<path
   id="path24"
   d="m 174.787,327.533 c 0,5.12 3.413,8.533 8.533,8.533 h 16.213 c 5.12,0 8.533,-3.413 8.533,-8.533 0,-5.12 -3.413,-8.533 -8.533,-8.533 H 183.32 c -5.12,0 -8.533,3.413 -8.533,8.533 z" />
			<path
   id="path26"
   d="m 121.88,412.867 c 0,-5.12 -3.413,-8.533 -8.533,-8.533 H 97.133 c -5.12,0 -8.533,3.413 -8.533,8.533 0,5.12 3.413,8.533 8.533,8.533 h 16.213 c 4.267,0 8.534,-3.413 8.534,-8.533 z" />
			<path
   id="path28"
   d="m 64.707,421.4 c 5.12,0 8.533,-3.413 8.533,-8.533 0,-5.12 -3.413,-8.533 -8.533,-8.533 h -5.973 c -4.267,0 -8.533,0.853 -12.8,1.707 -4.267,0.853 -6.827,5.973 -5.973,10.24 0.854,4.267 5.12,6.827 8.533,6.827 0,0 0.853,-0.853 1.707,-0.853 2.56,-0.853 5.973,-0.853 8.533,-0.853 h 5.973 z" />
			<path
   id="path30"
   d="m 220.013,410.307 c -0.853,-4.267 -5.973,-7.68 -10.24,-6.827 -1.707,0.853 -4.267,0.853 -5.973,0.853 h -8.533 c -5.12,0 -8.533,3.413 -8.533,8.533 0,5.12 3.413,8.533 8.533,8.533 h 8.533 c 2.56,0 5.973,0 9.387,-0.853 4.266,-0.853 7.68,-5.973 6.826,-10.239 z" />
			<path
   id="path32"
   d="m 246.467,372.76 c -4.267,-1.707 -9.387,1.707 -10.24,5.973 -0.853,4.266 -2.56,8.533 -5.12,11.947 -2.56,3.414 -1.707,9.387 1.707,11.947 1.707,0.853 3.413,1.707 5.12,1.707 2.56,0 5.12,-1.707 5.973,-3.413 4.267,-5.973 6.827,-11.947 8.533,-17.92 1.707,-4.268 -1.707,-9.388 -5.973,-10.241 z" />
			<path
   id="path34"
   d="m 170.52,412.867 c 0,-5.12 -3.413,-8.533 -8.533,-8.533 h -16.213 c -5.12,0 -8.533,3.413 -8.533,8.533 0,5.12 3.413,8.533 8.533,8.533 h 16.213 c 5.12,0 8.533,-3.413 8.533,-8.533 z" />
			<path
   id="path36"
   d="m 229.4,489.667 h -16.213 c -5.12,0 -8.533,3.413 -8.533,8.533 0,5.12 3.413,8.533 8.533,8.533 H 229.4 c 4.267,0 8.533,-3.413 8.533,-8.533 0,-5.12 -3.413,-8.533 -8.533,-8.533 z" />
			<path
   id="path38"
   d="m 179.907,489.667 h -16.213 c -5.12,0 -8.533,3.413 -8.533,8.533 0,5.12 3.413,8.533 8.533,8.533 h 16.213 c 5.12,0 8.533,-3.413 8.533,-8.533 0,-5.12 -3.413,-8.533 -8.533,-8.533 z" />
			<path
   id="path40"
   d="m 131.267,489.667 h -16.213 c -5.12,0 -8.533,3.413 -8.533,8.533 0,5.12 3.413,8.533 8.533,8.533 h 16.213 c 4.267,0 8.533,-3.413 8.533,-8.533 0,-5.12 -3.413,-8.533 -8.533,-8.533 z" />
			<path
   id="path42"
   d="M 81.773,489.667 H 65.56 c -5.12,0 -8.533,3.413 -8.533,8.533 0,5.12 3.413,8.533 8.533,8.533 h 17.067 c 4.267,0 7.68,-3.413 7.68,-8.533 0,-5.12 -3.414,-8.533 -8.534,-8.533 z" />
			<path
   id="path44"
   d="m 278.04,489.667 h -16.213 c -5.12,0 -8.533,3.413 -8.533,8.533 0,5.12 3.413,8.533 8.533,8.533 h 16.213 c 5.12,0 8.533,-3.413 8.533,-8.533 0,-5.12 -3.413,-8.533 -8.533,-8.533 z" />
			<path
   id="path46"
   d="m 92.867,319 c -5.12,0 -8.533,3.413 -8.533,8.533 0,5.12 3.413,8.533 8.533,8.533 h 8.533 c 5.12,0 8.533,-3.413 8.533,-8.533 0,-5.12 -3.413,-8.533 -8.533,-8.533 z" />
		</g>
	</g>
</g>
<g
   transform="translate(0,-4.267)"
   id="g54">
</g>
<g
   transform="translate(0,-4.267)"
   id="g56">
</g>
<g
   transform="translate(0,-4.267)"
   id="g58">
</g>
<g
   transform="translate(0,-4.267)"
   id="g60">
</g>
<g
   transform="translate(0,-4.267)"
   id="g62">
</g>
<g
   transform="translate(0,-4.267)"
   id="g64">
</g>
<g
   transform="translate(0,-4.267)"
   id="g66">
</g>
<g
   transform="translate(0,-4.267)"
   id="g68">
</g>
<g
   transform="translate(0,-4.267)"
   id="g70">
</g>
<g
   transform="translate(0,-4.267)"
   id="g72">
</g>
<g
   transform="translate(0,-4.267)"
   id="g74">
</g>
<g
   transform="translate(0,-4.267)"
   id="g76">
</g>
<g
   transform="translate(0,-4.267)"
   id="g78">
</g>
<g
   transform="translate(0,-4.267)"
   id="g80">
</g>
<g
   transform="translate(0,-4.267)"
   id="g82">
</g>
</svg>