<?xml version="1.0" encoding="UTF-8" standalone="no"?>
<svg
   xmlns:dc="http://purl.org/dc/elements/1.1/"
   xmlns:cc="http://creativecommons.org/ns#"
   xmlns:rdf="http://www.w3.org/1999/02/22-rdf-syntax-ns#"
   xmlns:svg="http://www.w3.org/2000/svg"
   xmlns="http://www.w3.org/2000/svg"
   height="512"
   width="512"
   version="1.1"
   id="Capa_1"
   x="0px"
   y="0px"
   viewBox="0 0 512 512"
   xml:space="preserve"><metadata
   id="metadata127"><rdf:RDF><cc:Work
       rdf:about=""><dc:format>image/svg+xml</dc:format><dc:type
         rdf:resource="http://purl.org/dc/dcmitype/StillImage" /></cc:Work></rdf:RDF></metadata><defs
   id="defs125" />
<g
   id="g6">
	<g
   id="g4">
		<path
   d="M 452,40 H 428 V 0 H 388 V 40 H 124 V 0 H 84 V 40 H 60 C 26.916,40 0,66.916 0,100 v 352 c 0,33.084 26.916,60 60,60 h 392 c 33.084,0 60,-26.916 60,-60 V 100 C 512,66.916 485.084,40 452,40 Z m 20,412 c 0,11.028 -8.972,20 -20,20 H 60 C 48.972,472 40,463.028 40,452 V 188 h 432 z m 0,-304 H 40 V 100 C 40,88.972 48.972,80 60,80 h 24 v 40 h 40 V 80 h 264 v 40 h 40 V 80 h 24 c 11.028,0 20,8.972 20,20 z"
   id="path2" />
	</g>
</g>
<g
   id="g12">
	<g
   id="g10">
		<rect
   x="76"
   y="230"
   width="40"
   height="40"
   id="rect8" />
	</g>
</g>
<g
   id="g18">
	<g
   id="g16">
		<rect
   x="156"
   y="230"
   width="40"
   height="40"
   id="rect14" />
	</g>
</g>
<g
   id="g24">
	<g
   id="g22">
		<rect
   x="236"
   y="230"
   width="40"
   height="40"
   id="rect20" />
	</g>
</g>
<g
   id="g30">
	<g
   id="g28">
		<rect
   x="316"
   y="230"
   width="40"
   height="40"
   id="rect26" />
	</g>
</g>
<g
   id="g36">
	<g
   id="g34">
		<rect
   x="396"
   y="230"
   width="40"
   height="40"
   id="rect32" />
	</g>
</g>
<g
   id="g42">
	<g
   id="g40">
		<rect
   x="76"
   y="310"
   width="40"
   height="40"
   id="rect38" />
	</g>
</g>
<g
   id="g48">
	<g
   id="g46">
		<rect
   x="156"
   y="310"
   width="40"
   height="40"
   id="rect44" />
	</g>
</g>
<g
   id="g54">
	<g
   id="g52">
		<rect
   x="236"
   y="310"
   width="40"
   height="40"
   id="rect50" />
	</g>
</g>
<g
   id="g60">
	<g
   id="g58">
		<rect
   x="316"
   y="310"
   width="40"
   height="40"
   id="rect56" />
	</g>
</g>
<g
   id="g66">
	<g
   id="g64">
		<rect
   x="76"
   y="390"
   width="40"
   height="40"
   id="rect62" />
	</g>
</g>
<g
   id="g72">
	<g
   id="g70">
		<rect
   x="156"
   y="390"
   width="40"
   height="40"
   id="rect68" />
	</g>
</g>
<g
   id="g78">
	<g
   id="g76">
		<rect
   x="236"
   y="390"
   width="40"
   height="40"
   id="rect74" />
	</g>
</g>
<g
   id="g84">
	<g
   id="g82">
		<rect
   x="316"
   y="390"
   width="40"
   height="40"
   id="rect80" />
	</g>
</g>
<g
   id="g90">
	<g
   id="g88">
		<rect
   x="396"
   y="310"
   width="40"
   height="40"
   id="rect86" />
	</g>
</g>
<g
   id="g92">
</g>
<g
   id="g94">
</g>
<g
   id="g96">
</g>
<g
   id="g98">
</g>
<g
   id="g100">
</g>
<g
   id="g102">
</g>
<g
   id="g104">
</g>
<g
   id="g106">
</g>
<g
   id="g108">
</g>
<g
   id="g110">
</g>
<g
   id="g112">
</g>
<g
   id="g114">
</g>
<g
   id="g116">
</g>
<g
   id="g118">
</g>
<g
   id="g120">
</g>
</svg>