<?xml version="1.0" encoding="UTF-8" standalone="no"?>
<svg
   xmlns:dc="http://purl.org/dc/elements/1.1/"
   xmlns:cc="http://creativecommons.org/ns#"
   xmlns:rdf="http://www.w3.org/1999/02/22-rdf-syntax-ns#"
   xmlns:svg="http://www.w3.org/2000/svg"
   xmlns="http://www.w3.org/2000/svg"
   width="512.00171"
   height="392.5426"
   viewBox="0 0 60.0002 35.267499"
   version="1.1"
   id="svg29">
  <metadata
     id="metadata33">
    <rdf:RDF>
      <cc:Work
         rdf:about="">
        <dc:format>image/svg+xml</dc:format>
        <dc:type
           rdf:resource="http://purl.org/dc/dcmitype/StillImage" />
      </cc:Work>
    </rdf:RDF>
  </metadata>
  <!-- Generator: Sketch 51.3 (57544) - http://www.bohemiancoding.com/sketch -->
  <title
     id="title2">027 - Utilities</title>
  <desc
     id="desc4">Created with Sketch.</desc>
  <defs
     id="defs6" />
  <g
     transform="translate(2.0271676e-4,-6.9989152)"
     style="fill:none;fill-rule:evenodd;stroke:none;stroke-width:1"
     id="Page-1">
    <g
       style="fill:#000000;fill-rule:nonzero"
       id="027---Utilities"
       transform="translate(0,-1)">
      <path
         d="M 36.636,8.146 C 35.862968,6.8599281 34.744109,5.816954 33.407,5.136 33.131259,5.0215585 32.818807,5.036303 32.555068,5.1762025 32.29133,5.316102 32.103892,5.5665228 32.044,5.859 31.927,6.43 31.867,7 31.81,7.551 L 31.786,7.765 C 29.955694,4.4591737 26.870863,2.0300225 23.228,1.026 22.748372,0.91233198 22.257451,1.1651133 22.071382,1.6215578 21.885312,2.0780023 22.059597,2.6019547 22.482,2.856 c 1.661,1 2.43,3.239 2.784,4.939 0.22757,0.9291259 0.20167,1.9022942 -0.075,2.818 -0.452027,0.904969 -1.168323,1.651255 -2.054,2.14 -1.979461,1.342907 -3.387689,3.375033 -3.95,5.7 -0.581889,2.726423 0.222267,5.56418 2.148,7.58 1.837843,1.892739 4.361802,2.963618 7,2.97 4.869,0 8.927,-2.854 10.1,-7.106 l 0.095,-0.365 c 0.570249,-2.314668 0.681006,-4.718704 0.326,-7.076 -0.252478,-2.24434 -1.011585,-4.401981 -2.22,-6.31 z m -10.9,17.6 c -0.605328,-0.771567 -0.85369,-1.764287 -0.683,-2.73 0.251384,-1.012926 0.839104,-1.910547 1.667,-2.546 0.745887,-0.596307 1.441557,-1.252846 2.08,-1.963 0.606529,0.740687 0.985164,1.64142 1.09,2.593 0.02442,0.484734 0.393381,0.881946 0.875,0.942 0.734893,0.08614 1.479137,0.04487 2.2,-0.122 -0.0598,0.545356 -0.146906,1.08737 -0.261,1.624 l -0.067,0.294 c -0.17223,0.738961 -0.549728,1.414228 -1.089,1.948 l -1.123,0.774 c -0.65561,0.299255 -1.369384,0.449523 -2.09,0.44 -1.005242,-0.0268 -1.950617,-0.483825 -2.596,-1.255 z m 10.85,-4.7 -0.085,0.326 c -0.360696,1.286557 -1.073047,2.447027 -2.057,3.351 0.045,-0.143 0.1,-0.281 0.135,-0.428 l 0.072,-0.317 c 0.24263,-1.138059 0.376565,-2.2966 0.4,-3.46 0.0077,-0.353989 -0.17232,-0.685672 -0.473368,-0.872055 C 34.276585,19.459563 33.899421,19.446272 33.586,19.611 c -0.582175,0.271364 -1.209968,0.43145 -1.851,0.472 -0.359477,-1.510134 -1.202174,-2.861609 -2.4,-3.849 -0.215608,-0.178452 -0.496132,-0.258383 -0.773417,-0.220373 -0.277285,0.03801 -0.525951,0.190483 -0.685583,0.420373 -0.695601,0.943922 -1.520322,1.785474 -2.45,2.5 -1.182882,0.930521 -2.010072,2.239268 -2.343,3.707 -0.144244,0.797936 -0.10768,1.618066 0.107,2.4 -0.14,-0.126 -0.281,-0.252 -0.41,-0.389 -1.471324,-1.535993 -2.087574,-3.700356 -1.646,-5.781 0.471734,-1.862037 1.620951,-3.48121 3.223,-4.541 1.214977,-0.703589 2.169028,-1.782204 2.719,-3.074 0.394795,-1.254116 0.443168,-2.5916415 0.14,-3.871 -0.186799,-0.9305999 -0.468263,-1.8396607 -0.84,-2.713 2.356826,1.5951741 4.027159,4.0187449 4.679,6.789 0.105456,0.428939 0.479842,0.737878 0.921,0.76 0.445543,0.03839 0.858268,-0.236903 0.994,-0.663 0.226,-0.638 0.391,-1.277 0.51,-1.764 0.145015,-0.6523903 0.245248,-1.3139334 0.3,-1.98 0.444362,0.4491651 0.846084,0.9385968 1.2,1.462 1.03284,1.658402 1.679462,3.527866 1.892,5.47 0.31705,2.096712 0.220912,4.235195 -0.283,6.295 z"
         id="Shape" />
      <path
         d="M 50.156,2.463 C 49.321,3.776 42,15.423 42,20 c 0,4.970563 4.029437,9 9,9 4.970563,0 9,-4.029437 9,-9 C 60,15.423 52.679,3.776 51.844,2.463 51.648824,2.1911525 51.334656,2.0299579 51,2.0299579 c -0.334656,0 -0.648824,0.1611946 -0.844,0.4330421 z M 51,27 c -3.864166,-0.0044 -6.995591,-3.135834 -7,-7 0,-3.008 4.474,-10.965 7,-15.106 2.526,4.141 7,12.1 7,15.106 -0.0044,3.864166 -3.135834,6.995591 -7,7 z"
         id="path9" />
      <path
         d="m 48,20 c 0,-0.552285 -0.447715,-1 -1,-1 -0.552285,0 -1,0.447715 -1,1 0.0033,2.760053 2.239947,4.996694 5,5 0.552285,0 1,-0.447715 1,-1 0,-0.552285 -0.447715,-1 -1,-1 -1.656854,0 -3,-1.343146 -3,-3 z"
         id="path11" />
      <path
         d="M 17,10 H 12.7 L 16.875,2.486 C 17.047325,2.176113 17.042665,1.7981433 16.862752,1.4925993 16.682839,1.1870551 16.354578,0.99963071 16,1 H 5 C 4.5608901,0.99991456 4.1730983,1.2862963 4.044,1.706 l -4,13 C -0.0493051,15.009339 0.0069171,15.338959 0.19550011,15.594216 0.38408313,15.849474 0.68263574,16.000062 1,16 H 6.612 L 3.052,26.684 C 2.9010451,27.141735 3.09808,27.64202 3.5206293,27.873883 3.9431787,28.105746 4.4709981,28.003205 4.776,27.63 l 13,-16 c 0.242883,-0.299399 0.292025,-0.711754 0.126307,-1.059848 C 17.736588,10.222059 17.385528,10.000229 17,10 Z M 6.684,22.111 8.948,15.311 C 9.047536,15.006823 8.9954649,14.67338 8.8079279,14.414033 8.6203908,14.154686 8.3200476,14.000771 8,14 H 2.354 L 5.738,3 H 14.3 l -4.175,7.514 C 9.9526746,10.823887 9.9573347,11.201857 10.13725,11.507401 10.317161,11.812945 10.645422,12.000369 11,12 h 3.9 z"
         id="path13" />
      <path
         d="M 14,33 H 4 c -1.1045695,0 -2,0.895431 -2,2 v 10 c 0,1.104569 0.8954305,2 2,2 h 10 c 1.10457,0 2,-0.895431 2,-2 V 35 c 0,-1.104569 -0.89543,-2 -2,-2 z M 4,45 V 35 h 10 v 10 z"
         id="path15" />
      <path
         d="M 35,33 H 25 c -1.10457,0 -2,0.895431 -2,2 v 10 c 0,1.104569 0.89543,2 2,2 h 10 c 1.104569,0 2,-0.895431 2,-2 V 35 c 0,-1.104569 -0.895431,-2 -2,-2 z M 25,45 V 35 h 10 v 10 z"
         id="path17" />
      <path
         d="M 56,33 H 46 c -1.104569,0 -2,0.895431 -2,2 v 10 c 0,1.104569 0.895431,2 2,2 h 10 c 1.104569,0 2,-0.895431 2,-2 V 35 c 0,-1.104569 -0.895431,-2 -2,-2 z M 46,45 V 35 h 10 v 10 z"
         id="path19" />
      <path
         d="m 11.707,37.293 c -0.3905,-0.390382 -1.0235,-0.390382 -1.414,0 L 9,38.586 7.707,37.293 C 7.3146211,36.914028 6.6909152,36.919448 6.3051814,37.305181 5.9194476,37.690915 5.9140278,38.314621 6.293,38.707 L 7.586,40 6.293,41.293 c -0.2599566,0.251074 -0.3642126,0.622878 -0.2726972,0.972507 0.091516,0.34963 0.3645604,0.622675 0.7141899,0.71419 C 7.0841221,43.071213 7.4559255,42.966957 7.707,42.707 L 9,41.414 l 1.293,1.293 c 0.392379,0.378972 1.016085,0.373552 1.401819,-0.01218 0.385733,-0.385734 0.391153,-1.00944 0.01218,-1.401819 L 10.414,40 11.707,38.707 c 0.390382,-0.3905 0.390382,-1.0235 0,-1.414 z"
         id="path21" />
      <path
         d="m 32.707,37.293 c -0.3905,-0.390382 -1.0235,-0.390382 -1.414,0 L 30,38.586 28.707,37.293 c -0.392379,-0.378972 -1.016085,-0.373552 -1.401819,0.01218 -0.385733,0.385734 -0.391153,1.00944 -0.01218,1.401819 L 28.586,40 27.293,41.293 c -0.259957,0.251074 -0.364213,0.622878 -0.272697,0.972507 0.09152,0.34963 0.36456,0.622675 0.71419,0.71419 0.349629,0.09152 0.721432,-0.01274 0.972507,-0.272697 L 30,41.414 l 1.293,1.293 c 0.392379,0.378972 1.016085,0.373552 1.401819,-0.01218 0.385733,-0.385734 0.391153,-1.00944 0.01218,-1.401819 L 31.414,40 32.707,38.707 c 0.390382,-0.3905 0.390382,-1.0235 0,-1.414 z"
         id="path23" />
      <path
         d="m 53.707,37.293 c -0.3905,-0.390382 -1.0235,-0.390382 -1.414,0 L 51,38.586 49.707,37.293 c -0.392379,-0.378972 -1.016085,-0.373552 -1.401819,0.01218 -0.385733,0.385734 -0.391153,1.00944 -0.01218,1.401819 L 49.586,40 48.293,41.293 c -0.259957,0.251074 -0.364213,0.622878 -0.272697,0.972507 0.09152,0.34963 0.36456,0.622675 0.71419,0.71419 0.349629,0.09152 0.721432,-0.01274 0.972507,-0.272697 L 51,41.414 l 1.293,1.293 c 0.392379,0.378972 1.016085,0.373552 1.401819,-0.01218 0.385733,-0.385734 0.391153,-1.00944 0.01218,-1.401819 L 52.414,40 53.707,38.707 c 0.390382,-0.3905 0.390382,-1.0235 0,-1.414 z"
         id="path25" />
    </g>
  </g>
</svg>
