<?xml version="1.0" encoding="UTF-8" standalone="no"?>
<svg
   xmlns:dc="http://purl.org/dc/elements/1.1/"
   xmlns:cc="http://creativecommons.org/ns#"
   xmlns:rdf="http://www.w3.org/1999/02/22-rdf-syntax-ns#"
   xmlns:svg="http://www.w3.org/2000/svg"
   xmlns="http://www.w3.org/2000/svg"
   height="511.99899"
   width="298.67001"
   version="1.1"
   id="Layer_1"
   x="0px"
   y="0px"
   viewBox="0 0 298.67001 511.99899"
   xml:space="preserve"><metadata
   id="metadata55"><rdf:RDF><cc:Work
       rdf:about=""><dc:format>image/svg+xml</dc:format><dc:type
         rdf:resource="http://purl.org/dc/dcmitype/StillImage" /></cc:Work></rdf:RDF></metadata><defs
   id="defs53" />
<g
   transform="translate(-106.665)"
   id="g18">
	<g
   id="g16">
		<g
   id="g14">
			<path
   d="M 371.526,0 H 149.002 C 130.335,0 115.201,15.137 115.201,33.809 V 51.2 h -0.003 v 25.6 c -4.713,0 -8.533,3.82 -8.533,8.533 v 8.533 c 0,4.713 3.82,8.533 8.533,8.533 v 8.533 c -4.713,0 -8.533,3.82 -8.533,8.533 V 128 c 0,4.713 3.82,8.533 8.533,8.533 v 8.533 c -4.713,0 -8.533,3.821 -8.533,8.533 v 8.533 c 0,4.713 3.82,8.533 8.533,8.533 v 273.067 h 0.003 v 34.458 c 0,18.672 15.134,33.809 33.801,33.809 h 222.524 c 18.673,0 33.809,-15.136 33.809,-33.809 V 33.809 C 405.335,15.136 390.199,0 371.526,0 Z M 132.268,33.809 c 0,-9.247 7.494,-16.742 16.734,-16.742 h 222.524 c 9.248,0 16.742,7.495 16.742,16.742 V 51.2 h -256 V 33.809 Z M 260.265,486.4 c -9.427,0 -17.067,-7.64 -17.067,-17.067 0,-9.427 7.64,-17.067 17.067,-17.067 9.427,0 17.067,7.64 17.067,17.067 0,9.427 -7.64,17.067 -17.067,17.067 z M 132.268,68.267 h 255.997 v 358.4 H 132.268 Z m 0,409.924 v -34.458 h 105.431 c -7.09,6.254 -11.567,15.401 -11.567,25.6 0,10.199 4.477,19.346 11.567,25.6 h -88.697 c -9.24,0 -16.734,-7.495 -16.734,-16.742 z m 239.258,16.742 h -88.695 c 7.09,-6.254 11.567,-15.401 11.567,-25.6 0,-10.199 -4.477,-19.346 -11.567,-25.6 h 105.437 v 34.458 c 0,9.248 -7.494,16.742 -16.742,16.742 z"
   id="path2" />
			<path
   d="m 294.398,25.6 h -42.667 c -4.713,0 -8.533,3.821 -8.533,8.533 0,4.712 3.82,8.533 8.533,8.533 h 42.667 c 4.713,0 8.533,-3.82 8.533,-8.533 0,-4.713 -3.82,-8.533 -8.533,-8.533 z"
   id="path4" />
			<path
   d="m 226.132,25.6 h -8.533 c -4.713,0 -8.533,3.821 -8.533,8.533 0,4.712 3.82,8.533 8.533,8.533 h 8.533 c 4.713,0 8.533,-3.82 8.533,-8.533 0,-4.713 -3.821,-8.533 -8.533,-8.533 z"
   id="path6" />
			<path
   d="m 351.904,285.525 c -3.16,-3.994 -7.44,-8.02 -12.597,-12.097 -3.587,-2.836 -7.397,-5.537 -11.204,-8.027 -2.29,-1.498 -4.091,-2.607 -5.168,-3.237 -9.32,-5.302 -20.137,-4.6 -25.751,4.404 -1.025,1.22 -2.436,2.869 -3.881,4.505 -0.209,0.236 -0.209,0.236 -0.417,0.47 -1.553,1.744 -3.015,3.252 -2.883,3.163 -5.623,3.811 -9.068,3.529 -14.031,-1.434 l -18.877,-18.869 -18.874,-18.874 c -4.955,-4.96 -5.237,-8.408 -1.428,-14.027 -0.087,0.128 1.422,-1.334 3.166,-2.887 0.234,-0.208 0.234,-0.208 0.47,-0.417 1.635,-1.446 3.285,-2.856 4.505,-3.881 9.003,-5.614 9.707,-16.428 4.459,-25.655 -0.687,-1.174 -1.796,-2.974 -3.295,-5.265 -2.492,-3.807 -5.193,-7.616 -8.029,-11.203 -4.063,-5.138 -8.074,-9.406 -12.052,-12.562 -1.775,-1.408 -3.543,-2.594 -5.325,-3.537 -8.328,-4.405 -18.541,-2.865 -25.209,3.789 l -8.338,8.347 c -28.041,28.032 -20.31,61.461 13.016,94.787 l 24.157,24.165 24.169,24.16 c 33.325,33.325 66.754,41.057 94.79,13.011 l 8.336,-8.336 c 6.66,-6.66 8.2,-16.878 3.796,-25.204 -0.937,-1.772 -2.111,-3.527 -3.505,-5.289 z m -12.36,18.423 -8.337,8.337 c -19.869,19.876 -43.149,14.492 -70.654,-13.013 L 236.386,275.113 212.23,250.949 c -27.506,-27.506 -32.89,-50.786 -13.015,-70.654 l 8.333,-8.341 c 1.364,-1.362 3.457,-1.677 5.163,-0.775 0.788,0.417 1.699,1.028 2.699,1.821 2.784,2.209 5.957,5.585 9.273,9.778 2.49,3.148 4.905,6.555 7.136,9.964 1.335,2.039 2.299,3.606 2.797,4.454 1.203,2.116 1.155,2.716 1.187,2.698 l -1.29,0.889 c -0.345,0.288 -0.935,0.784 -1.689,1.426 -1.257,1.07 -2.515,2.157 -3.698,3.202 -0.259,0.229 -0.259,0.229 -0.518,0.46 -3.128,2.787 -4.871,4.475 -5.943,6.058 -8.345,12.313 -7.321,24.846 3.486,35.664 l 18.879,18.879 18.877,18.869 c 10.816,10.816 23.351,11.844 35.669,3.494 1.58,-1.07 3.268,-2.812 6.055,-5.941 0.231,-0.259 0.231,-0.259 0.46,-0.518 1.045,-1.183 2.133,-2.441 3.202,-3.698 0.642,-0.754 1.138,-1.344 1.426,-1.689 l 0.889,-1.29 c -0.018,0.033 0.581,-0.016 2.795,1.244 0.753,0.442 2.319,1.406 4.358,2.74 3.409,2.23 6.815,4.644 9.963,7.133 4.207,3.326 7.589,6.508 9.797,9.298 0.783,0.99 1.387,1.893 1.802,2.677 0.9,1.705 0.585,3.792 -0.779,5.157 z"
   id="path8" />
			<path
   d="m 277.332,204.8 c 14.154,0 25.6,11.446 25.6,25.6 0,4.713 3.82,8.533 8.533,8.533 4.713,0 8.533,-3.82 8.533,-8.533 0,-23.58 -19.087,-42.667 -42.667,-42.667 -4.713,0 -8.533,3.82 -8.533,8.533 0,4.713 3.821,8.534 8.534,8.534 z"
   id="path10" />
			<path
   d="m 277.332,170.667 c 33.022,0 59.733,26.712 59.733,59.733 0,4.713 3.821,8.533 8.533,8.533 4.713,0 8.533,-3.82 8.533,-8.533 0,-42.447 -34.353,-76.8 -76.8,-76.8 -4.713,0 -8.533,3.82 -8.533,8.533 0,4.713 3.821,8.534 8.534,8.534 z"
   id="path12" />
		</g>
	</g>
</g>
<g
   transform="translate(-106.665)"
   id="g20">
</g>
<g
   transform="translate(-106.665)"
   id="g22">
</g>
<g
   transform="translate(-106.665)"
   id="g24">
</g>
<g
   transform="translate(-106.665)"
   id="g26">
</g>
<g
   transform="translate(-106.665)"
   id="g28">
</g>
<g
   transform="translate(-106.665)"
   id="g30">
</g>
<g
   transform="translate(-106.665)"
   id="g32">
</g>
<g
   transform="translate(-106.665)"
   id="g34">
</g>
<g
   transform="translate(-106.665)"
   id="g36">
</g>
<g
   transform="translate(-106.665)"
   id="g38">
</g>
<g
   transform="translate(-106.665)"
   id="g40">
</g>
<g
   transform="translate(-106.665)"
   id="g42">
</g>
<g
   transform="translate(-106.665)"
   id="g44">
</g>
<g
   transform="translate(-106.665)"
   id="g46">
</g>
<g
   transform="translate(-106.665)"
   id="g48">
</g>
</svg>