<?xml version="1.0" encoding="iso-8859-1"?>
<!-- Generator: Adobe Illustrator 19.0.0, SVG Export Plug-In . SVG Version: 6.00 Build 0)  -->
<svg version="1.1" id="Layer_1" xmlns="http://www.w3.org/2000/svg" xmlns:xlink="http://www.w3.org/1999/xlink" x="0px" y="0px"
	 viewBox="0 0 512.001 512.001" style="enable-background:new 0 0 512.001 512.001;" xml:space="preserve">
<g>
	<g>
		<path d="M99.916,28.3c-32.154,0-58.313,26.147-58.313,58.287s26.16,58.287,58.313,58.287c32.154,0,58.311-26.147,58.311-58.287
			S132.069,28.3,99.916,28.3z M99.916,129.202c-23.511,0-42.639-19.116-42.639-42.614s19.129-42.614,42.639-42.614
			c23.511,0,42.638,19.116,42.638,42.614S123.426,129.202,99.916,129.202z"/>
	</g>
</g>
<g>
	<g>
		<circle cx="130.131" cy="449.89" r="7.839"/>
	</g>
</g>
<g>
	<g>
		<circle cx="190.234" cy="449.89" r="7.839"/>
	</g>
</g>
<g>
	<g>
		<circle cx="248.236" cy="449.89" r="7.839"/>
	</g>
</g>
<g>
	<g>
		<circle cx="388.304" cy="455.637" r="7.839"/>
	</g>
</g>
<g>
	<g>
		<path d="M362.044,244.032c1.881,4.607,6.31,7.584,11.286,7.584c4.973,0,9.403-2.976,11.286-7.585
			c3.824-9.371,12.88-15.425,23.073-15.425c10.191,0,19.247,6.054,23.071,15.425c1.88,4.607,6.31,7.585,11.285,7.585
			c4.976,0,9.406-2.978,11.286-7.585c3.824-9.371,12.88-15.425,23.072-15.425c5.721,0,11.308,1.974,15.73,5.557
			c2.163,1.753,4.89,2.72,7.677,2.72c2.052,0,4.086-0.523,5.874-1.509c4.363-2.399,6.81-7.147,6.233-12.097
			c-9.925-85.114-80.219-149.917-165.109-153.693v-6.178c0-4.329-3.509-7.837-7.837-7.837s-7.837,3.508-7.837,7.837v6.178
			c-84.89,3.775-155.184,68.579-165.107,153.691c-0.579,4.95,1.868,9.699,6.224,12.095c1.796,0.99,3.831,1.513,5.882,1.513
			c2.787,0,5.513-0.967,7.674-2.718c4.424-3.585,10.012-5.559,15.733-5.559c10.192,0,19.248,6.054,23.07,15.422
			c1.879,4.609,6.309,7.588,11.287,7.588c4.976,0,9.405-2.978,11.286-7.585c3.823-9.371,12.879-15.425,23.072-15.425
			c10.192,0,19.248,6.054,23.073,15.429c1.882,4.605,6.312,7.581,11.286,7.581c4.973,0,9.401-2.976,11.285-7.585
			c2.803-6.868,8.422-11.943,15.235-14.17v102.967h-1.569c-7.204,0-13.063,5.86-13.063,13.062v89.766
			c-11.217-5.405-22.981-10.008-35.156-13.749v-20.485h9.561c7.202,0,13.062-5.86,13.062-13.063v-21.604
			c0-7.203-5.86-13.063-13.062-13.063h-20.279c-4.328,0-7.837,3.509-7.837,7.837c0,4.329,3.509,7.837,7.837,7.837h17.668v16.384
			L91.39,385.751c-0.528-0.052-1.647-0.628-1.953-0.972l-49.223-68.966l13.315-9.517l39.635,55.531
			c3.117,4.369,9.275,7.538,14.641,7.538h133.566c4.328,0,7.837-3.508,7.837-7.837c0-4.328-3.509-7.837-7.837-7.837l-126.539,0.002
			c5.522-6.238,6.246-15.69,1.205-22.751l-22.631-31.707c-3.419-4.792-8.99-7.652-14.902-7.652c-3.83,0-7.498,1.176-10.609,3.399
			l-2.11,1.508l-1.021-1.429c-2.025-2.838-5.037-4.716-8.485-5.29c-3.449-0.57-6.907,0.228-9.738,2.253l-17.563,12.553
			c-5.858,4.188-7.22,12.362-3.036,18.222l50.737,71.087c3.118,4.367,9.274,7.536,14.64,7.536h1.666v32.026
			c-19.996,9.108-38.352,20.728-54.293,34.578H7.837c-4.328,0-7.837,3.508-7.837,7.837c0,4.329,3.509,7.837,7.837,7.837H149.42
			c4.328,0,7.837-3.508,7.837-7.837c0-4.329-3.509-7.837-7.837-7.837H64.027c8.377-5.95,17.297-11.326,26.661-16.092
			c0.899,3.339,3.938,5.799,7.561,5.799c4.33,0,7.84-3.509,7.84-7.84c0-1.668-0.525-3.209-1.412-4.479
			c14.36-6.121,29.568-10.893,45.318-14.192c0.077,4.263,3.551,7.697,7.833,7.697c4.33,0,7.839-3.509,7.839-7.84
			c0-0.899-0.159-1.761-0.438-2.564c10.926-1.599,22.056-2.499,33.285-2.669c-1.248,1.389-2.013,3.219-2.013,5.233
			c0,4.331,3.51,7.84,7.84,7.84c4.329,0,7.839-3.509,7.839-7.84c0-1.969-0.73-3.763-1.928-5.138
			c14.677,0.448,29.159,2.141,43.221,5.008c0,0.044-0.006,0.086-0.006,0.13c0,4.331,3.51,7.84,7.84,7.84
			c3.114,0,5.796-1.82,7.061-4.452c8.338,2.241,16.492,4.904,24.412,7.967c-1.052,1.334-1.684,3.016-1.684,4.846
			c0,4.331,3.509,7.84,7.84,7.84c3.969,0,7.241-2.952,7.759-6.78c12.081,5.606,23.503,12.19,34.058,19.688H178.677
			c-4.328,0-7.837,3.508-7.837,7.837c0,4.329,3.509,7.837,7.837,7.837h319.238c4.328,0,7.837-3.508,7.837-7.837
			c0-4.329-3.509-7.837-7.837-7.837h-31.847c-23.598-28.224-56.408-44.335-90.584-44.335c-4.721,0-9.406,0.302-14.042,0.897v-12.899
			c0-4.329-3.509-7.837-7.837-7.837c-4.328,0-7.837,3.508-7.837,7.837v16.092c-4.609,1.288-9.145,2.878-13.593,4.761v-84.041h13.593
			v34.976c0,4.329,3.509,7.837,7.837,7.837c4.328,0,7.837-3.508,7.837-7.837V345.89c0-7.202-5.86-13.062-13.062-13.062h-1.571
			V229.86C353.62,232.086,359.24,237.162,362.044,244.032z M77.01,307.733c0.551-0.394,1.117-0.476,1.495-0.476
			c0.859,0,1.66,0.405,2.145,1.084l22.631,31.708c0.826,1.156,0.547,2.832-0.61,3.658l-2.11,1.507l-25.671-35.966L77.01,307.733z
			 M121.554,422.492c-4.355,1.375-8.654,2.865-12.895,4.459v-25.528h12.895V422.492z M237.104,412.359
			c-11.421-1.468-23.025-2.224-34.716-2.224c-22.26,0-44.205,2.739-65.161,7.946v-16.66h99.876V412.359z M265.672,417.61
			c-4.259-1.024-8.562-1.937-12.895-2.755v-13.433h12.895V417.61z M354.574,441.712c-0.153,0.612-0.243,1.249-0.243,1.908
			c0,4.331,3.509,7.84,7.84,7.84c4.329,0,7.839-3.509,7.839-7.84c0-1.471-0.414-2.844-1.118-4.021
			c2.188-0.153,4.385-0.236,6.592-0.236c11.161,0,22.17,2.02,32.662,5.86c-0.971,1.305-1.552,2.916-1.552,4.669
			c0,4.331,3.509,7.84,7.839,7.84c3.753,0,6.885-2.638,7.654-6.162c8.006,4.394,15.57,9.908,22.497,16.455h-78.497
			c-8.78-7.629-18.297-14.576-28.413-20.805C343.168,444.857,348.818,443.019,354.574,441.712z M420.484,170.753
			c1.394,4.098,5.843,6.292,9.942,4.896c4.097-1.393,6.29-5.844,4.897-9.942c-10.341-30.421-24.787-54.572-41.77-70.949
			c52.433,19.238,92.275,65.443,101.737,122.822c-5.791-3.028-12.287-4.648-18.889-4.648c-10.659,0-20.558,4.08-27.93,11.053
			c-1.303-10.361-3.072-20.505-5.296-30.321c-0.956-4.221-5.157-6.874-9.374-5.911c-4.221,0.956-6.868,5.153-5.912,9.375
			c1.769,7.811,3.23,15.848,4.389,24.047c-6.904-5.239-15.464-8.243-24.592-8.243c-11.421,0-21.965,4.69-29.466,12.596
			c-0.956-40.576-4.748-80.551-10.581-107.866c-2.333-10.928-4.897-19.912-7.738-27.046
			C384.463,101.188,406.603,129.92,420.484,170.753z M229.478,223.994c-7.373-6.978-17.275-11.061-27.938-11.061
			c-6.602,0-13.097,1.62-18.89,4.648c9.475-57.461,49.415-103.717,101.959-122.905c-7.666,7.364-14.853,16.323-21.397,26.785
			C246.19,148.67,234.454,184.55,229.478,223.994z M310.302,117.662c-5.891,27.586-9.636,65.356-10.544,106.348
			c-0.014,0.587,0.044,1.157,0.154,1.711c-7.513-8.027-18.141-12.789-29.656-12.789c-9.127,0-17.688,3.004-24.592,8.242
			c4.995-35.302,15.675-67.166,30.836-91.402c12.125-19.384,26.426-32.766,41.566-39.219
			C315.214,97.698,312.642,106.702,310.302,117.662z M338.97,212.932c-8.625,0-16.744,2.684-23.438,7.398
			c0.974-36.117,4.212-69.708,9.185-94.951c5.013-25.454,10.52-35.941,13.395-39.224c0.286-0.005,0.572-0.019,0.858-0.019
			c0.288,0,0.577,0.022,0.865,0.026c2.878,3.291,8.379,13.782,13.389,39.215c4.973,25.244,8.211,58.834,9.185,94.952
			C355.716,215.617,347.596,212.932,338.97,212.932z"/>
	</g>
</g>
<g>
</g>
<g>
</g>
<g>
</g>
<g>
</g>
<g>
</g>
<g>
</g>
<g>
</g>
<g>
</g>
<g>
</g>
<g>
</g>
<g>
</g>
<g>
</g>
<g>
</g>
<g>
</g>
<g>
</g>
</svg>
