<svg width="42" height="44" viewBox="0 0 42 44" fill="none" xmlns="http://www.w3.org/2000/svg">
<path d="M38.9669 13.2H35.3002V11.7333H36.7669C37.2069 11.7333 37.5002 11.44 37.5002 11C37.5002 4.9133 32.5869 0 26.5002 0H11.8335C5.7468 0 0.833496 4.9133 0.833496 11C0.833496 11.44 1.1268 11.7333 1.5668 11.7333H3.0335V36.6666H1.56689C1.12689 36.6666 0.833582 36.9599 0.833582 37.3999C0.833582 41.0666 3.76689 43.9999 7.43358 43.9999H30.9002C34.5669 43.9999 37.5002 41.0666 37.5002 37.3999C37.5002 36.9599 37.2069 36.6666 36.7669 36.6666H35.3002V17.6H38.9669C40.2136 17.6 41.1669 16.6467 41.1669 15.4C41.1669 14.1533 40.2135 13.2 38.9669 13.2ZM33.8335 13.2H29.4335C28.446 13.2 27.6432 13.7984 27.3517 14.6667H26.5002V11.7334H33.8335V13.2ZM21.3669 19.0667H22.8336V20.1667C22.8336 20.3867 22.6869 20.5334 22.4669 20.5334H21.7336C21.5136 20.5334 21.3669 20.3867 21.3669 20.1667V19.0667ZM22.8335 17.6H20.6335H17.7002H15.4269C14.2536 17.6 13.3002 16.6467 13.3002 15.4733V11.7333H24.9602V15.4733C24.9602 16.6467 24.0069 17.6 22.8335 17.6ZM15.5002 19.0667H16.9669V20.1667C16.9669 20.3867 16.8202 20.5334 16.6002 20.5334H15.8669C15.6469 20.5334 15.5002 20.3867 15.5002 20.1667V19.0667ZM11.8335 1.4667H26.5002C31.4869 1.4667 35.5935 5.35339 36.0335 10.2667H34.5668H25.7668H12.5668H3.7668H2.30019C2.74019 5.3533 6.84689 1.4667 11.8335 1.4667ZM30.9002 42.5333H7.4335C4.8668 42.5333 2.74019 40.6266 2.3735 38.1333H3.7668H34.5668H35.9601C35.5935 40.6267 33.4669 42.5333 30.9002 42.5333ZM29.2869 27.2067C30.9002 27.5 30.9002 28.2333 30.9002 28.6C30.9002 30.14 28.9935 32.12 27.4535 32.78C28.4069 31.0933 28.9935 29.26 29.2869 27.2067ZM27.9389 26.1106C27.91 26.1783 27.8936 26.2508 27.8936 26.3267C27.6736 28.9667 26.7936 31.3867 25.4003 33.22C25.3839 33.2445 25.37 33.2703 25.3572 33.2964C23.7676 35.383 21.584 36.6667 19.167 36.6667C14.4737 36.6667 10.6603 31.8267 10.367 25.6667H27.967C27.9598 25.8155 27.95 25.9634 27.9389 26.1106ZM33.8335 36.6667H23.8554C24.7355 36.081 25.5425 35.3365 26.2529 34.4628C26.3353 34.4667 26.4178 34.4667 26.5002 34.4667C28.8469 34.4667 32.3669 31.3134 32.3669 28.6C32.3669 27.4566 31.8719 26.0674 29.4141 25.7318C29.4265 25.4675 29.4336 25.2014 29.4336 24.9334C29.4336 24.4934 29.1403 24.2001 28.7003 24.2001H9.6335C9.1935 24.2001 8.90019 24.4934 8.90019 24.9334C8.90019 30.0252 11.1729 34.4674 14.4783 36.6667H4.50019V11.7333H11.8335V15.4733C11.8335 16.9596 12.7426 18.2392 14.0335 18.785V20.1667C14.0335 21.1934 14.8402 22 15.8668 22H16.6001C17.6268 22 18.4334 21.1933 18.4334 20.1667V19.0667H19.9002V20.1667C19.9002 21.1934 20.7069 22 21.7335 22H22.4668C23.4935 22 24.3001 21.1933 24.3001 20.1667V18.785C25.3951 18.322 26.2145 17.3307 26.4381 16.1333H27.3517C27.6431 17.0015 28.446 17.6 29.4334 17.6H33.8334V36.6667H33.8335ZM38.9669 16.1333H34.5669H29.4336C28.9936 16.1333 28.7003 15.84 28.7003 15.4C28.7003 14.96 28.9936 14.6667 29.4336 14.6667H34.5669H38.9669C39.4069 14.6667 39.7002 14.96 39.7002 15.4C39.7002 15.84 39.4069 16.1333 38.9669 16.1333Z" fill="black"/>
</svg>
