<?xml version="1.0" encoding="UTF-8" standalone="no"?>
<svg
   xmlns:dc="http://purl.org/dc/elements/1.1/"
   xmlns:cc="http://creativecommons.org/ns#"
   xmlns:rdf="http://www.w3.org/1999/02/22-rdf-syntax-ns#"
   xmlns:svg="http://www.w3.org/2000/svg"
   xmlns="http://www.w3.org/2000/svg"
   height="480"
   width="480"
   version="1.1"
   id="Capa_1"
   x="0px"
   y="0px"
   viewBox="0 0 480 480"
   xml:space="preserve"><metadata
   id="metadata79"><rdf:RDF><cc:Work
       rdf:about=""><dc:format>image/svg+xml</dc:format><dc:type
         rdf:resource="http://purl.org/dc/dcmitype/StillImage" /></cc:Work></rdf:RDF></metadata><defs
   id="defs77" />
<g
   id="g6">
	<g
   id="g4">
		<path
   d="M 472.004,0 C 472.003,0 472.001,0 472,0 H 8 C 3.583,-0.001 0.001,3.579 0,7.996 0,7.997 0,7.999 0,8 V 168 H 16 V 16 H 464 V 192 H 184 v 16 h 288 c 4.417,0.001 7.999,-3.579 8,-7.996 0,-0.001 0,-0.003 0,-0.004 V 8 c 10e-4,-4.417 -3.579,-7.999 -7.996,-8 z"
   id="path2" />
	</g>
</g>
<g
   id="g12">
	<g
   id="g10">
		<rect
   x="264"
   y="40"
   width="160"
   height="16"
   id="rect8" />
	</g>
</g>
<g
   id="g18">
	<g
   id="g16">
		<rect
   x="288"
   y="88"
   width="160"
   height="16"
   id="rect14" />
	</g>
</g>
<g
   id="g24">
	<g
   id="g22">
		<rect
   x="256"
   y="136"
   width="160"
   height="16"
   id="rect20" />
	</g>
</g>
<g
   id="g30">
	<g
   id="g28">
		<path
   d="m 255.362,68.974 c -5.477,-13.165 -20.589,-19.397 -33.753,-13.92 -0.225,0.094 -0.449,0.19 -0.671,0.29 L 156.07,88.994 C 158.628,83.692 159.971,77.886 160,72 160,49.909 142.091,32 120,32 97.909,32 80,49.909 80,72 c 0.03,8.683 2.913,17.116 8.205,24 H 87.872 C 65.164,96.152 44.893,110.269 36.876,131.516 L 15.52,205.125 c -5.084,13.206 1.5,28.034 14.707,33.118 6.022,2.318 12.697,2.279 18.692,-0.11 6.888,-2.775 12.248,-8.379 14.715,-15.383 L 72,196.125 V 311.908 C 65.116,306.617 56.683,303.734 48,303.703 25.942,303.67 8.033,321.525 8,343.584 7.984,354.387 12.344,364.735 20.087,372.269 7.799,378.547 0.048,391.163 0,404.961 V 472 c -0.001,4.417 3.579,7.999 7.996,8 10e-4,0 0.003,0 0.004,0 h 80 c 4.417,10e-4 7.999,-3.579 8,-7.996 0,-0.001 0,-0.003 0,-0.004 V 404.961 C 95.961,393.622 90.693,382.936 81.724,376 h 60.553 c -8.97,6.936 -14.238,17.622 -14.276,28.961 V 472 c -0.001,4.417 3.579,7.999 7.996,8 10e-4,0 0.003,0 0.004,0 h 80 c 4.417,10e-4 7.999,-3.579 8,-7.996 0,-0.001 0,-0.003 0,-0.004 v -67.039 c -0.048,-13.798 -7.799,-26.414 -20.087,-32.692 15.795,-15.417 16.102,-40.72 0.685,-56.515 -9.494,-9.727 -23.281,-13.962 -36.598,-11.242 V 140.859 l 73.441,-38.133 c 13.164,-5.476 19.396,-20.588 13.92,-33.752 z M 120,48 c 13.255,0 24,10.745 24,24 0,13.255 -10.745,24 -24,24 C 106.751,95.986 96.014,85.249 96,72 96,58.745 106.745,48 120,48 Z M 48,319.703 c 13.255,0 24,10.745 24,24 0,13.255 -10.745,24 -24,24 -13.255,0 -24,-10.745 -24,-24 0.014,-13.249 10.751,-23.985 24,-24 z M 80,464 H 16 V 404.961 C 16.016,393.39 25.393,384.014 36.965,384 h 22.07 c 11.571,0.014 20.949,9.39 20.965,20.961 z M 208,404.961 V 464 h -64 v -59.039 c 0.016,-11.571 9.393,-20.947 20.965,-20.961 h 22.07 c 11.572,0.014 20.949,9.39 20.965,20.961 z m -32,-85.258 c 13.249,0.014 23.986,10.751 24,24 0,13.255 -10.745,24 -24,24 -13.255,0 -24,-10.745 -24,-24 0,-13.255 10.745,-24 24,-24 z M 240.723,82.32 c -1.071,2.748 -3.27,4.905 -6.039,5.922 l -78.367,40.656 C 153.665,130.274 152,133.013 152,136 V 311.908 C 137.015,322.988 131.824,343.041 139.552,360 H 128 V 224 H 112 V 360 H 84.448 c 2.276,-5.03 3.475,-10.48 3.522,-16 H 88 V 144 c -0.001,-4.419 -3.584,-8 -8.002,-7.999 -3.493,0.001 -6.582,2.268 -7.63,5.601 L 48.48,217.617 c -1.81,4.992 -7.325,7.572 -12.317,5.761 -0.35,-0.127 -0.693,-0.274 -1.027,-0.441 -4.615,-2.385 -6.574,-7.953 -4.468,-12.703 L 52.023,136.625 C 57.782,121.835 71.999,112.069 87.871,112 h 56.645 c 1.282,0.002 2.546,-0.307 3.684,-0.898 l 79.512,-41.273 c 4.77,-1.99 10.268,0.046 12.59,4.664 1.231,2.434 1.384,5.274 0.421,7.827 z"
   id="path26" />
	</g>
</g>
<g
   id="g36">
	<g
   id="g34">
		<path
   d="m 331.913,372.269 c 15.823,-15.416 16.153,-40.741 0.737,-56.564 -15.416,-15.823 -40.741,-16.153 -56.564,-0.737 -15.823,15.416 -16.153,40.741 -0.737,56.564 0.243,0.249 0.489,0.495 0.738,0.737 C 263.8,378.547 256.048,391.163 256,404.961 V 472 c -0.001,4.417 3.579,7.999 7.996,8 0.001,0 0.003,0 0.004,0 h 80 c 4.417,10e-4 7.999,-3.579 8,-7.996 0,-0.001 0,-0.003 0,-0.004 v -67.039 c -0.048,-13.798 -7.799,-26.414 -20.087,-32.692 z M 304,319.703 c 13.255,0 24,10.745 24,24 0,13.255 -10.745,24 -24,24 -13.255,0 -24,-10.745 -24,-24 0.014,-13.249 10.751,-23.985 24,-24 z M 336,464 h -64 v -59.039 c 0.016,-11.571 9.393,-20.947 20.965,-20.961 h 22.07 c 11.571,0.014 20.949,9.39 20.965,20.961 V 464 Z"
   id="path32" />
	</g>
</g>
<g
   id="g42">
	<g
   id="g40">
		<path
   d="m 459.913,372.269 c 15.823,-15.416 16.153,-40.741 0.737,-56.564 -15.416,-15.823 -40.741,-16.153 -56.564,-0.737 -15.823,15.416 -16.153,40.741 -0.737,56.564 0.243,0.249 0.489,0.495 0.738,0.737 C 391.8,378.547 384.048,391.163 384,404.961 V 472 c -10e-4,4.417 3.579,7.999 7.996,8 0.001,0 0.003,0 0.004,0 h 80 c 4.417,10e-4 7.999,-3.579 8,-7.996 0,-0.001 0,-0.003 0,-0.004 v -67.039 c -0.048,-13.798 -7.799,-26.414 -20.087,-32.692 z M 432,319.703 c 13.255,0 24,10.745 24,24 0,13.255 -10.745,24 -24,24 -13.255,0 -24,-10.745 -24,-24 0.014,-13.249 10.751,-23.985 24,-24 z M 464,464 h -64 v -59.039 c 0.016,-11.571 9.393,-20.947 20.965,-20.961 h 22.07 c 11.571,0.014 20.949,9.39 20.965,20.961 V 464 Z"
   id="path38" />
	</g>
</g>
<g
   id="g44">
</g>
<g
   id="g46">
</g>
<g
   id="g48">
</g>
<g
   id="g50">
</g>
<g
   id="g52">
</g>
<g
   id="g54">
</g>
<g
   id="g56">
</g>
<g
   id="g58">
</g>
<g
   id="g60">
</g>
<g
   id="g62">
</g>
<g
   id="g64">
</g>
<g
   id="g66">
</g>
<g
   id="g68">
</g>
<g
   id="g70">
</g>
<g
   id="g72">
</g>
</svg>