<?xml version="1.0" encoding="UTF-8" standalone="no"?>
<svg
   xmlns:dc="http://purl.org/dc/elements/1.1/"
   xmlns:cc="http://creativecommons.org/ns#"
   xmlns:rdf="http://www.w3.org/1999/02/22-rdf-syntax-ns#"
   xmlns:svg="http://www.w3.org/2000/svg"
   xmlns="http://www.w3.org/2000/svg"
   height="455.40201"
   width="512.00055"
   version="1.1"
   id="Layer_1"
   x="0px"
   y="0px"
   viewBox="0 0 512.00057 455.40203"
   xml:space="preserve"><metadata
   id="metadata73"><rdf:RDF><cc:Work
       rdf:about=""><dc:format>image/svg+xml</dc:format><dc:type
         rdf:resource="http://purl.org/dc/dcmitype/StillImage" /></cc:Work></rdf:RDF></metadata><defs
   id="defs71" />
<g
   transform="translate(0,-28.3)"
   id="g6">
	<g
   id="g4">
		<path
   d="m 99.916,28.3 c -32.154,0 -58.313,26.147 -58.313,58.287 0,32.14 26.16,58.287 58.313,58.287 32.154,0 58.311,-26.147 58.311,-58.287 0,-32.14 -26.158,-58.287 -58.311,-58.287 z m 0,100.902 c -23.511,0 -42.639,-19.116 -42.639,-42.614 0,-23.498 19.129,-42.614 42.639,-42.614 23.511,0 42.638,19.116 42.638,42.614 0,23.498 -19.128,42.614 -42.638,42.614 z"
   id="path2" />
	</g>
</g>
<g
   transform="translate(0,-28.3)"
   id="g12">
	<g
   id="g10">
		<circle
   cx="130.131"
   cy="449.89001"
   r="7.8390002"
   id="circle8" />
	</g>
</g>
<g
   transform="translate(0,-28.3)"
   id="g18">
	<g
   id="g16">
		<circle
   cx="190.23399"
   cy="449.89001"
   r="7.8390002"
   id="circle14" />
	</g>
</g>
<g
   transform="translate(0,-28.3)"
   id="g24">
	<g
   id="g22">
		<circle
   cx="248.23599"
   cy="449.89001"
   r="7.8390002"
   id="circle20" />
	</g>
</g>
<g
   transform="translate(0,-28.3)"
   id="g30">
	<g
   id="g28">
		<circle
   cx="388.30399"
   cy="455.63699"
   r="7.8390002"
   id="circle26" />
	</g>
</g>
<g
   transform="translate(0,-28.3)"
   id="g36">
	<g
   id="g34">
		<path
   d="m 362.044,244.032 c 1.881,4.607 6.31,7.584 11.286,7.584 4.973,0 9.403,-2.976 11.286,-7.585 3.824,-9.371 12.88,-15.425 23.073,-15.425 10.191,0 19.247,6.054 23.071,15.425 1.88,4.607 6.31,7.585 11.285,7.585 4.976,0 9.406,-2.978 11.286,-7.585 3.824,-9.371 12.88,-15.425 23.072,-15.425 5.721,0 11.308,1.974 15.73,5.557 2.163,1.753 4.89,2.72 7.677,2.72 2.052,0 4.086,-0.523 5.874,-1.509 4.363,-2.399 6.81,-7.147 6.233,-12.097 C 501.992,138.163 431.698,73.36 346.808,69.584 v -6.178 c 0,-4.329 -3.509,-7.837 -7.837,-7.837 -4.328,0 -7.837,3.508 -7.837,7.837 v 6.178 c -84.89,3.775 -155.184,68.579 -165.107,153.691 -0.579,4.95 1.868,9.699 6.224,12.095 1.796,0.99 3.831,1.513 5.882,1.513 2.787,0 5.513,-0.967 7.674,-2.718 4.424,-3.585 10.012,-5.559 15.733,-5.559 10.192,0 19.248,6.054 23.07,15.422 1.879,4.609 6.309,7.588 11.287,7.588 4.976,0 9.405,-2.978 11.286,-7.585 3.823,-9.371 12.879,-15.425 23.072,-15.425 10.192,0 19.248,6.054 23.073,15.429 1.882,4.605 6.312,7.581 11.286,7.581 4.973,0 9.401,-2.976 11.285,-7.585 2.803,-6.868 8.422,-11.943 15.235,-14.17 v 102.967 h -1.569 c -7.204,0 -13.063,5.86 -13.063,13.062 v 89.766 c -11.217,-5.405 -22.981,-10.008 -35.156,-13.749 v -20.485 h 9.561 c 7.202,0 13.062,-5.86 13.062,-13.063 v -21.604 c 0,-7.203 -5.86,-13.063 -13.062,-13.063 h -20.279 c -4.328,0 -7.837,3.509 -7.837,7.837 0,4.329 3.509,7.837 7.837,7.837 h 17.668 V 385.75 L 91.39,385.751 c -0.528,-0.052 -1.647,-0.628 -1.953,-0.972 l -49.223,-68.966 13.315,-9.517 39.635,55.531 c 3.117,4.369 9.275,7.538 14.641,7.538 h 133.566 c 4.328,0 7.837,-3.508 7.837,-7.837 0,-4.328 -3.509,-7.837 -7.837,-7.837 l -126.539,0.002 c 5.522,-6.238 6.246,-15.69 1.205,-22.751 L 93.406,299.235 c -3.419,-4.792 -8.99,-7.652 -14.902,-7.652 -3.83,0 -7.498,1.176 -10.609,3.399 l -2.11,1.508 -1.021,-1.429 c -2.025,-2.838 -5.037,-4.716 -8.485,-5.29 -3.449,-0.57 -6.907,0.228 -9.738,2.253 l -17.563,12.553 c -5.858,4.188 -7.22,12.362 -3.036,18.222 l 50.737,71.087 c 3.118,4.367 9.274,7.536 14.64,7.536 h 1.666 v 32.026 c -19.996,9.108 -38.352,20.728 -54.293,34.578 H 7.837 c -4.328,0 -7.837,3.508 -7.837,7.837 0,4.329 3.509,7.837 7.837,7.837 H 149.42 c 4.328,0 7.837,-3.508 7.837,-7.837 0,-4.329 -3.509,-7.837 -7.837,-7.837 H 64.027 c 8.377,-5.95 17.297,-11.326 26.661,-16.092 0.899,3.339 3.938,5.799 7.561,5.799 4.33,0 7.84,-3.509 7.84,-7.84 0,-1.668 -0.525,-3.209 -1.412,-4.479 14.36,-6.121 29.568,-10.893 45.318,-14.192 0.077,4.263 3.551,7.697 7.833,7.697 4.33,0 7.839,-3.509 7.839,-7.84 0,-0.899 -0.159,-1.761 -0.438,-2.564 10.926,-1.599 22.056,-2.499 33.285,-2.669 -1.248,1.389 -2.013,3.219 -2.013,5.233 0,4.331 3.51,7.84 7.84,7.84 4.329,0 7.839,-3.509 7.839,-7.84 0,-1.969 -0.73,-3.763 -1.928,-5.138 14.677,0.448 29.159,2.141 43.221,5.008 0,0.044 -0.006,0.086 -0.006,0.13 0,4.331 3.51,7.84 7.84,7.84 3.114,0 5.796,-1.82 7.061,-4.452 8.338,2.241 16.492,4.904 24.412,7.967 -1.052,1.334 -1.684,3.016 -1.684,4.846 0,4.331 3.509,7.84 7.84,7.84 3.969,0 7.241,-2.952 7.759,-6.78 12.081,5.606 23.503,12.19 34.058,19.688 H 178.677 c -4.328,0 -7.837,3.508 -7.837,7.837 0,4.329 3.509,7.837 7.837,7.837 h 319.238 c 4.328,0 7.837,-3.508 7.837,-7.837 0,-4.329 -3.509,-7.837 -7.837,-7.837 h -31.847 c -23.598,-28.224 -56.408,-44.335 -90.584,-44.335 -4.721,0 -9.406,0.302 -14.042,0.897 v -12.899 c 0,-4.329 -3.509,-7.837 -7.837,-7.837 -4.328,0 -7.837,3.508 -7.837,7.837 v 16.092 c -4.609,1.288 -9.145,2.878 -13.593,4.761 v -84.041 h 13.593 v 34.976 c 0,4.329 3.509,7.837 7.837,7.837 4.328,0 7.837,-3.508 7.837,-7.837 V 345.89 c 0,-7.202 -5.86,-13.062 -13.062,-13.062 h -1.571 V 229.86 c 6.811,2.226 12.431,7.302 15.235,14.172 z M 77.01,307.733 c 0.551,-0.394 1.117,-0.476 1.495,-0.476 0.859,0 1.66,0.405 2.145,1.084 l 22.631,31.708 c 0.826,1.156 0.547,2.832 -0.61,3.658 l -2.11,1.507 -25.671,-35.966 z m 44.544,114.759 c -4.355,1.375 -8.654,2.865 -12.895,4.459 v -25.528 h 12.895 z m 115.55,-10.133 c -11.421,-1.468 -23.025,-2.224 -34.716,-2.224 -22.26,0 -44.205,2.739 -65.161,7.946 v -16.66 h 99.876 v 10.938 z m 28.568,5.251 c -4.259,-1.024 -8.562,-1.937 -12.895,-2.755 v -13.433 h 12.895 z m 88.902,24.102 c -0.153,0.612 -0.243,1.249 -0.243,1.908 0,4.331 3.509,7.84 7.84,7.84 4.329,0 7.839,-3.509 7.839,-7.84 0,-1.471 -0.414,-2.844 -1.118,-4.021 2.188,-0.153 4.385,-0.236 6.592,-0.236 11.161,0 22.17,2.02 32.662,5.86 -0.971,1.305 -1.552,2.916 -1.552,4.669 0,4.331 3.509,7.84 7.839,7.84 3.753,0 6.885,-2.638 7.654,-6.162 8.006,4.394 15.57,9.908 22.497,16.455 h -78.497 c -8.78,-7.629 -18.297,-14.576 -28.413,-20.805 5.494,-2.363 11.144,-4.201 16.9,-5.508 z m 65.91,-270.959 c 1.394,4.098 5.843,6.292 9.942,4.896 4.097,-1.393 6.29,-5.844 4.897,-9.942 -10.341,-30.421 -24.787,-54.572 -41.77,-70.949 52.433,19.238 92.275,65.443 101.737,122.822 -5.791,-3.028 -12.287,-4.648 -18.889,-4.648 -10.659,0 -20.558,4.08 -27.93,11.053 -1.303,-10.361 -3.072,-20.505 -5.296,-30.321 -0.956,-4.221 -5.157,-6.874 -9.374,-5.911 -4.221,0.956 -6.868,5.153 -5.912,9.375 1.769,7.811 3.23,15.848 4.389,24.047 -6.904,-5.239 -15.464,-8.243 -24.592,-8.243 -11.421,0 -21.965,4.69 -29.466,12.596 -0.956,-40.576 -4.748,-80.551 -10.581,-107.866 -2.333,-10.928 -4.897,-19.912 -7.738,-27.046 24.562,10.572 46.702,39.304 60.583,80.137 z m -191.006,53.241 c -7.373,-6.978 -17.275,-11.061 -27.938,-11.061 -6.602,0 -13.097,1.62 -18.89,4.648 9.475,-57.461 49.415,-103.717 101.959,-122.905 -7.666,7.364 -14.853,16.323 -21.397,26.785 -17.022,27.209 -28.758,63.089 -33.734,102.533 z m 80.824,-106.332 c -5.891,27.586 -9.636,65.356 -10.544,106.348 -0.014,0.587 0.044,1.157 0.154,1.711 -7.513,-8.027 -18.141,-12.789 -29.656,-12.789 -9.127,0 -17.688,3.004 -24.592,8.242 4.995,-35.302 15.675,-67.166 30.836,-91.402 12.125,-19.384 26.426,-32.766 41.566,-39.219 -2.852,7.145 -5.424,16.149 -7.764,27.109 z m 28.668,95.27 c -8.625,0 -16.744,2.684 -23.438,7.398 0.974,-36.117 4.212,-69.708 9.185,-94.951 5.013,-25.454 10.52,-35.941 13.395,-39.224 0.286,-0.005 0.572,-0.019 0.858,-0.019 0.288,0 0.577,0.022 0.865,0.026 2.878,3.291 8.379,13.782 13.389,39.215 4.973,25.244 8.211,58.834 9.185,94.952 -6.693,-4.712 -14.813,-7.397 -23.439,-7.397 z"
   id="path32" />
	</g>
</g>
<g
   transform="translate(0,-28.3)"
   id="g38">
</g>
<g
   transform="translate(0,-28.3)"
   id="g40">
</g>
<g
   transform="translate(0,-28.3)"
   id="g42">
</g>
<g
   transform="translate(0,-28.3)"
   id="g44">
</g>
<g
   transform="translate(0,-28.3)"
   id="g46">
</g>
<g
   transform="translate(0,-28.3)"
   id="g48">
</g>
<g
   transform="translate(0,-28.3)"
   id="g50">
</g>
<g
   transform="translate(0,-28.3)"
   id="g52">
</g>
<g
   transform="translate(0,-28.3)"
   id="g54">
</g>
<g
   transform="translate(0,-28.3)"
   id="g56">
</g>
<g
   transform="translate(0,-28.3)"
   id="g58">
</g>
<g
   transform="translate(0,-28.3)"
   id="g60">
</g>
<g
   transform="translate(0,-28.3)"
   id="g62">
</g>
<g
   transform="translate(0,-28.3)"
   id="g64">
</g>
<g
   transform="translate(0,-28.3)"
   id="g66">
</g>
</svg>