<?xml version="1.0" encoding="UTF-8" standalone="no"?>
<svg
   xmlns:dc="http://purl.org/dc/elements/1.1/"
   xmlns:cc="http://creativecommons.org/ns#"
   xmlns:rdf="http://www.w3.org/1999/02/22-rdf-syntax-ns#"
   xmlns:svg="http://www.w3.org/2000/svg"
   xmlns="http://www.w3.org/2000/svg"
   height="480"
   width="448"
   version="1.1"
   id="Capa_1"
   x="0px"
   y="0px"
   viewBox="0 0 448 480"
   xml:space="preserve"><metadata
   id="metadata67"><rdf:RDF><cc:Work
       rdf:about=""><dc:format>image/svg+xml</dc:format><dc:type
         rdf:resource="http://purl.org/dc/dcmitype/StillImage" /></cc:Work></rdf:RDF></metadata><defs
   id="defs65" />
<g
   transform="translate(-16)"
   id="g6">
	<g
   id="g4">
		<path
   d="m 416,336 h -12.528 c -8.786,0.008 -17.45,2.053 -25.312,5.976 -11.439,5.686 -24.881,5.686 -36.32,0 -4.563,-2.239 -9.406,-3.854 -14.4,-4.8 L 343.032,216 H 360 c 4.418,0 8,-3.582 8,-8 v -32 c 0,-4.418 -3.582,-8 -8,-8 h -32 v -24 c 0,-2.122 -0.844,-4.156 -2.344,-5.656 L 288,100.688 V 75.84 l 12.128,-9.696 20.712,41.432 14.32,-7.152 L 312.904,55.92 322.8,48 H 352 c 4.418,0 8,-3.582 8,-8 V 8 c 0,-4.418 -3.582,-8 -8,-8 h -80 c -39.744,0.048 -71.952,32.256 -72,72 0,4.418 3.582,8 8,8 h 16 v 20.688 l -21.656,21.656 c -1.5,1.5 -2.344,3.534 -2.344,5.656 v 40 h -16 v -64 c -0.012,-0.991 -0.21,-1.97 -0.584,-2.888 -0.146,-0.311 -0.312,-0.613 -0.496,-0.904 -0.192,-0.419 -0.417,-0.823 -0.672,-1.208 L 152,61.2 V 8 c 0,-4.418 -3.582,-8 -8,-8 H 96 C 91.582,0 88,3.582 88,8 V 61.2 L 57.752,99 c -0.255,0.385 -0.48,0.789 -0.672,1.208 -0.184,0.291 -0.35,0.593 -0.496,0.904 C 56.21,102.03 56.012,103.009 56,104 v 64 H 24 c -4.418,0 -8,3.582 -8,8 v 32 c 0,4.418 3.582,8 8,8 h 16.968 l 31.096,241.024 c 0.515,3.99 3.913,6.977 7.936,6.976 h 188.32 c 9.073,10.17 22.051,15.99 35.68,16 h 12.528 c 8.786,-0.008 17.45,-2.053 25.312,-5.976 11.439,-5.686 24.881,-5.686 36.32,0 7.862,3.923 16.526,5.968 25.312,5.976 H 416 c 26.499,-0.026 47.974,-21.501 48,-48 v -48 c -0.026,-26.499 -21.501,-47.974 -48,-48 z M 328,16 h 16 v 16 h -16 z m 24,168 v 16 H 240 V 184 Z M 216.568,64 C 220.581,36.465 244.174,16.035 272,16 h 40 V 36.16 L 277.192,64 Z M 272,80 V 96 H 240 V 80 Z M 216,131.312 235.312,112 h 41.376 L 312,147.312 V 168 H 216 Z M 208,184 h 16 v 56 c -0.017,3.047 1.699,5.838 4.424,7.2 l 48,24 c 2.341,1.154 4.115,3.205 4.92,5.688 0.829,2.665 0.541,5.552 -0.8,8 -2.302,4.619 -7.912,6.497 -12.531,4.194 -0.007,-0.003 -0.014,-0.007 -0.021,-0.01 l -32.48,-16.24 c -3.97,-1.94 -8.76,-0.294 -10.7,3.676 -0.531,1.088 -0.809,2.282 -0.812,3.492 v 80 c 0,8.837 -7.163,16 -16,16 v -72 h -16 v 72 h -16 v -72 h -16 v 72 h -16 v -72 h -16 v 72 c -8.837,0 -16,-7.163 -16,-16 V 184 Z M 104,16 h 32 v 40 h -32 z m -4.16,56 h 40.32 l 19.2,24 H 80.64 Z M 72,112 h 96 v 56 H 72 Z m -40,88 v -16 h 64 v 16 z m 224,184 v 48 c 0.014,5.454 0.961,10.865 2.8,16 H 87.032 L 57.096,216 H 96 v 144 c 0,17.673 14.327,32 32,32 h 80 c 17.673,0 32,-14.327 32,-32 v -67.056 l 20.896,10.448 c 12.627,6.232 27.915,1.048 34.147,-11.579 0.026,-0.052 0.051,-0.105 0.077,-0.157 3.099,-6.143 3.626,-13.268 1.464,-19.8 -2.132,-6.535 -6.802,-11.937 -12.96,-14.992 L 240,235.056 V 216 h 86.904 L 311.416,336 H 304 c -26.499,0.026 -47.974,21.501 -48,48 z m 192,48 c 0,17.673 -14.327,32 -32,32 h -12.528 c -6.301,-0.009 -12.514,-1.476 -18.152,-4.288 -15.95,-7.925 -34.69,-7.925 -50.64,0 -5.638,2.812 -11.851,4.279 -18.152,4.288 H 304 c -17.673,0 -32,-14.327 -32,-32 v -12.32 c 8.773,7.927 20.176,12.317 32,12.32 h 12.528 c 8.786,-0.008 17.45,-2.053 25.312,-5.976 11.439,-5.686 24.881,-5.686 36.32,0 7.862,3.923 16.526,5.968 25.312,5.976 H 416 c 11.824,-0.003 23.227,-4.393 32,-12.32 z m -32,-16 h -12.528 c -6.301,-0.009 -12.514,-1.476 -18.152,-4.288 -15.95,-7.925 -34.69,-7.925 -50.64,0 -5.638,2.812 -11.851,4.279 -18.152,4.288 H 304 c -17.673,0 -32,-14.327 -32,-32 0,-17.673 14.327,-32 32,-32 h 12.528 c 6.301,0.009 12.514,1.476 18.152,4.288 15.951,7.92 34.689,7.92 50.64,0 5.638,-2.812 11.851,-4.279 18.152,-4.288 H 416 c 17.673,0 32,14.327 32,32 0,17.673 -14.327,32 -32,32 z"
   id="path2" />
	</g>
</g>
<g
   transform="translate(-16)"
   id="g12">
	<g
   id="g10">
		<rect
   x="408"
   y="368"
   width="16"
   height="16"
   id="rect8" />
	</g>
</g>
<g
   transform="translate(-16)"
   id="g18">
	<g
   id="g16">
		<rect
   x="328"
   y="368"
   width="16"
   height="16"
   id="rect14" />
	</g>
</g>
<g
   transform="translate(-16)"
   id="g24">
	<g
   id="g22">
		<rect
   x="296"
   y="376"
   width="16"
   height="16"
   id="rect20" />
	</g>
</g>
<g
   transform="translate(-16)"
   id="g30">
	<g
   id="g28">
		<rect
   x="376"
   y="376"
   width="16"
   height="16"
   id="rect26" />
	</g>
</g>
<g
   transform="translate(-16)"
   id="g32">
</g>
<g
   transform="translate(-16)"
   id="g34">
</g>
<g
   transform="translate(-16)"
   id="g36">
</g>
<g
   transform="translate(-16)"
   id="g38">
</g>
<g
   transform="translate(-16)"
   id="g40">
</g>
<g
   transform="translate(-16)"
   id="g42">
</g>
<g
   transform="translate(-16)"
   id="g44">
</g>
<g
   transform="translate(-16)"
   id="g46">
</g>
<g
   transform="translate(-16)"
   id="g48">
</g>
<g
   transform="translate(-16)"
   id="g50">
</g>
<g
   transform="translate(-16)"
   id="g52">
</g>
<g
   transform="translate(-16)"
   id="g54">
</g>
<g
   transform="translate(-16)"
   id="g56">
</g>
<g
   transform="translate(-16)"
   id="g58">
</g>
<g
   transform="translate(-16)"
   id="g60">
</g>
</svg>