<?xml version="1.0" encoding="UTF-8" standalone="no"?>
<svg
   xmlns:dc="http://purl.org/dc/elements/1.1/"
   xmlns:cc="http://creativecommons.org/ns#"
   xmlns:rdf="http://www.w3.org/1999/02/22-rdf-syntax-ns#"
   xmlns:svg="http://www.w3.org/2000/svg"
   xmlns="http://www.w3.org/2000/svg"
   height="469.33301"
   width="469.33301"
   xml:space="preserve"
   viewBox="0 0 469.333 469.333"
   y="0px"
   x="0px"
   id="Capa_1"
   version="1.1"><metadata
   id="metadata49"><rdf:RDF><cc:Work
       rdf:about=""><dc:format>image/svg+xml</dc:format><dc:type
         rdf:resource="http://purl.org/dc/dcmitype/StillImage" /></cc:Work></rdf:RDF></metadata><defs
   id="defs47" />
<g
   id="g12">
	<g
   id="g10">
		<g
   id="g8">
			<path
   id="path2"
   d="M 53.333,106.667 H 416 c 29.417,0 53.333,-23.927 53.333,-53.333 C 469.333,23.928 445.417,0 416,0 H 53.333 C 23.917,0 0,23.927 0,53.333 c 0,29.406 23.917,53.334 53.333,53.334 z" />
			<path
   id="path4"
   d="M 416,181.333 H 53.333 C 23.917,181.333 0,205.26 0,234.667 0,264.074 23.917,288 53.333,288 H 416 c 29.417,0 53.333,-23.927 53.333,-53.333 0,-29.406 -23.916,-53.334 -53.333,-53.334 z" />
			<path
   id="path6"
   d="M 416,362.667 H 53.333 C 23.917,362.667 0,386.594 0,416 c 0,29.406 23.917,53.333 53.333,53.333 H 416 c 29.417,0 53.333,-23.927 53.333,-53.333 0,-29.406 -23.916,-53.333 -53.333,-53.333 z" />
		</g>
	</g>
</g>
<g
   id="g14">
</g>
<g
   id="g16">
</g>
<g
   id="g18">
</g>
<g
   id="g20">
</g>
<g
   id="g22">
</g>
<g
   id="g24">
</g>
<g
   id="g26">
</g>
<g
   id="g28">
</g>
<g
   id="g30">
</g>
<g
   id="g32">
</g>
<g
   id="g34">
</g>
<g
   id="g36">
</g>
<g
   id="g38">
</g>
<g
   id="g40">
</g>
<g
   id="g42">
</g>
</svg>