<?xml version="1.0" encoding="UTF-8" standalone="no"?>
<svg
   xmlns:dc="http://purl.org/dc/elements/1.1/"
   xmlns:cc="http://creativecommons.org/ns#"
   xmlns:rdf="http://www.w3.org/1999/02/22-rdf-syntax-ns#"
   xmlns:svg="http://www.w3.org/2000/svg"
   xmlns="http://www.w3.org/2000/svg"
   id="svg4"
   version="1.1"
   width="365.69534pt"
   viewBox="0 0 365.69533 365.69533"
   height="365.69534pt">
  <metadata
     id="metadata10">
    <rdf:RDF>
      <cc:Work
         rdf:about="">
        <dc:format>image/svg+xml</dc:format>
        <dc:type
           rdf:resource="http://purl.org/dc/dcmitype/StillImage" />
      </cc:Work>
    </rdf:RDF>
  </metadata>
  <defs
     id="defs8" />
  <path
     id="path2"
     d="M 243.1875,182.85937 356.32031,69.726562 c 12.5,-12.5 12.5,-32.765624 0,-45.246093 L 341.23828,9.398438 c -12.50391,-12.503907 -32.76953,-12.503907 -45.25,0 L 182.85938,122.52734 69.726562,9.375 c -12.5,-12.5 -32.765624,-12.5 -45.246093,0 L 9.375,24.457031 c -12.5,12.503907 -12.5,32.769531 0,45.25 L 122.52734,182.85937 9.398438,295.98828 c -12.503907,12.50391 -12.503907,32.76953 0,45.25 l 15.082031,15.08203 c 12.5,12.5 32.765625,12.5 45.246093,0 L 182.85938,243.1875 295.98828,356.32031 c 12.50391,12.5 32.76953,12.5 45.25,0 l 15.08203,-15.08203 c 12.5,-12.50391 12.5,-32.76953 0,-45.25 z m 0,0" />
</svg>
