<svg width="29" height="29" viewBox="0 0 29 29" fill="none" xmlns="http://www.w3.org/2000/svg">
<path d="M20.735 0H8.265C3.72169 0 0 3.72169 0 8.265V20.735C0 25.2783 3.72169 29 8.265 29H20.735C25.2783 29 29 25.2783 29 20.735V8.265C29 3.72169 25.2783 0 20.735 0ZM28.0333 20.735C28.0333 24.7467 24.7466 28.0333 20.735 28.0333H8.265C4.25331 28.0333 0.966686 24.7466 0.966686 20.735V8.265C0.966686 4.25331 4.25337 0.966686 8.265 0.966686H20.735C24.7467 0.966686 28.0333 4.25337 28.0333 8.265V20.735Z" fill="black"/>
</svg>
