<?xml version="1.0" encoding="UTF-8" standalone="no"?>
<svg
   xmlns:dc="http://purl.org/dc/elements/1.1/"
   xmlns:cc="http://creativecommons.org/ns#"
   xmlns:rdf="http://www.w3.org/1999/02/22-rdf-syntax-ns#"
   xmlns:svg="http://www.w3.org/2000/svg"
   xmlns="http://www.w3.org/2000/svg"
   style="fill:none"
   id="svg12"
   version="1.1"
   viewBox="0 0 29 29"
   height="29"
   width="29">
  <metadata
     id="metadata18">
    <rdf:RDF>
      <cc:Work
         rdf:about="">
        <dc:format>image/svg+xml</dc:format>
        <dc:type
           rdf:resource="http://purl.org/dc/dcmitype/StillImage" />
      </cc:Work>
    </rdf:RDF>
  </metadata>
  <defs
     id="defs16" />
  <path
     style="fill:#000000"
     id="path2"
     d="M 20.735,0 H 8.265 C 3.72169,0 0,3.72169 0,8.265 v 12.47 C 0,25.2783 3.72169,29 8.265,29 h 12.47 C 25.2783,29 29,25.2783 29,20.735 V 8.265 C 29,3.72169 25.2783,0 20.735,0 Z m 7.2983,20.735 c 0,4.0117 -3.2867,7.2983 -7.2983,7.2983 H 8.265 c -4.01169,0 -7.298314,-3.2867 -7.298314,-7.2983 V 8.265 c 0,-4.01169 3.286684,-7.298314 7.298314,-7.298314 h 12.47 c 4.0117,0 7.2983,3.286684 7.2983,7.298314 z" />
  <path
     style="fill:#000000"
     id="path4"
     d="m 20.7349,2.89996 h -12.47 c -2.94831,0 -5.365,2.41669 -5.365,5.365 V 20.735 c 0,2.9483 2.41669,5.365 5.365,5.365 h 12.47 c 2.9483,0 5.365,-2.4167 5.365,-5.365 V 8.26496 c 0,-2.94831 -2.4167,-5.365 -5.365,-5.365 z M 25.1332,20.735 c 0,2.4166 -1.9817,4.3983 -4.3983,4.3983 h -12.47 c -2.41668,0 -4.39831,-1.9817 -4.39831,-4.3983 V 8.26496 c 0,-2.41668 1.98168,-4.39831 4.39831,-4.39831 h 12.47 c 2.4167,0 4.3983,1.98168 4.3983,4.39831 z" />
  <path
     style="fill:#000000"
     id="path6"
     d="m 14.4999,6.76672 c -4.2533,0 -7.7333,3.47998 -7.7333,7.73328 0,4.2534 3.48,7.7334 7.7333,7.7334 4.2533,0 7.7333,-3.48 7.7333,-7.7334 0,-4.2533 -3.48,-7.73328 -7.7333,-7.73328 z m 0,14.49998 c -3.7217,0 -6.76667,-3.045 -6.76667,-6.7667 0,-3.7216 3.04497,-6.76665 6.76667,-6.76665 3.7217,0 6.7667,3.04505 6.7667,6.76665 0,3.7217 -3.045,6.7667 -6.7667,6.7667 z" />
  <path
     style="fill:#000000"
     id="path8"
     d="m 14.5003,9.18329 c -2.9483,0 -5.31671,2.36831 -5.31671,5.31671 0,2.9483 2.36831,5.3167 5.31671,5.3167 2.9484,0 5.3167,-2.3684 5.3167,-5.3167 0,-2.9484 -2.3684,-5.31671 -5.3167,-5.31671 z m 0,9.66671 c -2.4167,0 -4.35,-1.9333 -4.35,-4.35 0,-2.4167 1.9333,-4.35 4.35,-4.35 2.4167,0 4.35,1.9333 4.35,4.35 0,2.4167 -1.9333,4.35 -4.35,4.35 z" />
  <path
     style="fill:#000000"
     id="path10"
     d="m 22.2332,5.31671 c -0.8217,0 -1.45,0.62832 -1.45,1.45 0,0.82169 0.6283,1.45 1.45,1.45 0.8217,0 1.45,-0.62831 1.45,-1.45 0,-0.82168 -0.6283,-1.45 -1.45,-1.45 z" />
</svg>
