<svg width="29" height="29" viewBox="0 0 29 29" fill="none" xmlns="http://www.w3.org/2000/svg">
<path d="M26.5833 0H2.41669C1.06331 0 0 1.06331 0 2.41669V26.5834C0 27.9367 1.06331 29 2.41669 29H13.5334H19.3334H26.5834C27.9367 29 29 27.9367 29 26.5833V2.41669C29 1.06331 27.9367 0 26.5833 0ZM14.5 28.0333V18.3667H10.6333V14.5H14.5V11.1167C14.5 8.36169 16.6267 6.04169 19.3333 5.8H23.6833V9.66669H19.8166C18.9949 9.66669 18.3666 10.295 18.3666 11.1167V14.5H23.2V18.3667H18.3667V28.0334H14.5V28.0333ZM28.0333 26.5833C28.0333 27.405 27.405 28.0333 26.5833 28.0333H19.3333V19.3333H24.1666V13.5333H19.3333V11.1166C19.3333 10.8266 19.5266 10.6333 19.8166 10.6333H24.65V4.83331H19.285C16.0467 5.12331 13.5333 7.87831 13.5333 11.1166V13.5333H9.66663V19.3333H13.5333V28.0333H2.41669C1.595 28.0333 0.966686 27.405 0.966686 26.5833V2.41669C0.966686 1.595 1.595 0.966686 2.41669 0.966686H26.5834C27.4051 0.966686 28.0334 1.595 28.0334 2.41669V26.5833H28.0333Z" fill="black"/>
</svg>
