<?xml version="1.0" encoding="UTF-8" standalone="no"?>
<svg
   xmlns:dc="http://purl.org/dc/elements/1.1/"
   xmlns:cc="http://creativecommons.org/ns#"
   xmlns:rdf="http://www.w3.org/1999/02/22-rdf-syntax-ns#"
   xmlns:svg="http://www.w3.org/2000/svg"
   xmlns="http://www.w3.org/2000/svg"
   id="svg14"
   version="1.1"
   width="469.33173"
   viewBox="0 0 21.999925 24.021169"
   height="512.4516"
   enable-background="new 0 0 24 24">
  <metadata
     id="metadata20">
    <rdf:RDF>
      <cc:Work
         rdf:about="">
        <dc:format>image/svg+xml</dc:format>
        <dc:type
           rdf:resource="http://purl.org/dc/dcmitype/StillImage" />
      </cc:Work>
    </rdf:RDF>
  </metadata>
  <defs
     id="defs18" />
  <g
     transform="translate(-1.3798034,0.01320814)"
     style="fill:#8e24aa"
     id="g12">
    <path
       id="path2"
       d="M 23.155,13.893 C 23.871,7.866 22.811,4.061 20.899,2.34 L 20.9,2.339 C 17.814,-0.6 7.392,-1.035 3.7,2.471 2.042,4.186 1.458,6.703 1.394,9.819 1.33,12.936 1.254,18.775 6.695,20.359 H 6.7 l -0.005,2.419 c 0,0 -0.037,0.98 0.589,1.177 0.716,0.232 1.04,-0.223 3.267,-2.883 3.724,0.323 6.584,-0.417 6.909,-0.525 0.752,-0.252 5.007,-0.815 5.695,-6.654 z M 10.918,19.37 c 0,0 -2.357,2.939 -3.09,3.702 -0.24,0.248 -0.503,0.225 -0.499,-0.267 0,-0.323 0.018,-4.016 0.018,-4.016 C 2.734,17.467 3.006,12.495 3.056,9.894 3.106,7.292 3.582,5.161 4.986,3.726 8.225,0.689 17.362,1.368 19.69,3.556 c 2.846,2.523 1.833,9.651 1.839,9.894 -0.585,4.874 -4.033,5.183 -4.667,5.394 -0.271,0.09 -2.786,0.737 -5.944,0.526 z" />
    <path
       id="path4"
       d="m 12.222,4.297 c -0.385,0 -0.385,0.6 0,0.605 2.987,0.023 5.447,2.105 5.474,5.924 0,0.403 0.59,0.398 0.585,-0.005 H 18.28 C 18.248,6.706 15.562,4.32 12.222,4.297 Z" />
    <path
       id="path6"
       d="m 16.151,10.193 c -0.009,0.398 0.58,0.417 0.585,0.014 0.049,-2.269 -1.35,-4.138 -3.979,-4.335 -0.385,-0.028 -0.425,0.577 -0.041,0.605 2.28,0.173 3.481,1.729 3.435,3.716 z" />
    <path
       id="path8"
       d="m 15.521,12.774 c -0.494,-0.286 -0.997,-0.108 -1.205,0.173 l -0.435,0.563 c -0.221,0.286 -0.634,0.248 -0.634,0.248 -3.014,-0.797 -3.82,-3.951 -3.82,-3.951 0,0 -0.037,-0.427 0.239,-0.656 L 10.21,8.701 C 10.482,8.485 10.654,7.965 10.377,7.454 9.637,6.117 9.14,5.656 8.887,5.302 8.621,4.969 8.221,4.894 7.805,5.119 H 7.796 C 6.931,5.625 5.984,6.572 6.287,7.547 c 0.517,1.028 1.467,4.305 4.495,6.781 1.423,1.171 3.675,2.371 4.631,2.648 l 0.009,0.014 c 0.942,0.314 1.858,-0.67 2.347,-1.561 v -0.007 c 0.217,-0.431 0.145,-0.839 -0.172,-1.106 -0.562,-0.548 -1.41,-1.153 -2.076,-1.542 z" />
    <path
       id="path10"
       d="m 13.169,8.104 c 0.961,0.056 1.427,0.558 1.477,1.589 0.018,0.403 0.603,0.375 0.585,-0.028 C 15.167,8.319 14.465,7.569 13.201,7.499 12.816,7.476 12.78,8.081 13.169,8.104 Z" />
  </g>
</svg>
