<?xml version="1.0" encoding="UTF-8" standalone="no"?>
<svg
   xmlns:dc="http://purl.org/dc/elements/1.1/"
   xmlns:cc="http://creativecommons.org/ns#"
   xmlns:rdf="http://www.w3.org/1999/02/22-rdf-syntax-ns#"
   xmlns:svg="http://www.w3.org/2000/svg"
   xmlns="http://www.w3.org/2000/svg"
   id="svg13"
   version="1.1"
   width="513.47522"
   viewBox="0 0 24.069151 24.073877"
   height="513.57605"
   enable-background="new 0 0 24 24">
  <metadata
     id="metadata19">
    <rdf:RDF>
      <cc:Work
         rdf:about="">
        <dc:format>image/svg+xml</dc:format>
        <dc:type
           rdf:resource="http://purl.org/dc/dcmitype/StillImage" />
      </cc:Work>
    </rdf:RDF>
  </metadata>
  <defs
     id="defs17" />
  <linearGradient
     y2="-84.046997"
     y1="-72.705002"
     x2="-26.555"
     x1="-37.105999"
     gradientUnits="userSpaceOnUse"
     gradientTransform="matrix(0,-1.982,-1.844,0,-132.45198,-51.038624)"
     id="SVGID_1_">
    <stop
       id="stop2"
       stop-color="#fd5"
       offset="0" />
    <stop
       id="stop4"
       stop-color="#ff543e"
       offset=".5" />
    <stop
       id="stop6"
       stop-color="#c837ab"
       offset="1" />
  </linearGradient>
  <path
     style="fill:url(#SVGID_1_)"
     id="path9"
     d="m 1.5700235,1.6713765 c -1.88600004,1.959 -1.50000004,4.04 -1.50000004,10.3619995 0,5.25 -0.916,10.513 3.87800004,11.752 1.497,0.385 14.7609995,0.385 16.2559995,-0.002 1.996,-0.515 3.62,-2.134 3.842,-4.957 0.031,-0.394 0.031,-13.1849995 -0.001,-13.5869995 -0.236,-3.007 -2.087,-4.74000004 -4.526,-5.09100004 -0.559,-0.081 -0.671,-0.105 -3.539,-0.11 -10.1729995,0.005 -12.4029995,-0.448 -14.4099995,1.63300004 z" />
  <path
     style="fill:#ffffff"
     id="path11"
     d="m 12.068023,3.1773765 c -3.6309995,0 -7.0789995,-0.323 -8.3959995,3.057 -0.544,1.396 -0.465,3.209 -0.465,5.8049995 0,2.278 -0.073,4.419 0.465,5.804 1.314,3.382 4.79,3.058 8.3939995,3.058 3.477,0 7.062,0.362 8.395,-3.058 0.545,-1.41 0.465,-3.196 0.465,-5.804 0,-3.4619995 0.191,-5.6969995 -1.488,-7.3749995 -1.7,-1.7 -3.999,-1.487 -7.374,-1.487 z m -0.794,1.597 c 7.574,-0.012 8.538,-0.854 8.006,10.8429995 -0.189,4.137 -3.339,3.683 -7.211,3.683 -7.0599995,0 -7.2629995,-0.202 -7.2629995,-7.265 0,-7.1449995 0.56,-7.2569995 6.4679995,-7.2629995 z m 5.524,1.471 c -0.587,0 -1.063,0.476 -1.063,1.063 0,0.587 0.476,1.063 1.063,1.063 0.587,0 1.063,-0.476 1.063,-1.063 0,-0.587 -0.476,-1.063 -1.063,-1.063 z m -4.73,1.243 c -2.5129995,0 -4.5499995,2.038 -4.5499995,4.5509995 0,2.513 2.037,4.55 4.5499995,4.55 2.513,0 4.549,-2.037 4.549,-4.55 0,-2.5129995 -2.036,-4.5509995 -4.549,-4.5509995 z m 0,1.597 c 3.905,0 3.91,5.9079995 0,5.9079995 -3.9039995,0 -3.9099995,-5.9079995 0,-5.9079995 z" />
</svg>
