<?xml version="1.0" encoding="UTF-8" standalone="no"?>
<svg
   xmlns:dc="http://purl.org/dc/elements/1.1/"
   xmlns:cc="http://creativecommons.org/ns#"
   xmlns:rdf="http://www.w3.org/1999/02/22-rdf-syntax-ns#"
   xmlns:svg="http://www.w3.org/2000/svg"
   xmlns="http://www.w3.org/2000/svg"
   style="fill:none"
   version="1.1"
   enable-background="new 0 0 24 24"
   id="Bold"
   viewBox="0 0 23.999994 24.000421"
   height="512.00897"
   width="511.99988">
  <metadata
     id="metadata13">
    <rdf:RDF>
      <cc:Work
         rdf:about="">
        <dc:format>image/svg+xml</dc:format>
        <dc:type
           rdf:resource="http://purl.org/dc/dcmitype/StillImage" />
      </cc:Work>
    </rdf:RDF>
  </metadata>
  <defs
     id="defs11" />
  <path
     id="path2"
     d="m 12.004227,5.8373867 c -3.4029997,0 -6.1579997,2.758 -6.1579997,6.1580003 0,3.403 2.758,6.158 6.1579997,6.158 3.403,0 6.158,-2.758 6.158,-6.158 0,-3.4030003 -2.758,-6.1580003 -6.158,-6.1580003 z m 0,10.1550003 c -2.2089997,0 -3.9969997,-1.789 -3.9969997,-3.997 0,-2.2080003 1.789,-3.9970003 3.9969997,-3.9970003 2.208,0 3.997,1.789 3.997,3.9970003 0.001,2.208 -1.788,3.997 -3.997,3.997 z" />
  <path
     id="path4"
     d="m 16.948227,0.07538666 c -2.208,-0.103 -7.6769997,-0.098 -9.8869997,0 -1.942,0.091 -3.655,0.56 -5.036,1.94100004 -2.30800004,2.308 -2.01300004,5.418 -2.01300004,9.9790003 0,4.668 -0.26,7.706 2.01300004,9.979 2.317,2.316 5.472,2.013 9.9789997,2.013 4.624,0 6.22,0.003 7.855,-0.63 2.223,-0.863 3.901,-2.85 4.065,-6.419 0.104,-2.209 0.098,-7.6770003 0,-9.8870003 -0.198,-4.213 -2.459,-6.76800004 -6.976,-6.97600004 z m 3.495,20.37200034 c -1.513,1.513 -3.612,1.378 -8.468,1.378 -4.9999997,0 -7.0049997,0.074 -8.4679997,-1.393 -1.685,-1.677 -1.38,-4.37 -1.38,-8.453 0,-5.5250003 -0.567,-9.5040003 4.978,-9.7880003 1.274,-0.045 1.649,-0.06 4.8559997,-0.06 l 0.045,0.03 c 5.329,0 9.51,-0.558 9.761,4.986 0.057,1.265 0.07,1.645 0.07,4.8470003 -10e-4,4.942 0.093,6.959 -1.394,8.453 z" />
  <circle
     id="circle6"
     r="1.439"
     cy="5.5943866"
     cx="18.406227" />
</svg>
