<svg width="44" height="22" viewBox="0 0 44 22" fill="none" xmlns="http://www.w3.org/2000/svg">
<path d="M43.0243 7.41987L22.4983 0.0865343C22.1742 -0.0278682 21.8206 -0.0278682 21.4965 0.0865343L0.975666 7.41987C0.394044 7.62952 0.00634766 8.18138 0.00634766 8.79963C0.00634766 9.41789 0.394044 9.96975 0.975666 10.1794L11.0003 13.761V18.3333C11.0003 21.1845 20.8747 21.2667 22.0003 21.2667C23.126 21.2667 33.0003 21.1845 33.0003 18.3333V13.761L35.2003 12.98V14.6667C35.2003 15.4767 35.857 16.1333 36.667 16.1333H38.1337C38.9437 16.1333 39.6003 15.4767 39.6003 14.6667V12.4667C39.5981 12.1271 39.5163 11.7928 39.3613 11.4906L43.0279 10.1794C43.6096 9.96975 43.9973 9.41789 43.9973 8.79963C43.9973 8.18138 43.6096 7.62952 43.0279 7.41987H43.0243ZM31.5337 16.72C28.7404 15.4484 22.8547 15.4 22.0003 15.4C21.146 15.4 15.2603 15.4484 12.467 16.72V10.3312C12.907 9.76653 16.3654 8.8 22.0003 8.8C27.6353 8.8 31.0937 9.76653 31.5337 10.3312V16.72ZM22.0003 19.8C16.5737 19.8 13.1659 18.9039 12.5286 18.3333C13.1659 17.7628 16.5751 16.8667 22.0003 16.8667C27.4255 16.8667 30.8348 17.7628 31.4721 18.3333C30.8348 18.9039 27.427 19.8 22.0003 19.8ZM35.5443 11.297L33.0003 12.2041V10.2667C33.0003 7.41547 23.126 7.33333 22.0003 7.33333C20.8747 7.33333 11.0003 7.41547 11.0003 10.2667V12.2034L1.467 8.8L22.0106 1.46667L36.667 6.70413V10.4016C36.2033 10.5664 35.8081 10.8816 35.5443 11.297ZM38.1337 14.6667H36.667V12.4667C36.667 12.0617 36.9953 11.7333 37.4003 11.7333C37.8053 11.7333 38.1337 12.0617 38.1337 12.4667V14.6667ZM38.1337 10.3723V7.22847L42.5337 8.8L38.1337 10.3723Z" fill="black"/>
</svg>
