<svg width="18" height="13" viewBox="0 0 18 13" fill="none" xmlns="http://www.w3.org/2000/svg">
<path d="M8.50017 0.744141C8.32975 0.744141 8.1663 0.811841 8.0458 0.932347C7.92529 1.05285 7.85759 1.2163 7.85759 1.38672V3.86523H6.43474C5.87799 3.86523 5.37908 4.31825 5.37908 4.875V6.74206C3.45134 6.93676 1.89869 8.01372 1.1208 9.0278C0.728186 9.53984 0.204025 10.9807 0.100662 11.2642C0.0662474 11.3618 0.0558303 11.4662 0.0702905 11.5687C0.0847506 11.6711 0.123664 11.7685 0.18374 11.8528C0.244132 11.9376 0.323935 12.0067 0.416491 12.0544C0.509047 12.1021 0.611669 12.127 0.715793 12.127H16.6589C16.7623 12.127 16.8641 12.1021 16.9558 12.0543C17.0474 12.0066 17.1263 11.9374 17.1855 11.8528C17.2448 11.7681 17.2827 11.6703 17.2961 11.5679C17.3096 11.4654 17.2981 11.3612 17.2626 11.2641C17.1592 10.9804 16.6007 9.53966 16.208 9.02762C15.4303 8.01445 13.7326 6.93015 11.6213 6.74031V4.875C11.6213 4.31825 11.2141 3.86523 10.6574 3.86523H9.14275V1.38672C9.14275 1.2163 9.07505 1.05285 8.95454 0.932347C8.83403 0.811841 8.67059 0.744141 8.50017 0.744141ZM15.2112 9.81C15.332 9.96762 15.5292 10.3919 15.7171 10.8418H1.65763C1.84545 10.392 2.04253 9.9678 2.16352 9.81C2.8363 8.93306 4.21491 7.99609 6.06755 7.99609H11.0319C12.8623 7.99609 14.5198 8.90856 15.2112 9.81ZM10.3361 6.71094H6.66423V5.15039H10.3361V6.71094Z" fill="black"/>
</svg>
