<svg width="44" height="22" viewBox="0 0 44 22" fill="none" xmlns="http://www.w3.org/2000/svg">
<path d="M41.8 0.733279C41.756 0.733149 41.712 0.737078 41.6687 0.745013C35.1621 1.7566 28.5847 2.24314 22 2.19995C15.4153 2.24314 8.83789 1.7566 2.33127 0.745013C2.28789 0.737614 2.244 0.73369 2.2 0.733279C1.68667 0.733279 0 1.31481 0 8.79995C0 16.2851 1.68667 16.8666 2.2 16.8666C2.24404 16.8657 2.28793 16.8613 2.33127 16.8534C7.33091 16.0615 12.3775 15.6014 17.4379 15.4762L16.0065 18.9097C15.7865 19.4595 15.9202 20.0876 16.345 20.5002C16.7698 20.9127 17.4015 21.028 17.9447 20.7922L18.5057 20.5524L18.7484 21.1104C18.9777 21.6515 19.5093 22.0022 20.097 22H20.1153C20.7074 21.9953 21.2382 21.6339 21.4595 21.0848L22.7333 18.0356L24.0027 21.073C24.2221 21.6274 24.7552 21.9938 25.3513 22H25.3733C25.957 22.0023 26.4858 21.656 26.7168 21.12L26.9617 20.5575L27.5139 20.7944C28.0594 21.0351 28.6965 20.9204 29.1237 20.5045C29.5509 20.0886 29.6826 19.4548 29.4565 18.9031L28.0529 15.5371C32.6154 15.6986 37.1638 16.1395 41.6724 16.8571C41.7146 16.8641 41.7573 16.8673 41.8 16.8666C42.3133 16.8666 44 16.2851 44 8.79995C44 1.31481 42.3133 0.733279 41.8 0.733279ZM24.3467 3.64461C24.6512 4.76439 24.8286 5.91491 24.8754 7.07441C23.2126 6.30124 21.2625 6.4825 19.7707 7.54888C19.7332 6.23199 19.5644 4.92213 19.2669 3.63875C20.1552 3.65733 21.0662 3.66661 22 3.66661C22.8015 3.66661 23.5796 3.65781 24.3467 3.64461ZM22.7333 15.4C20.7083 15.4 19.0667 13.7583 19.0667 11.7333C19.0667 9.70824 20.7083 8.06662 22.7333 8.06662C24.7584 8.06662 26.4 9.70824 26.4 11.7333C26.3976 13.7573 24.7574 15.3975 22.7333 15.4ZM2.2 2.56661C2.76189 4.59464 3.00922 6.69689 2.93333 8.79995C3.00922 10.903 2.76189 13.0053 2.2 15.0333C1.63811 13.0053 1.39078 10.903 1.46667 8.79995C1.39078 6.69689 1.63811 4.59464 2.2 2.56661ZM3.68133 15.1579C4.08247 13.9949 4.4 12.0486 4.4 8.79995C4.4 5.55128 4.08247 3.60501 3.6806 2.44048C8.34063 3.08407 13.0325 3.4716 17.7349 3.60135C18.1748 5.29803 18.3762 7.0477 18.3333 8.79995C18.3333 8.90628 18.3333 9.00748 18.3289 9.10942C17.4489 10.5699 17.3602 12.3745 18.0928 13.9142L18.0605 13.992C13.2493 14.1099 8.44858 14.4997 3.68133 15.1594V15.1579ZM20.0985 20.5333L19.5631 19.3013C19.4021 18.9314 18.9725 18.761 18.6017 18.92L17.3675 19.4656L19.0872 15.3428C19.7932 16.0582 20.6939 16.5503 21.6773 16.7581L20.0985 20.5333ZM26.8649 18.92C26.4941 18.761 26.0645 18.9314 25.9035 19.3013L25.3609 20.5208L23.7886 16.7566C24.7728 16.5488 25.6742 16.0564 26.3809 15.3406L28.0969 19.4472L26.8649 18.92ZM41.6533 15.3633C36.9419 14.6382 32.1911 14.1974 27.4267 14.0433L27.3746 13.9172C28.2968 11.9738 27.9015 9.66077 26.3861 8.13408C26.3804 6.61326 26.2048 5.09783 25.8625 3.61601C31.1504 3.49761 36.4251 3.0366 41.6533 2.23588C41.9936 2.81375 42.5333 5.09955 42.5333 8.79995C42.5333 12.5003 41.9899 14.7854 41.6533 15.3633Z" fill="black"/>
</svg>
