<svg width="44" height="44" viewBox="0 0 44 44" fill="none" xmlns="http://www.w3.org/2000/svg">
<path d="M43.9863 10.4418C43.9852 10.3549 43.9759 10.2683 43.9587 10.1832C43.9504 10.1556 43.9404 10.1285 43.9287 10.1021C43.9043 10.0438 43.8723 9.98897 43.8337 9.93906C43.8227 9.92463 43.8192 9.9071 43.807 9.89327C43.8005 9.88588 43.7911 9.88322 43.7844 9.87626C43.7309 9.82059 43.6688 9.77377 43.6005 9.73778C43.5894 9.73193 43.5806 9.72206 43.5691 9.71681L43.5665 9.7151C43.4726 9.67146 34.1309 5.34701 32.0483 3.26451C31.8886 3.1049 31.7304 2.94055 31.5708 2.77552C30.7737 1.83122 29.7897 1.06235 28.6808 0.517258C26.3943 -0.514756 23.7041 0.0305884 22 1.87151C20.2962 0.0299012 17.6055 -0.515529 15.3191 0.517172C14.2101 1.06226 13.2261 1.83122 12.429 2.77552C12.2694 2.94055 12.1111 3.10481 11.9515 3.26451C9.86963 5.34633 0.527117 9.67146 0.433391 9.7151L0.429697 9.71759C0.422051 9.7212 0.416038 9.7279 0.408478 9.73176C0.336487 9.76879 0.271197 9.81776 0.215356 9.87643C0.20857 9.88339 0.199378 9.88597 0.192849 9.89327C0.180564 9.90702 0.177213 9.92471 0.166131 9.93915C0.127558 9.98897 0.0956865 10.0436 0.0712886 10.1017C0.0595191 10.1282 0.049382 10.1555 0.040963 10.1833C0.0252418 10.2423 0.0169946 10.3031 0.0165651 10.3643C0.0140737 10.3901 0.0130428 10.4159 0.0133865 10.4418C0.0141597 10.4501 0.0114106 10.458 0.0124415 10.4664C0.0218055 10.5447 0.043798 10.6211 0.0775599 10.6924C0.0806525 10.6991 0.0865802 10.7042 0.0899306 10.7109C0.127129 10.7828 0.176096 10.8481 0.234858 10.904C0.242332 10.9112 0.245167 10.9212 0.252984 10.9282C1.51798 12.0802 2.72241 13.2971 3.86138 14.574C3.23108 15.42 2.90531 16.4542 2.93693 17.5088C2.94122 17.5693 2.95325 17.629 2.97275 17.6864C2.95531 17.7394 2.94423 17.7943 2.93976 17.8499V32.4746C2.48771 32.7344 2.20842 33.2154 2.20671 33.7368V43.2669C2.20662 43.4613 2.28385 43.6478 2.42139 43.7853C2.55884 43.9228 2.74535 44 2.93985 44H13.203C13.3974 44.0001 13.5839 43.9229 13.7215 43.7853C13.8589 43.6479 13.9362 43.4614 13.9362 43.2669V33.7368C13.9345 33.2154 13.6551 32.7344 13.2031 32.4746V25.7597C13.7042 25.8603 14.214 25.912 14.7252 25.9138C15.247 25.9136 15.7675 25.8625 16.2794 25.7613C18.162 25.3553 20.0765 25.1148 22.0009 25.0425L22.0025 25.0421C23.9259 25.1148 25.8393 25.3553 27.721 25.7608C28.2332 25.8637 28.7543 25.9156 29.2766 25.9158C32.8156 25.9656 35.899 23.5137 36.6475 20.0544C37.2088 17.2477 41.9624 12.5148 43.7464 10.9285C43.7541 10.9216 43.7569 10.9119 43.7642 10.9048C43.8235 10.8487 43.873 10.783 43.9105 10.7105C43.9136 10.7042 43.9193 10.6992 43.9223 10.6928C43.9562 10.6213 43.9782 10.5449 43.9877 10.4664C43.9883 10.458 43.9856 10.4501 43.9863 10.4418ZM12.9881 4.30108C13.1535 4.13571 13.3181 3.96535 13.4835 3.79388C14.1474 2.99794 14.9644 2.34358 15.8861 1.86954C17.8596 0.968362 20.1954 1.64085 21.3876 3.45334L21.3878 3.45368L21.39 3.45635C21.4173 3.48908 21.4475 3.51923 21.4805 3.54646C21.5136 3.58839 21.5515 3.62636 21.5933 3.65969L21.5945 3.66012C21.6747 3.71321 21.7646 3.75007 21.8591 3.76837C21.9529 3.76948 22.0468 3.76948 22.1407 3.76837C22.235 3.74998 22.3248 3.7133 22.405 3.66029L22.4065 3.65969C22.4551 3.62232 22.4985 3.57868 22.5358 3.53006C22.5624 3.50738 22.5871 3.48281 22.6099 3.45635L22.6119 3.45368L22.6122 3.45334C23.8044 1.64076 26.1402 0.968362 28.1137 1.86954C29.0354 2.34358 29.8524 2.99794 30.5163 3.79388C30.6816 3.96535 30.8463 4.13571 31.0117 4.30108C32.6476 5.93694 37.9395 8.63154 40.904 10.072C38.052 10.6231 35.1644 10.9712 32.2631 11.1136C30.5828 11.0307 28.9274 10.6719 27.3635 10.0515C25.6505 9.37954 23.8383 8.99527 22 8.91435C20.1618 8.99536 18.3494 9.37963 16.6365 10.0515C15.0727 10.6719 13.4173 11.0307 11.7369 11.1136C8.83564 10.9712 5.94809 10.6231 3.09603 10.072C6.06106 8.63119 11.3523 5.93694 12.9881 4.30108ZM32.0375 12.5717C30.2653 13.4082 28.3532 13.9081 26.3983 14.046H21.9999H17.6014C15.6472 13.9077 13.7357 13.4077 11.9642 12.5716C13.7237 12.4593 15.4557 12.0785 17.1003 11.4426C18.6641 10.8223 20.3195 10.4634 21.9999 10.3806C23.6802 10.4635 25.3356 10.8223 26.8994 11.4426C28.5446 12.0788 30.2773 12.4596 32.0375 12.5717ZM12.4698 42.5338H3.67281L3.67204 33.7368H12.4698V42.5338ZM5.31967 15.1591L5.32938 15.1534C5.33402 15.1495 5.33565 15.1436 5.34021 15.1397C5.42766 15.0685 5.52113 15.0051 5.61941 14.9498C7.11137 14.1043 9.49026 15.3002 10.8147 17.5614C11.33 18.4197 11.6419 19.3846 11.7268 20.3821C11.724 20.4253 11.7252 20.4689 11.7304 20.512C11.7368 20.5656 11.7404 20.6195 11.7411 20.6735C11.7406 20.6835 11.7424 20.6935 11.7423 20.7036C11.7404 20.7253 11.7297 20.7441 11.7297 20.7662C11.7295 20.8003 11.7319 20.8342 11.7368 20.8679V32.2707H4.40587V17.8499C4.40157 17.7894 4.38955 17.7296 4.37004 17.6723C4.38748 17.6192 4.39857 17.5644 4.40303 17.5088C4.34505 16.6284 4.68086 15.7677 5.31967 15.1591ZM35.2097 19.7667C34.4746 23.0102 31.2543 25.0478 28.0084 24.3234C26.032 23.8945 24.0211 23.6443 21.9999 23.576L21.998 23.5764C19.9779 23.6448 17.9681 23.8949 15.9927 24.3233C15.0687 24.5031 14.1165 24.4786 13.2029 24.2516V20.7661L13.2006 20.7532C13.2011 20.7418 13.2072 20.7324 13.2072 20.721V20.7002C13.2072 20.6118 13.2035 20.5262 13.1964 20.4392C13.1964 20.4213 13.1964 20.4034 13.1956 20.3851C13.1141 19.1242 12.7311 17.9011 12.0788 16.8188C10.3505 13.8695 7.18921 12.4634 4.98566 13.6313C4.29934 12.8547 3.61783 12.1431 3.02558 11.5494C4.49779 11.8072 6.43038 12.1181 8.26701 12.3313C8.31632 12.3909 8.37491 12.4422 8.44054 12.483C8.65677 12.6069 13.7847 15.5119 17.6012 15.5119H26.3982C30.2146 15.5119 35.3427 12.6068 35.5588 12.483C35.6245 12.4421 35.683 12.3909 35.7323 12.3313C37.5672 12.1184 39.4979 11.8078 40.9696 11.5502C38.9012 13.6223 35.7341 17.1449 35.2097 19.7667Z" fill="black"/>
</svg>
