<svg width="43" height="23" viewBox="0 0 43 23" fill="none" xmlns="http://www.w3.org/2000/svg">
<path d="M41.1904 3.25391H9.8418V1.32617C9.8418 0.769424 9.43468 0.316406 8.87793 0.316406H3.09473C2.53798 0.316406 2.03906 0.769424 2.03906 1.32617V3.25391H1.80957C1.25282 3.25391 0.753906 3.70692 0.753906 4.26367V5.73242C0.753906 6.28917 1.25282 6.74219 1.80957 6.74219H15.0742V12.4336H10.5303C9.97353 12.4336 9.47461 12.8866 9.47461 13.4434V16.8272C8.97297 16.9506 8.51613 17.2125 8.15622 17.5831C7.79632 17.9537 7.54784 18.418 7.43917 18.923C7.33049 19.428 7.36599 19.9534 7.54161 20.4393C7.71722 20.9251 8.02589 21.3517 8.43237 21.6706C8.83885 21.9894 9.32677 22.1875 9.84045 22.2423C10.3541 22.2971 10.8729 22.2063 11.3374 21.9805C11.802 21.7546 12.1938 21.4026 12.4679 20.9648C12.7421 20.5269 12.8876 20.0208 12.8879 19.5042C12.8978 18.8807 12.6911 18.273 12.303 17.7848C11.9149 17.2966 11.3695 16.9581 10.7598 16.8272V15.9219H32.1484V16.8272C31.6468 16.9506 31.19 17.2125 30.8301 17.5831C30.4701 17.9537 30.2217 18.418 30.113 18.923C30.0043 19.428 30.0398 19.9534 30.2154 20.4393C30.3911 20.9251 30.6997 21.3517 31.1062 21.6706C31.5127 21.9894 32.0006 22.1875 32.5143 22.2423C33.028 22.2971 33.5467 22.2063 34.0113 21.9805C34.4759 21.7546 34.8676 21.4026 35.1417 20.9648C35.4159 20.5269 35.5614 20.0208 35.5617 19.5042C35.5717 18.8807 35.3649 18.273 34.9769 17.7848C34.5888 17.2966 34.0433 16.9581 33.4336 16.8272V13.4434C33.4336 12.8866 33.0265 12.4336 32.4697 12.4336H27.834V6.74219H41.1904C41.7472 6.74219 42.1543 6.28917 42.1543 5.73242V4.26367C42.1543 3.70692 41.7472 3.25391 41.1904 3.25391ZM3.32422 1.60156H8.55664V3.25391H3.32422V1.60156ZM11.6085 19.5042C11.6096 19.6964 11.5728 19.887 11.5001 20.0649C11.4274 20.2428 11.3204 20.4046 11.185 20.5411C11.0496 20.6776 10.8887 20.7859 10.7114 20.8601C10.534 20.9342 10.3438 20.9726 10.1516 20.973C9.76045 20.9732 9.38501 20.8191 9.10685 20.5441C8.8287 20.269 8.67029 19.8954 8.66606 19.5042C8.66916 19.232 8.74598 18.9656 8.88834 18.7335C9.03071 18.5014 9.23331 18.3121 9.47461 18.186V18.9512C9.47461 19.1216 9.54231 19.285 9.66282 19.4055C9.78332 19.526 9.94676 19.5938 10.1172 19.5938C10.2876 19.5938 10.4511 19.526 10.5716 19.4055C10.6921 19.285 10.7598 19.1216 10.7598 18.9512V18.186C11.0177 18.2946 11.2367 18.4785 11.3882 18.7138C11.5397 18.949 11.6165 19.2246 11.6085 19.5042ZM34.2823 19.5042C34.2835 19.6964 34.2466 19.887 34.1739 20.0649C34.1013 20.2428 33.9942 20.4046 33.8588 20.5411C33.7235 20.6776 33.5625 20.7859 33.3852 20.8601C33.2079 20.9342 33.0176 20.9726 32.8254 20.973C32.4343 20.9732 32.0588 20.8191 31.7807 20.5441C31.5025 20.269 31.3441 19.8954 31.3399 19.5042C31.343 19.232 31.4198 18.9656 31.5622 18.7335C31.7045 18.5014 31.9071 18.3122 32.1484 18.186V18.9512C32.1484 19.1216 32.2161 19.285 32.3366 19.4055C32.4572 19.526 32.6206 19.5938 32.791 19.5938C32.9614 19.5938 33.1249 19.526 33.2454 19.4055C33.3659 19.285 33.4336 19.1216 33.4336 18.9512V18.186C33.6915 18.2946 33.9106 18.4785 34.062 18.7138C34.2135 18.949 34.2903 19.2246 34.2823 19.5042ZM32.1484 14.6367H10.7598V13.7188H32.1484V14.6367ZM26.5488 12.4336H16.3594V6.74219H26.5488V12.4336ZM40.8691 5.45703H2.03906V4.53906H40.8691V5.45703Z" fill="black"/>
</svg>
