<?xml version="1.0" encoding="UTF-8" standalone="no"?>
<svg
   xmlns:dc="http://purl.org/dc/elements/1.1/"
   xmlns:cc="http://creativecommons.org/ns#"
   xmlns:rdf="http://www.w3.org/1999/02/22-rdf-syntax-ns#"
   xmlns:svg="http://www.w3.org/2000/svg"
   xmlns="http://www.w3.org/2000/svg"
   height="511.99899"
   width="356.0481"
   xml:space="preserve"
   viewBox="0 0 353.11 507.774"
   y="0px"
   x="0px"
   id="Capa_1"
   version="1.1"><metadata
   id="metadata39"><rdf:RDF><cc:Work
       rdf:about=""><dc:format>image/svg+xml</dc:format><dc:type
         rdf:resource="http://purl.org/dc/dcmitype/StillImage" /></cc:Work></rdf:RDF></metadata><defs
   id="defs37" />
<g
   transform="translate(-77.333)"
   id="g32">
	<g
   id="g4">
		
			<ellipse
   id="ellipse2"
   ry="153.32001"
   rx="38.224998"
   cy="462.04901"
   cx="253.888"
   style="fill:#d0cfd1"
   transform="matrix(0.0026,-1,1,0.0026,-208.8293,714.7164)" />
	</g>
	<g
   id="g8">
		<path
   id="path6"
   d="m 253.99,423.824 c -4.431,-0.012 -8.814,0.026 -13.149,0.107 80.08,1.478 143.42,18.237 143.366,38.522 -0.054,20.006 -61.749,36.257 -140.272,37.713 3.258,0.06 6.54,0.098 9.851,0.107 84.676,0.223 153.365,-16.709 153.422,-37.82 0.057,-21.111 -68.542,-38.406 -153.218,-38.629 z"
   style="fill:#646464" />
	</g>
	<g
   id="g12">
		<path
   id="path10"
   d="m 422.942,176.554 c 0,179.671 -169.055,280.181 -169.055,280.181 0,0 -169.054,-114.287 -169.054,-280.181 C 84.833,83.188 160.521,7.5 253.888,7.5 c 93.367,0 169.054,75.688 169.054,169.054 z"
   style="fill:#4890e3" />
	</g>
	<g
   id="g16">
		<path
   id="path14"
   d="m 253.888,7.5 c -3.866,0 -7.699,0.142 -11.5,0.397 88.001,5.913 155.554,79.157 155.554,168.657 0,150.267 -116.248,245.162 -154.952,272.198 6.845,5.243 10.898,7.983 10.898,7.983 0,0 169.054,-100.511 169.054,-280.181 C 422.942,83.188 347.254,7.5 253.888,7.5 Z"
   style="fill:#2970d6" />
	</g>
	<g
   id="g20">
		<circle
   id="circle18"
   r="65.824997"
   cy="173.425"
   cx="253.888"
   style="fill:#fff4f1" />
	</g>
	<g
   id="g24">
		<path
   id="path22"
   d="m 253.888,107.601 c -3.925,0 -7.764,0.363 -11.5,1.022 30.868,5.442 54.324,32.374 54.324,64.803 0,32.429 -23.457,59.36 -54.324,64.803 3.736,0.659 7.575,1.022 11.5,1.022 36.354,0 65.824,-29.471 65.824,-65.825 0,-36.355 -29.471,-65.825 -65.824,-65.825 z"
   style="fill:#ecedef" />
	</g>
	<g
   id="g30">
		<path
   id="path26"
   d="m 314.077,419.512 c 9.586,-8.855 19.749,-19.029 29.946,-30.51 25.034,-28.187 44.995,-58.385 59.327,-89.754 C 421.328,259.9 430.443,218.62 430.443,176.554 430.442,79.202 351.24,0 253.888,0 156.536,0 77.333,79.202 77.333,176.554 c 0,39.343 9.311,79.084 27.672,118.12 1.763,3.748 6.231,5.357 9.979,3.594 3.748,-1.763 5.357,-6.231 3.594,-9.979 C 101.162,251.266 92.332,213.673 92.332,176.554 92.333,87.473 164.806,15 253.888,15 c 89.081,0 161.555,72.473 161.555,161.554 0,39.808 -8.62,78.905 -25.62,116.205 -13.66,29.971 -32.737,58.882 -56.702,85.929 -33.396,37.69 -67.203,61.309 -78.835,68.917 -16.312,-12.7 -78.497,-63.53 -120.778,-131.402 -2.189,-3.516 -6.816,-4.59 -10.331,-2.4 -3.516,2.19 -4.591,6.815 -2.4,10.331 23.772,38.161 53.065,70.667 77.706,94.604 -26.425,2.466 -50.096,6.754 -67.778,12.357 -24.94,7.902 -37.603,18.173 -37.636,30.528 -0.039,14.394 16.952,25.982 50.5,34.44 29.515,7.441 68.65,11.6 110.197,11.709 0.563,0.001 1.121,0.002 1.683,0.002 40.918,0 79.422,-3.943 108.576,-11.13 33.593,-8.281 50.645,-19.778 50.684,-34.173 0.072,-28.036 -64.511,-39.017 -100.632,-42.959 z m 46.357,62.57 c -28.4,7.001 -66.244,10.803 -106.628,10.692 -40.359,-0.106 -78.207,-4.103 -106.569,-11.254 -32.153,-8.106 -39.175,-17.081 -39.167,-19.854 0.02,-7.501 31.826,-24.169 105.165,-29.064 20.233,18.39 34.864,29.191 36.226,30.188 1.313,0.961 2.869,1.447 4.429,1.447 1.322,0 2.648,-0.349 3.833,-1.053 1.107,-0.658 17.998,-10.804 40.923,-30.068 77.1,6.115 101.079,23.595 101.064,29.319 -0.011,2.772 -7.08,11.71 -39.276,19.647 z" />
		<path
   id="path28"
   d="m 253.888,115.101 c 27.042,0 50.356,18.329 56.696,44.573 0.972,4.026 5.023,6.502 9.051,5.529 4.026,-0.973 6.502,-5.025 5.529,-9.052 -7.972,-33.002 -37.282,-56.051 -71.276,-56.051 -40.431,0 -73.325,32.893 -73.325,73.325 0,40.431 32.894,73.324 73.325,73.324 33.338,0 62.509,-22.499 70.939,-54.713 1.049,-4.007 -1.35,-8.106 -5.357,-9.154 -4.009,-1.05 -8.106,1.349 -9.154,5.357 -6.704,25.618 -29.908,43.51 -56.428,43.51 -32.16,0 -58.325,-26.164 -58.325,-58.324 0,-32.16 26.165,-58.324 58.325,-58.324 z" />
	</g>
</g>















</svg>