<svg id="Capa_1" data-name="Capa 1" xmlns="http://www.w3.org/2000/svg" viewBox="0 0 512 512"><title>Socials__geo</title><path d="M316.69,423c9.67-8.93,19.91-19.18,30.2-30.76,25.24-28.42,45.36-58.87,59.82-90.5A296.05,296.05,0,0,0,434,178C434,79.86,354.16,0,256,0S78,79.86,78,178c0,39.67,9.38,79.75,27.9,119.11a7.56,7.56,0,0,0,13.68-6.44C102,253.36,93.1,215.45,93.1,178c0-89.82,73.08-162.9,162.9-162.9S418.9,88.2,418.9,178a280.88,280.88,0,0,1-25.83,117.17c-13.78,30.23-33,59.38-57.18,86.65-33.67,38-67.76,61.82-79.49,69.49-16.45-12.81-79.15-64.06-121.78-132.5a7.56,7.56,0,0,0-12.84,8c24,38.48,53.51,71.26,78.35,95.39-26.64,2.49-50.51,6.81-68.34,12.46-25.14,8-37.91,18.33-37.95,30.78,0,14.52,17.1,26.2,50.92,34.73,29.76,7.5,69.22,11.7,111.12,11.81h1.69c41.26,0,80.09-4,109.48-11.22,33.88-8.35,51.07-19.95,51.11-34.46C418.23,438.05,353.11,427,316.69,423Zm46.74,63.09c-28.63,7.06-66.79,10.9-107.51,10.78s-78.86-4.13-107.46-11.34C116,477.35,109,468.3,109,465.51c0-7.57,32.09-24.37,106-29.31,20.4,18.54,35.15,29.44,36.53,30.44a7.57,7.57,0,0,0,8.33.4c1.11-.67,18.15-10.9,41.26-30.32,77.74,6.17,101.92,23.79,101.91,29.56C403,469.08,395.9,478.09,363.43,486.09Z"/><path d="M256,116.06A58.62,58.62,0,0,1,313.17,161a7.56,7.56,0,1,0,14.7-3.55,73.93,73.93,0,1,0-.34,36.18,7.56,7.56,0,1,0-14.63-3.82A58.82,58.82,0,1,1,256,116.06Z"/></svg>