<svg width="168" height="19" viewBox="0 0 168 19" fill="none" xmlns="http://www.w3.org/2000/svg">
<path d="M9.49 11.136V13.762C9.49 14.6807 9.53333 15.3567 9.62 15.79C9.70667 16.206 9.88867 16.492 10.166 16.648C10.4607 16.7867 10.9027 16.8907 11.492 16.96C11.544 17.116 11.5787 17.2893 11.596 17.48C11.6307 17.6707 11.648 17.87 11.648 18.078C11.076 18.0607 10.504 18.0433 9.932 18.026C9.36 18.0087 8.83133 18 8.346 18C7.96467 18 7.54 18 7.072 18C6.62133 18.0173 6.188 18.026 5.772 18.026C5.37333 18.0433 5.05267 18.052 4.81 18.052C4.81 17.8787 4.81867 17.6967 4.836 17.506C4.87067 17.298 4.914 17.116 4.966 16.96C5.57267 16.908 6.02333 16.8213 6.318 16.7C6.63 16.5613 6.82933 16.3013 6.916 15.92C7.00267 15.5213 7.046 14.9147 7.046 14.1V11.136H9.49ZM9.282 11.656H7.254L2.73 2.972C2.45267 2.43467 2.184 2.05333 1.924 1.828C1.664 1.58533 1.29133 1.45533 0.806 1.438C0.736667 1.24733 0.693333 1.06533 0.676 0.891999C0.658667 0.718665 0.65 0.545332 0.65 0.371999C0.892667 0.371999 1.16133 0.380666 1.456 0.397999C1.75067 0.397999 2.054 0.406665 2.366 0.423998C2.69533 0.423998 3.02467 0.423998 3.354 0.423998C3.68333 0.423998 4.06467 0.423998 4.498 0.423998C4.94867 0.423998 5.382 0.423998 5.798 0.423998C6.23133 0.406665 6.578 0.389332 6.838 0.371999C6.838 0.562665 6.82933 0.735999 6.812 0.891999C6.79467 1.03067 6.76 1.19533 6.708 1.386C6.032 1.45533 5.642 1.646 5.538 1.958C5.45133 2.25267 5.59867 2.77267 5.98 3.518C6.448 4.41933 6.95067 5.43333 7.488 6.56C8.04267 7.68667 8.58867 8.85667 9.126 10.07H8.918C9.47267 8.83933 9.99267 7.704 10.478 6.664C10.9807 5.624 11.4313 4.70533 11.83 3.908C12.298 3.00667 12.4713 2.4 12.35 2.088C12.2287 1.75867 11.8213 1.542 11.128 1.438C11.076 1.24733 11.0327 1.074 10.998 0.918C10.9633 0.744666 10.946 0.562665 10.946 0.371999C11.258 0.406665 11.6567 0.423998 12.142 0.423998C12.6447 0.423998 13.0953 0.423998 13.494 0.423998C13.8927 0.423998 14.2913 0.423998 14.69 0.423998C15.0887 0.406665 15.4353 0.389332 15.73 0.371999C15.73 0.545332 15.7213 0.709999 15.704 0.865999C15.6867 1.022 15.6607 1.19533 15.626 1.386C15.158 1.50733 14.716 1.78467 14.3 2.218C13.884 2.65133 13.4507 3.31 13 4.194L9.282 11.656ZM30.2849 18.234C28.5689 18.234 27.0696 17.8353 25.7869 17.038C24.5043 16.2407 23.4989 15.1573 22.7709 13.788C22.0603 12.4187 21.7049 10.876 21.7049 9.16C21.7049 7.84267 21.9216 6.638 22.3549 5.546C22.8056 4.43667 23.4209 3.48333 24.2009 2.686C24.9809 1.88867 25.8909 1.27333 26.9309 0.839999C27.9709 0.406665 29.0889 0.189998 30.2849 0.189998C31.9316 0.189998 33.4049 0.571332 34.7049 1.334C36.0049 2.07933 37.0276 3.128 37.7729 4.48C38.5183 5.832 38.8909 7.392 38.8909 9.16C38.8909 10.4427 38.6829 11.6387 38.2669 12.748C37.8509 13.84 37.2529 14.802 36.4729 15.634C35.7103 16.4487 34.8003 17.09 33.7429 17.558C32.7029 18.0087 31.5503 18.234 30.2849 18.234ZM30.8049 16.96C31.9316 16.96 32.8936 16.648 33.6909 16.024C34.5056 15.3827 35.1296 14.5247 35.5629 13.45C35.9963 12.358 36.2129 11.1533 36.2129 9.836C36.2129 8.276 35.9269 6.86333 35.3549 5.598C34.8003 4.33267 34.0376 3.32733 33.0669 2.582C32.0963 1.81933 30.9869 1.438 29.7389 1.438C28.7163 1.438 27.7976 1.73267 26.9829 2.322C26.1856 2.894 25.5529 3.70867 25.0849 4.766C24.6169 5.82333 24.3829 7.054 24.3829 8.458C24.3829 9.55 24.5216 10.6073 24.7989 11.63C25.0763 12.6527 25.4836 13.5627 26.0209 14.36C26.5756 15.1573 27.2516 15.79 28.0489 16.258C28.8463 16.726 29.7649 16.96 30.8049 16.96ZM59.8376 11.006C59.8376 12.4967 59.7422 13.684 59.5516 14.568C59.3609 15.4347 58.9622 16.1627 58.3556 16.752C57.8529 17.2373 57.2462 17.61 56.5356 17.87C55.8249 18.1127 55.0276 18.234 54.1436 18.234C52.5316 18.234 51.2576 18 50.3216 17.532C49.4029 17.0467 48.7442 16.336 48.3456 15.4C47.9642 14.464 47.7736 13.3287 47.7736 11.994V3.726C47.7736 3.11933 47.7302 2.66 47.6436 2.348C47.5742 2.036 47.4269 1.828 47.2016 1.724C46.9936 1.60267 46.6729 1.516 46.2396 1.464C46.1876 1.29067 46.1529 1.10867 46.1356 0.918C46.1182 0.709999 46.1096 0.519333 46.1096 0.345999C46.4562 0.363333 46.9069 0.380666 47.4616 0.397999C48.0336 0.415332 48.5882 0.423998 49.1256 0.423998C49.3856 0.423998 49.6542 0.423998 49.9316 0.423998C50.2089 0.423998 50.4776 0.423998 50.7376 0.423998C50.9976 0.406665 51.2489 0.397999 51.4916 0.397999C51.7342 0.380666 51.9509 0.363333 52.1416 0.345999C52.1416 0.519333 52.1329 0.709999 52.1156 0.918C52.0982 1.10867 52.0636 1.29067 52.0116 1.464C51.5089 1.49867 51.1276 1.57667 50.8676 1.698C50.6076 1.802 50.4342 2.01 50.3476 2.322C50.2609 2.61667 50.2176 3.08467 50.2176 3.726V11.63C50.2176 12.618 50.3476 13.5107 50.6076 14.308C50.8676 15.088 51.3182 15.712 51.9596 16.18C52.6009 16.6307 53.4936 16.856 54.6376 16.856C55.0709 16.856 55.5476 16.7867 56.0676 16.648C56.5876 16.492 57.0296 16.232 57.3936 15.868C57.6709 15.5907 57.8876 15.27 58.0436 14.906C58.1996 14.542 58.3122 14.0653 58.3816 13.476C58.4682 12.8867 58.5116 12.1327 58.5116 11.214V4.766C58.5116 3.934 58.4682 3.29267 58.3816 2.842C58.2949 2.374 58.1216 2.036 57.8616 1.828C57.6189 1.62 57.2376 1.49867 56.7176 1.464C56.6656 1.204 56.6309 1.00467 56.6136 0.865999C56.5962 0.709999 56.5876 0.536666 56.5876 0.345999C56.7782 0.363333 57.0122 0.380666 57.2896 0.397999C57.5842 0.397999 57.8789 0.406665 58.1736 0.423998C58.4856 0.423998 58.7716 0.423998 59.0316 0.423998C59.4302 0.423998 59.8549 0.415332 60.3056 0.397999C60.7562 0.380666 61.1549 0.363333 61.5016 0.345999C61.5016 0.467332 61.4929 0.614665 61.4756 0.787998C61.4582 0.961333 61.4236 1.18667 61.3716 1.464C60.9729 1.49867 60.6609 1.62 60.4356 1.828C60.2102 2.01867 60.0542 2.348 59.9676 2.816C59.8809 3.26667 59.8376 3.91667 59.8376 4.766V11.006ZM81.7296 18.234C81.2096 17.5407 80.7502 16.908 80.3516 16.336C79.9702 15.764 79.5109 15.0533 78.9736 14.204C78.6269 13.6493 78.2889 13.1467 77.9596 12.696C77.6476 12.228 77.2662 11.76 76.8156 11.292C76.3649 10.8067 75.7842 10.2607 75.0736 9.654L75.7496 9.992C75.2989 10.0267 74.8742 10.044 74.4756 10.044C74.0942 10.044 73.7389 10.0267 73.4096 9.992V8.77C73.6522 8.80467 73.8776 8.83067 74.0856 8.848C74.2936 8.86533 74.5102 8.874 74.7356 8.874C75.6716 8.874 76.5209 8.744 77.2836 8.484C78.0636 8.20667 78.6789 7.782 79.1296 7.21C79.5802 6.638 79.8056 5.90133 79.8056 5C79.8056 3.97733 79.4762 3.14533 78.8176 2.504C78.1762 1.84533 77.0756 1.516 75.5156 1.516C75.1169 1.516 74.7529 1.53333 74.4236 1.568C74.1116 1.60267 73.7909 1.66333 73.4616 1.75L73.5916 1.256V14.698C73.5916 15.27 73.6436 15.7207 73.7476 16.05C73.8516 16.362 74.0336 16.5873 74.2936 16.726C74.5536 16.8473 74.9176 16.9253 75.3856 16.96C75.4376 17.116 75.4722 17.298 75.4896 17.506C75.5069 17.6967 75.5156 17.8873 75.5156 18.078C75.1342 18.0607 74.7356 18.0433 74.3196 18.026C73.9209 18.0087 73.5482 18 73.2016 18C72.8549 18 72.5689 18 72.3436 18C71.8929 18 71.3556 18.0087 70.7316 18.026C70.1076 18.0433 69.6049 18.0607 69.2236 18.078C69.2236 17.8873 69.2322 17.6967 69.2496 17.506C69.2669 17.3153 69.3016 17.1333 69.3536 16.96C69.8216 16.9253 70.1856 16.8473 70.4456 16.726C70.7056 16.5873 70.8876 16.362 70.9916 16.05C71.0956 15.7207 71.1476 15.27 71.1476 14.698V3.726C71.1476 3.154 71.0956 2.70333 70.9916 2.374C70.8876 2.04467 70.7056 1.81067 70.4456 1.672C70.1856 1.53333 69.8216 1.464 69.3536 1.464C69.3016 1.29067 69.2669 1.11733 69.2496 0.944C69.2322 0.770666 69.2236 0.58 69.2236 0.371999C69.3969 0.371999 69.6482 0.380666 69.9776 0.397999C70.3242 0.397999 70.6969 0.406665 71.0956 0.423998C71.5116 0.423998 71.8929 0.423998 72.2396 0.423998C72.7249 0.423998 73.2362 0.423998 73.7736 0.423998C74.3282 0.406665 74.8309 0.397999 75.2816 0.397999C75.7322 0.380666 76.0789 0.371999 76.3216 0.371999C77.7949 0.371999 78.9736 0.562666 79.8576 0.944C80.7416 1.32533 81.3742 1.84533 81.7556 2.504C82.1542 3.14533 82.3536 3.86467 82.3536 4.662C82.3536 5.51133 82.1629 6.26533 81.7816 6.924C81.4176 7.56533 80.8802 8.11133 80.1696 8.562C79.4589 8.99533 78.6182 9.32467 77.6476 9.55L77.7776 9.238C78.1762 9.53267 78.5142 9.81867 78.7916 10.096C79.0862 10.356 79.3549 10.642 79.5976 10.954C79.8576 11.266 80.1262 11.6387 80.4036 12.072C80.6982 12.488 81.0362 12.9993 81.4176 13.606C81.8856 14.334 82.3362 14.9407 82.7696 15.426C83.2202 15.894 83.6882 16.2493 84.1736 16.492C84.6762 16.7347 85.2569 16.8647 85.9156 16.882C85.9156 17.09 85.9069 17.2893 85.8896 17.48C85.8896 17.6533 85.8636 17.8267 85.8116 18C85.1529 18 84.4682 18.0087 83.7576 18.026C83.0469 18.0607 82.3709 18.13 81.7296 18.234ZM95.107 1.568C94.275 1.568 93.6423 1.70667 93.209 1.984C92.793 2.244 92.4897 2.61667 92.299 3.102C92.1257 3.57 91.9783 4.116 91.857 4.74C91.6663 4.74 91.4497 4.72267 91.207 4.688C90.9643 4.65333 90.765 4.59267 90.609 4.506C90.7303 3.778 90.8257 3.05867 90.895 2.348C90.9817 1.62 91.025 0.952666 91.025 0.345999C91.5103 0.363333 92.0997 0.380666 92.793 0.397999C93.5037 0.415332 94.2663 0.423998 95.081 0.423998C95.913 0.423998 96.771 0.423998 97.655 0.423998C98.5217 0.423998 99.3797 0.423998 100.229 0.423998C101.078 0.423998 101.858 0.415332 102.569 0.397999C103.28 0.380666 103.869 0.363333 104.337 0.345999C104.32 0.97 104.32 1.61133 104.337 2.27C104.354 2.92867 104.406 3.674 104.493 4.506C104.302 4.59267 104.103 4.662 103.895 4.714C103.687 4.74867 103.453 4.75733 103.193 4.74C103.176 3.73467 102.933 2.95467 102.465 2.4C101.997 1.84533 101.26 1.568 100.255 1.568H95.107ZM96.433 1.126H98.877V14.698C98.877 15.27 98.929 15.7207 99.033 16.05C99.137 16.362 99.3277 16.5873 99.605 16.726C99.8997 16.8473 100.333 16.9253 100.905 16.96C100.957 17.0987 100.992 17.2633 101.009 17.454C101.026 17.6447 101.035 17.8527 101.035 18.078C100.48 18.0607 99.9083 18.0433 99.319 18.026C98.7297 18.0087 98.1663 18 97.629 18C97.265 18 96.875 18 96.459 18C96.0603 18.0173 95.6617 18.026 95.263 18.026C94.8817 18.0433 94.535 18.0607 94.223 18.078C94.223 17.8527 94.2317 17.6447 94.249 17.454C94.2663 17.2633 94.301 17.0987 94.353 16.96C94.9077 16.9253 95.3323 16.8473 95.627 16.726C95.939 16.5873 96.147 16.362 96.251 16.05C96.3723 15.7207 96.433 15.27 96.433 14.698V1.126ZM112.966 3.726C112.966 3.154 112.914 2.712 112.81 2.4C112.706 2.07067 112.524 1.84533 112.264 1.724C112.004 1.58533 111.64 1.49867 111.172 1.464C111.12 1.32533 111.085 1.16067 111.068 0.969999C111.051 0.779333 111.042 0.571333 111.042 0.345999C111.354 0.363333 111.683 0.380666 112.03 0.397999C112.377 0.397999 112.732 0.406665 113.096 0.423998C113.46 0.423998 113.824 0.423998 114.188 0.423998C114.552 0.423998 114.907 0.423998 115.254 0.423998C115.618 0.406665 115.965 0.397999 116.294 0.397999C116.641 0.380666 116.987 0.363333 117.334 0.345999C117.334 0.571333 117.325 0.779333 117.308 0.969999C117.291 1.16067 117.256 1.32533 117.204 1.464C116.736 1.49867 116.372 1.58533 116.112 1.724C115.852 1.84533 115.67 2.07067 115.566 2.4C115.462 2.712 115.41 3.154 115.41 3.726V14.698C115.41 15.27 115.462 15.7207 115.566 16.05C115.67 16.362 115.852 16.5873 116.112 16.726C116.372 16.8473 116.736 16.9253 117.204 16.96C117.256 17.0987 117.291 17.2633 117.308 17.454C117.325 17.6447 117.334 17.8527 117.334 18.078C116.814 18.0607 116.285 18.0433 115.748 18.026C115.211 18.0087 114.691 18 114.188 18C113.685 18 113.148 18.0087 112.576 18.026C112.004 18.0433 111.493 18.0607 111.042 18.078C111.042 17.8527 111.051 17.6447 111.068 17.454C111.085 17.2633 111.12 17.0987 111.172 16.96C111.64 16.9253 112.004 16.8473 112.264 16.726C112.524 16.5873 112.706 16.362 112.81 16.05C112.914 15.7207 112.966 15.27 112.966 14.698V3.726ZM135.344 18.234L129.078 4.61H129.338L128.454 13.424C128.35 14.3427 128.333 15.0533 128.402 15.556C128.489 16.0413 128.671 16.388 128.948 16.596C129.243 16.804 129.642 16.9253 130.144 16.96C130.196 17.1333 130.231 17.3327 130.248 17.558C130.266 17.7833 130.274 17.9567 130.274 18.078C129.858 18.0607 129.382 18.0433 128.844 18.026C128.324 18.0087 127.874 18 127.492 18C127.232 18 126.946 18 126.634 18C126.322 18.0173 126.01 18.026 125.698 18.026C125.386 18.0433 125.118 18.0607 124.892 18.078C124.892 17.9567 124.901 17.7833 124.918 17.558C124.936 17.3327 124.97 17.1333 125.022 16.96C125.473 16.9253 125.837 16.8127 126.114 16.622C126.392 16.4313 126.608 16.076 126.764 15.556C126.92 15.036 127.042 14.2473 127.128 13.19L127.96 3.934C128.012 3.32733 127.986 2.842 127.882 2.478C127.796 2.114 127.614 1.854 127.336 1.698C127.076 1.542 126.704 1.464 126.218 1.464C126.166 1.29067 126.132 1.1 126.114 0.891999C126.097 0.683999 126.088 0.502 126.088 0.345999C126.262 0.363333 126.461 0.380666 126.686 0.397999C126.912 0.397999 127.137 0.406665 127.362 0.423998C127.605 0.423998 127.839 0.423998 128.064 0.423998C128.29 0.423998 128.506 0.423998 128.714 0.423998C128.94 0.406665 129.156 0.397999 129.364 0.397999C129.59 0.380666 129.815 0.363333 130.04 0.345999L136.852 15.4H136.28L142.208 0.345999C142.399 0.363333 142.607 0.380666 142.832 0.397999C143.075 0.397999 143.309 0.406665 143.534 0.423998C143.777 0.423998 144.011 0.423998 144.236 0.423998C144.462 0.423998 144.678 0.423998 144.886 0.423998C145.112 0.406665 145.328 0.397999 145.536 0.397999C145.762 0.380666 145.987 0.363333 146.212 0.345999C146.212 0.536666 146.204 0.727333 146.186 0.918C146.169 1.09133 146.134 1.27333 146.082 1.464C145.476 1.464 144.999 1.646 144.652 2.01C144.323 2.35667 144.21 3.05 144.314 4.09L145.25 13.632C145.337 14.4987 145.45 15.166 145.588 15.634C145.727 16.0847 145.918 16.4053 146.16 16.596C146.42 16.7867 146.75 16.8993 147.148 16.934C147.2 17.1247 147.235 17.324 147.252 17.532C147.27 17.7227 147.278 17.9047 147.278 18.078C147.07 18.0607 146.836 18.0433 146.576 18.026C146.316 18.026 146.039 18.0173 145.744 18C145.467 18 145.19 18 144.912 18C144.652 18 144.401 18 144.158 18C143.846 18 143.5 18 143.118 18C142.737 18.0173 142.356 18.026 141.974 18.026C141.61 18.0433 141.281 18.0607 140.986 18.078C140.986 17.922 140.995 17.74 141.012 17.532C141.047 17.324 141.09 17.1333 141.142 16.96C141.697 16.908 142.096 16.7953 142.338 16.622C142.598 16.4487 142.746 16.154 142.78 15.738C142.832 15.322 142.815 14.7327 142.728 13.97L141.74 4.506H142.026L136.41 18.052C136.254 18.1213 136.09 18.1647 135.916 18.182C135.743 18.2167 135.552 18.234 135.344 18.234ZM154.841 0.345999C155.101 0.363333 155.421 0.380666 155.803 0.397999C156.201 0.397999 156.617 0.406665 157.051 0.423998C157.484 0.423998 157.891 0.423998 158.273 0.423998C158.654 0.423998 158.966 0.423998 159.209 0.423998V14.412C159.209 15.0533 159.269 15.5473 159.391 15.894C159.512 16.2407 159.746 16.4833 160.093 16.622C160.439 16.7607 160.933 16.83 161.575 16.83V18C161.089 18 160.526 18 159.885 18C159.261 18 158.619 18 157.961 18C157.319 18.0173 156.721 18.026 156.167 18.026C155.612 18.0433 155.17 18.0607 154.841 18.078C154.841 17.8527 154.849 17.6447 154.867 17.454C154.884 17.2633 154.919 17.0987 154.971 16.96C155.439 16.9253 155.803 16.8387 156.063 16.7C156.323 16.5613 156.505 16.3187 156.609 15.972C156.713 15.608 156.765 15.088 156.765 14.412V3.726C156.765 3.154 156.713 2.712 156.609 2.4C156.505 2.07067 156.323 1.84533 156.063 1.724C155.803 1.58533 155.439 1.49867 154.971 1.464C154.919 1.32533 154.884 1.16067 154.867 0.969999C154.849 0.761999 154.841 0.553999 154.841 0.345999ZM166.801 13.554C167.061 13.6407 167.277 13.7273 167.451 13.814C167.624 13.9007 167.789 14.022 167.945 14.178C167.754 14.7847 167.589 15.4347 167.451 16.128C167.329 16.8213 167.225 17.4627 167.139 18.052C166.809 18.052 166.359 18.0433 165.787 18.026C165.232 18.026 164.591 18.0173 163.863 18C163.152 18 162.389 18 161.575 18V16.83H161.731C162.961 16.83 163.897 16.7087 164.539 16.466C165.18 16.206 165.657 15.8333 165.969 15.348C166.281 14.8627 166.558 14.2647 166.801 13.554ZM164.981 6.3C164.946 6.75067 164.929 7.22733 164.929 7.73C164.929 8.21533 164.929 8.68333 164.929 9.134C164.929 9.58467 164.929 10.096 164.929 10.668C164.929 11.2227 164.946 11.7167 164.981 12.15C164.738 12.15 164.521 12.1413 164.331 12.124C164.157 12.1067 163.975 12.072 163.785 12.02C163.715 11.1187 163.473 10.512 163.057 10.2C162.641 9.87067 161.904 9.706 160.847 9.706H158.975V8.588H160.847C161.904 8.588 162.641 8.44933 163.057 8.172C163.49 7.89467 163.715 7.33133 163.733 6.482C163.958 6.41267 164.157 6.36933 164.331 6.352C164.521 6.31733 164.738 6.3 164.981 6.3ZM166.515 0.345999C166.549 0.744666 166.593 1.19533 166.645 1.698C166.697 2.18333 166.757 2.67733 166.827 3.18C166.896 3.66533 166.974 4.09 167.061 4.454C166.922 4.57533 166.749 4.662 166.541 4.714C166.333 4.74867 166.116 4.766 165.891 4.766C165.839 4.22867 165.691 3.70867 165.449 3.206C165.223 2.70333 164.807 2.28733 164.201 1.958C163.611 1.62867 162.753 1.464 161.627 1.464H158.663L159.209 0.423998C160.561 0.423998 161.731 0.423998 162.719 0.423998C163.707 0.406665 164.513 0.397999 165.137 0.397999C165.761 0.380666 166.22 0.363333 166.515 0.345999Z" fill="black"/>
</svg>
