<svg height="512" viewBox="0 0 60 60" width="512" xmlns="http://www.w3.org/2000/svg"><g id="013---Hair-Dye" fill="none"><g id="Layer_3" transform="translate(1 5)"><path id="Shape" d="m34 40c0 .47.48.92 1.32 1.32l-.04.08.76 3.78c-2.0042719.3175878-4.0236407.531207-6.05.64h-.01v-8.4l-.01-.01c1.4122233-1.3544203 2.5467347-2.9712689 3.34-4.76.5453331-1.1600066.9805755-2.3686413 1.3-3.61l.02.01c1.2-.18 4.37-1.13 4.37-6.09 0-4.84-2.41-3.57-3.43-2.82.01-.45.01-.9.01-1.37 0-.71-.02-1.39-.07-2.04-3.56-3.59-4.81-3.73-12.01-3.73-5.44 0-7.48-3.28-8.16-5-2.43 1.86-3.92 5.17-3.92 10.77 0 .47 0 .92.01 1.37-1.02-.75-3.43-2.02-3.43 2.82 0 4.96 3.17 5.91 4.37 6.09h.02c.3091355 1.2372817.7343542 2.4426261 1.27 3.6.7961674 1.8059764 1.9453541 3.4345576 3.38 4.79v8.38c-14.63-.87-15.39-4.75-17-6.08 3.23-.66 4.12-3.3 4.12-6.92 0-5.16-1.8-12.34-1.2-18.65 1.21-12.58 13.18-11.45 13.29-11.48 6.8-3.7 18.85-4.08 24.4 2.04l-4.71 4.71c-.3802469.39309163-.3802469 1.0169084 0 1.41l1.42 1.41c1.1003906 1.1122239 2.5461089 1.8174523 4.1 2 .8506086.0988163 1.6885187.2865082 2.5.56.1625416 4.3004423-.0852459 8.6065872-.74 12.86-.34 2.91-1 6.59.31 9.39-5.12.3-9.53 1.5-9.53 2.93z" fill="#91562d"/><path id="Shape" d="m.02 39.74v-.02l.02.02z" fill="#91562d"/><path id="Shape" d="m12.39 29.05h-.02c-1.2-.18-4.37-1.13-4.37-6.09 0-4.84 2.41-3.57 3.43-2.82-.0439838 2.9980097.2784035 5.9901673.96 8.91z" fill="#dfc49c"/><path id="Shape" d="m39 22.96c0 4.96-3.17 5.91-4.37 6.09l-.02-.01c.6772696-2.917177.9996052-5.9054972.96-8.9 1.02-.75 3.43-2.02 3.43 2.82z" fill="#dfc49c"/><path id="Shape" d="m35.58 18.77c0 .47 0 .92-.01 1.37.0396052 2.9945028-.2827304 5.982823-.96 8.9-.3194245 1.2413587-.7546669 2.4499934-1.3 3.61-.7932653 1.7887311-1.9277767 3.4055797-3.34 4.76-3.6394213 3.3886353-9.2748934 3.4017106-12.93.03-1.4346459-1.3554424-2.5838326-2.9840236-3.38-4.79-.5356458-1.1573739-.9608645-2.3627183-1.27-3.6-.6815965-2.9198327-1.0039838-5.9119903-.96-8.91-.01-.45-.01-.9-.01-1.37 0-5.6 1.49-8.91 3.92-10.77.68 1.72 2.72 5 8.16 5 7.2 0 8.45.14 12.01 3.73.05.65.07 1.33.07 2.04z" fill="#ffe0b2"/><path id="Shape" d="m29.98 37.42v8.58c.0045301.5309962-.2030325 1.0418447-.576635 1.4192021-.3736026.3773574-.8823501.5900179-1.413365.5907979h-8.94c-1.1052968-.0021685-2.0023188-.8947277-2.01-2v-8.57c3.6551066 3.3717106 9.2905787 3.3586353 12.93-.03z" fill="#dfc49c"/><path id="Shape" d="m57.31 22c-.5449469.6303134-1.3274882 1.005595-2.1601593 1.0359429-.832671.0303479-1.6404552-.2869719-2.2298407-.8759429l-4.91-4.9c-1.1364797-1.1241827-2.5249885-1.9607163-4.05-2.44-.8114813-.2734918-1.6493914-.4611837-2.5-.56-1.5538911-.1825477-2.9996094-.8877761-4.1-2l-1.42-1.41c-.3802469-.3930916-.3802469-1.01690837 0-1.41l8.49-8.49c.3900375-.38772359 1.0199625-.38772359 1.41 0l1.42 1.41c1.1071334 1.10807227 1.8112476 2.55502699 2 4.11.2291708 2.46012699 1.2869124 4.7695295 3 6.55l4.78 4.78c1.1647 1.1185401 1.2818926 2.9415361.27 4.2z" fill="#3f51b5"/><path id="Shape" d="m57.04 17.8-4.78-4.78c-1.7130876-1.7804705-2.7708292-4.08987301-3-6.55-.1887524-1.55497301-.8928666-3.00192773-2-4.11l-1.42-1.41c-.3900375-.38772359-1.0199625-.38772359-1.41 0l-.792.792.622.618c1.1071334 1.10807227 1.8112476 2.55502699 2 4.11.2291708 2.46012699 1.2869124 4.7695295 3 6.55l4.78 4.78c1.1647 1.1185401 1.2818926 2.9415361.27 4.2-.2213179.2505961-.4837453.4616202-.776.624 1.2430937.737087 2.8361342.4738303 3.776-.624 1.0118926-1.2584639.8947-3.0814599-.27-4.2z" fill="#283593"/><path id="Shape" d="m58 40c0 .47-.48.92-1.32 1.32-2.08 1-6.34 1.68-10.68 1.68s-8.6-.68-10.68-1.68c-.84-.4-1.32-.85-1.32-1.32 0-1.43 4.41-2.63 9.53-2.93.81-.04 1.64-.07 2.47-.07 6.08 0 12 1.34 12 3z" fill="#607d8b"/><path id="Shape" d="m46 37c-.443 0-.879.023-1.319.037 5.444.218 10.319 1.457 10.319 2.963 0 .47-.48.92-1.32 1.32-1.839.884-5.384 1.516-9.18 1.651.5.018 1 .029 1.5.029 4.34 0 8.6-.68 10.68-1.68.84-.4 1.32-.85 1.32-1.32 0-1.66-5.92-3-12-3z" fill="#37474f"/><path id="Shape" d="m56.72 41.4-1.72 8.6v2c-.0032948 1.1032019-.8967981 1.9967052-2 2h-14c-1.1032019-.0032948-1.9967052-.8967981-2-2v-2l-.96-4.82-.76-3.78.04-.08c2.08 1 6.34 1.68 10.68 1.68s8.6-.68 10.68-1.68z" fill="#02a9f4"/><path id="Shape" d="m56.68 41.32c-1.0050159.4430136-2.0580648.7678547-3.138.968l-1.542 7.712v2c-.0032948 1.1032019-.8967981 1.9967052-2 2h3c1.1032019-.0032948 1.9967052-.8967981 2-2v-2l1.72-8.6z" fill="#0377bc"/></g><g id="Layer_2" fill="#000"><path id="Shape" d="m32.7 8.778c-.2510745-.25995658-.6228779-.3642126-.9725073-.27269716-.3496295.09151544-.6226744.3645604-.7141899.71418984-.0915154.34962943.0127406.72143285.2726972.97250732l4.439 4.439c-.1911498.6866768.0039383 1.423039.51 1.925 1.761 1.761 3.081 3.34 6.107 3.7 2.2369515.2063115 4.3385883 1.1623377 5.964 2.713l4.9 4.9c1.031783.9890898 2.512863 1.3525968 3.8853314.9535914s2.4278147-1.4999048 2.7685001-2.888c.3406853-1.3880953-.0850484-2.8525016-1.1168315-3.8415914l-4.781-4.781c-1.5501651-1.6256415-2.5058101-3.7272148-2.712-5.964-.372-3.1-2.108-4.513-3.7-6.107-.5053974-.49936785-1.2377831-.69312269-1.924-.509l-4.439-4.439c-.3923789-.37897221-1.0160848-.37355237-1.4018186.01218143-.3857338.38573379-.3911536 1.00943968-.0121814 1.40181857l4.243 4.243-1.416 1.414-4.241-4.242c-.3923789-.37897221-1.0160848-.37355237-1.4018186.01218142-.3857338.3857338-.3911536 1.00943969-.0121814 1.40181858l4.242 4.242-1.414 1.414-4.243-4.242c-.3923789-.37897221-1.0160848-.37355237-1.4018186.01218142-.3857338.3857338-.3911536 1.00943969-.0121814 1.40181858l4.243 4.242-1.415 1.415zm16.564 2.809c.2578997 2.6823088 1.4152492 5.1985925 3.284 7.14l4.781 4.781c.7892615.7503703.8846332 1.9755302.221 2.839-.3726456.405477-.8919414.6451315-1.4422661.6656043-.5503246.0204728-1.0859914-.1799356-1.4877339-.5566043l-4.9-4.9c-1.9411763-1.8692481-4.4575237-3.0269794-7.14-3.285-2.358-.281-3.4-1.6-4.931-3.129l8.488-8.483c1.582 1.579 2.847 2.575 3.129 4.928z"/><path id="Shape" d="m45.21 41.048c-1.209-3.508.345-8.237.769-16.013.0196496-.3572656-.1527923-.6978756-.4523686-.8935255-.2995763-.1956498-.6807741-.2166157-1-.055-.3192259.1616158-.5279818.4812599-.5476314.8385255-.412 7.581-1.933 12.234-.821 16.266-4.115.377-9.158 1.403-9.158 3.809.0824635.8303963.6005452 1.5541869 1.36 1.9l.489 2.445c-1.19.167-2.486.3-3.872.4v-6.917c2.1031686-2.238331 3.6249938-4.9585248 4.432-7.922 1.6-.423 4.591-1.89 4.591-6.946 0-2.339-.54-3.749-1.652-4.311-.5534634-.266995-1.1879399-.3127746-1.774-.128 0-.637-.022-1.268-.067-1.866-.0178386-.237121-.1195909-.4601251-.287-.629-3.858-3.89-5.52-4.026-12.72-4.026-4.788 0-6.585-2.736-7.23-4.368-.1156044-.2919097-.3615931-.5125786-.6642972-.5959205s-.6269762-.0196799-.8757028.1719205c-2.856 2.2-4.261 5.9-4.3 11.314-.5856649-.184515-1.219613-.1391053-1.773.127-1.117.562-1.657 1.972-1.657 4.311 0 5.04 2.971 6.513 4.574 6.94.8008288 2.9868397 2.33491 5.7263932 4.463 7.97v6.874c-10.237-.744-12.844-2.999-14.211-4.544 6.6-3.156 1.166-15.883 2.13-25.933.983-10.204 9.544-10.673 12.149-10.58.2148988.0236433.4319448-.01781492.623-.119 4.1926166-2.09297153 8.8982361-2.93746309 13.557-2.433.3553006.03840605.7041013-.11565592.9150123-.40415227.2109109-.28849634.2518897-.6675976.1075-.9945s-.4522117-.55194168-.8075123-.59034773c-4.9712617-.52664769-9.9905489.35234255-14.487 2.537-6.192-.159-13.141 2.984-14.049 12.392-1.006 10.5 4.444 23.172-1.99 24.654-.43340948.0272187-.80090493.328436-.91267137.7480702-.11176644.4196343.05721807.863739.41967137 1.1029298 1.63 1.5 2.839 5.216 16.665 6.182.3483131 1.3208937 1.5419553 2.2419849 2.908 2.244h8.94c1.3625076.0052842 2.5515019-.9229332 2.877-2.246 1.57-.109 3.033-.26 4.371-.451.91 4.548.758 3.3.758 5.691 0 1.6568542 1.3431458 3 3 3h14c1.6568542 0 3-1.3431458 3-3 0-2.536-.267-.568 1.64-10.1.7594548-.3458131 1.2775365-1.0696037 1.36-1.9 0-3.611-11.119-4.126-14.79-3.952zm-6.765-15.614c.023.011.555.3.555 2.526 0 2.675-1 3.966-2.048 4.587.3915128-2.2663855.596201-4.5611009.612-6.861.46-.263.771-.309.881-.252zm-28.445 2.526c0-2.221.532-2.515.555-2.526.11-.055.421-.01.88.253.0148497 2.2971082.2155041 4.5892507.6 6.854-1.045-.623-2.035-1.914-2.035-4.581zm5.569 9.261c-1.792-3.826-2.152-7.982-2.152-13.446 0-4.214.858-7.222 2.618-9.143 1.118 1.873 3.534 4.368 8.465 4.368 6.92 0 7.952.105 11.037 3.171.031.518.046 1.056.046 1.6 0 5.452-.364 9.6-2.177 13.445-2.1 4.471-5.094 6.738-8.906 6.738-3.842.004-6.846-2.262-8.931-6.733zm13.425 14.785h-8.94c-.2898028.0040895-.5671242-.1177566-.7601299-.3339768-.1930057-.2162201-.2827076-.5055421-.2458701-.7930232 0-.051-.011.715-.011-6.435 3.3655828 2.0335543 7.5833719 2.0243014 10.94-.024v6.58c.005641.264511-.0953646.520171-.280269.7094017-.1849043.1892307-.4381603.2961212-.702731.2965983zm18.006-9.006c6.09 0 10.231 1.264 10.941 2-.71.736-4.851 2-10.941 2s-10.231-1.264-10.941-2c.71-.736 4.851-2 10.941-2zm8 14c0 .5522847-.4477153 1-1 1h-14c-.5522847 0-1-.4477153-1-1v-1h10c.5522847 0 1-.4477153 1-1s-.4477153-1-1-1h-10.18c-.65-3.25 1.034 5.171-1.234-6.167 6.1821627 1.5348259 12.6458373 1.5348259 18.828 0-1.686 8.429-1.414 6.367-1.414 9.167z"/></g></g></svg>