<?xml version="1.0" encoding="iso-8859-1"?>
<!-- Generator: Adobe Illustrator 19.0.0, SVG Export Plug-In . SVG Version: 6.00 Build 0)  -->
<svg version="1.1" id="Capa_1" xmlns="http://www.w3.org/2000/svg" xmlns:xlink="http://www.w3.org/1999/xlink" x="0px" y="0px"
	 viewBox="0 0 512 512" style="enable-background:new 0 0 512 512;" xml:space="preserve">
<g>
	<g>
		<g>
			<path d="M374.769,407.125l-262.102-9.291c-0.088-0.003-0.177-0.005-0.266-0.005H98.436c-6.488-5.979-15.148-9.634-24.645-9.634
				H12.357c-3.973,0-7.726,1.922-10.041,5.141c-2.303,3.204-2.929,7.35-1.673,11.088v-0.001l16.179,48.171
				C18.51,457.622,23.218,461,28.536,461h45.255c9.667,0,18.464-3.787,24.989-9.955h13.621c0.085,0,0.171-0.002,0.257-0.005
				l262.089-8.979c9.505-0.326,16.95-7.999,16.95-17.469C391.697,415.133,384.261,407.461,374.769,407.125z M56.366,446H30.43
				l-14.376-42.805h40.312V446z M73.791,446h-2.425v-42.805h2.425c11.802,0,21.403,9.601,21.403,21.402
				C95.194,436.398,85.593,446,73.791,446z M374.233,427.068l-261.96,8.977h-3.922c1.196-3.602,1.843-7.449,1.843-11.447
				c0-4.116-0.687-8.075-1.952-11.769h4.025l261.97,9.286c1.38,0.049,2.46,1.137,2.46,2.477
				C376.697,425.934,375.615,427.021,374.233,427.068z"/>
			<path d="M65.742,159.384c-20.193,0-36.621,16.33-36.621,36.402c0,20.073,16.428,36.403,36.621,36.403s36.621-16.33,36.621-36.403
				C102.363,175.714,85.935,159.384,65.742,159.384z M65.742,217.189c-11.922,0-21.621-9.602-21.621-21.403
				c0-11.801,9.699-21.402,21.621-21.402s21.621,9.601,21.621,21.402S77.664,217.189,65.742,217.189z"/>
			<path d="M65.742,255.726c-20.193,0-36.621,16.33-36.621,36.402c0,20.072,16.428,36.402,36.621,36.402s36.621-16.33,36.621-36.402
				S85.935,255.726,65.742,255.726z M65.742,313.53c-11.922,0-21.621-9.601-21.621-21.402c0-11.801,9.699-21.402,21.621-21.402
				s21.621,9.602,21.621,21.402C87.363,303.93,77.664,313.53,65.742,313.53z"/>
			<path d="M337.539,328.53c20.193,0,36.621-16.33,36.621-36.402s-16.428-36.402-36.621-36.402s-36.621,16.33-36.621,36.402
				S317.346,328.53,337.539,328.53z M337.539,270.726c11.922,0,21.621,9.602,21.621,21.402c0,11.802-9.699,21.402-21.621,21.402
				s-21.621-9.601-21.621-21.402S325.617,270.726,337.539,270.726z"/>
			<path d="M337.539,232.189c20.193,0,36.621-16.33,36.621-36.403c0-20.072-16.428-36.402-36.621-36.402
				s-36.621,16.33-36.621,36.402C300.918,215.859,317.346,232.189,337.539,232.189z M337.539,174.384
				c11.922,0,21.621,9.601,21.621,21.402s-9.699,21.403-21.621,21.403s-21.621-9.602-21.621-21.403
				C315.918,183.985,325.617,174.384,337.539,174.384z"/>
			<path d="M501.705,244.641v-13.027c0-8.14-5.729-14.971-13.383-16.707V134.61c0-4.143-3.357-7.5-7.5-7.5s-7.5,3.357-7.5,7.5v79.87
				H425.18V111.704c0-1.762,0.639-3.471,1.798-4.813l33.055-38.274c1.437-1.663,3.53-2.616,5.746-2.616
				c4.159,0,7.543,3.333,7.543,7.43v32.599c0,4.143,3.357,7.5,7.5,7.5s7.5-3.357,7.5-7.5v-32.6c0-12.368-10.112-22.43-22.543-22.43
				c-6.578,0-12.811,2.848-17.098,7.812l-33.056,38.274c-3.512,4.066-5.445,9.258-5.445,14.618v11.552H114.762
				c-4.142,0-7.5,3.357-7.5,7.5s3.358,7.5,7.5,7.5H410.18v76.65c-7.653,1.736-13.383,8.567-13.383,16.707v13.027
				c-6.066,2.751-10.295,8.864-10.295,15.947v89.07H17.207c-1.217,0-2.207-0.957-2.207-2.134V140.391
				c0-1.177,0.99-2.135,2.207-2.135h68.435c4.142,0,7.5-3.357,7.5-7.5s-3.358-7.5-7.5-7.5H17.207C7.719,123.256,0,130.942,0,140.391
				v207.134c0,9.447,7.719,17.134,17.207,17.134h369.296v22.598c0,15.163,12.337,27.5,27.5,27.5H484.5
				c15.163,0,27.5-12.337,27.5-27.5V260.588C512,253.505,507.771,247.392,501.705,244.641z M411.798,231.613L411.798,231.613
				c0-1.177,0.99-2.134,2.207-2.134h70.493c1.217,0,2.207,0.957,2.207,2.134v11.475h-74.907V231.613z M497,387.256
				c0,6.893-5.607,12.5-12.5,12.5h-70.497c-6.893,0-12.5-5.607-12.5-12.5V260.588c0-1.379,1.121-2.5,2.5-2.5H494.5
				c1.379,0,2.5,1.121,2.5,2.5V387.256z"/>
			<path d="M246.94,232.189c20.193,0,36.622-16.33,36.622-36.403c0-20.072-16.429-36.402-36.622-36.402s-36.621,16.33-36.621,36.402
				C210.319,215.859,226.747,232.189,246.94,232.189z M246.94,174.384c11.922,0,21.622,9.601,21.622,21.402
				s-9.699,21.403-21.622,21.403c-11.922,0-21.621-9.602-21.621-21.403C225.319,183.985,235.018,174.384,246.94,174.384z"/>
			<path d="M156.341,328.53c20.193,0,36.621-16.33,36.621-36.402s-16.428-36.402-36.621-36.402s-36.621,16.33-36.621,36.402
				S136.148,328.53,156.341,328.53z M156.341,270.726c11.922,0,21.621,9.602,21.621,21.402c0,11.802-9.699,21.402-21.621,21.402
				s-21.621-9.601-21.621-21.402S144.419,270.726,156.341,270.726z"/>
			<path d="M156.341,232.189c20.193,0,36.621-16.33,36.621-36.403c0-20.072-16.428-36.402-36.621-36.402
				s-36.621,16.33-36.621,36.402C119.72,215.859,136.148,232.189,156.341,232.189z M156.341,174.384
				c11.922,0,21.621,9.601,21.621,21.402s-9.699,21.403-21.621,21.403s-21.621-9.602-21.621-21.403
				C134.72,183.985,144.419,174.384,156.341,174.384z"/>
			<path d="M246.94,328.53c20.193,0,36.622-16.33,36.622-36.402s-16.429-36.402-36.622-36.402s-36.621,16.33-36.621,36.402
				S226.747,328.53,246.94,328.53z M246.94,270.726c11.922,0,21.622,9.602,21.622,21.402c0,11.802-9.699,21.402-21.622,21.402
				c-11.922,0-21.621-9.601-21.621-21.402S235.018,270.726,246.94,270.726z"/>
		</g>
	</g>
</g>
<g>
</g>
<g>
</g>
<g>
</g>
<g>
</g>
<g>
</g>
<g>
</g>
<g>
</g>
<g>
</g>
<g>
</g>
<g>
</g>
<g>
</g>
<g>
</g>
<g>
</g>
<g>
</g>
<g>
</g>
</svg>
