<svg height="464pt" viewBox="-24 0 464 464" width="464pt" xmlns="http://www.w3.org/2000/svg"><path d="m400 64v48h-384v-48c0-35.347656 28.652344-64 64-64h256c35.347656 0 64 28.652344 64 64zm0 0" fill="#898890"/><path d="m64 464h288c35.347656 0 64-28.652344 64-64v-16h-416v16c0 35.347656 28.652344 64 64 64zm0-32h288c11.429688-.003906 21.988281-6.101562 27.703125-16-5.714844 9.898438-16.273437 15.996094-27.703125 16h-288c-11.429688-.003906-21.988281-6.101562-27.703125-16 5.714844 9.898438 16.273437 15.996094 27.703125 16zm0 0" fill="#898890"/><path d="m400 352h-384v32h384zm0 0" fill="#acabb1"/><path d="m48 112h320v240h-320zm0 0" fill="#57565c"/><path d="m272 288h16c17.671875 0 32-14.328125 32-32s-14.328125-32-32-32h-16zm0 0" fill="#57565c"/><path d="m184 144h48c17.671875 0 32-14.328125 32-32h-112c0 17.671875 14.328125 32 32 32zm0 0" fill="#d3d2d6"/><path d="m192 144h32v32h-32zm0 0" fill="#a3a2a9"/><path d="m144 24h128c8.835938 0 16 7.164062 16 16v32c0 8.835938-7.164062 16-16 16h-128c-8.835938 0-16-7.164062-16-16v-32c0-8.835938 7.164062-16 16-16zm0 0" fill="#00b6bd"/><path d="m352 440h-288c-14.277344-.042969-27.460938-7.65625-34.632812-20-2.046876-3.808594-.699219-8.554688 3.042968-10.71875 3.746094-2.164062 8.53125-.957031 10.804688 2.71875 4.304687 7.40625 12.21875 11.976562 20.785156 12h288c8.574219-.019531 16.492188-4.585938 20.800781-12 2.273438-3.675781 7.058594-4.882812 10.804688-2.71875 3.742187 2.164062 5.089843 6.910156 3.042969 10.71875-7.175782 12.347656-20.367188 19.964844-34.648438 20zm0 0" fill="#57565c"/><path d="m280 296h-16c-4.417969 0-8-3.582031-8-8v-64c0-4.417969 3.582031-8 8-8h16c22.089844 0 40 17.910156 40 40s-17.910156 40-40 40zm-8-16h8c13.253906 0 24-10.746094 24-24s-10.746094-24-24-24h-8zm0 0" fill="#d8d7da"/><path d="m224 64h-16c-4.417969 0-8-3.582031-8-8s3.582031-8 8-8h16c4.417969 0 8 3.582031 8 8s-3.582031 8-8 8zm0 0" fill="#e0e0e2"/><path d="m264 64h-16c-4.417969 0-8-3.582031-8-8s3.582031-8 8-8h16c4.417969 0 8 3.582031 8 8s-3.582031 8-8 8zm0 0" fill="#e0e0e2"/><path d="m272 288v-40.214844l-12.183594-2.960937c-13.578125-3.304688-27.789062-2.992188-41.207031.910156l-15.808594 4.59375c-12.355469 3.578125-25.390625 4.125-38 1.601563l-20.800781-4.160157v40.230469c0 35.347656 28.652344 64 64 64s64-28.652344 64-64zm0 0" fill="#8b5e3c"/><path d="m202.800781 250.328125 15.808594-4.59375c13.417969-3.902344 27.628906-4.214844 41.207031-.910156l12.183594 2.960937v-39.785156h-128v39.785156l20.800781 4.160156c12.613281 2.519532 25.644531 1.964844 38-1.617187zm0 0" fill="#d8d7da"/><path d="m184 56c0 8.835938-7.164062 16-16 16s-16-7.164062-16-16 7.164062-16 16-16 16 7.164062 16 16zm0 0" fill="#ffaf46"/></svg>